<?xml version="1.0" encoding="UTF-8"?>
<svg xmlns="http://www.w3.org/2000/svg" width="999.53" height="1020" xmlns:xlink="http://www.w3.org/1999/xlink" viewBox="0 0 999.53 1020">
  <defs>
    <style>
      .cls-1, .cls-2, .cls-3, .cls-4, .cls-5, .cls-6, .cls-7, .cls-8, .cls-9, .cls-10, .cls-11, .cls-12, .cls-13 {
        stroke-miterlimit: 10;
      }

      .cls-1, .cls-5, .cls-6, .cls-7, .cls-8, .cls-9, .cls-10, .cls-11, .cls-12, .cls-13 {
        stroke: #303935;
      }

      .cls-1, .cls-10 {
        fill: none;
      }

      .cls-2 {
        fill: url(#Ikke-navngivet_forløb_370);
      }

      .cls-2, .cls-3, .cls-4 {
        stroke: #333;
        stroke-width: .75px;
      }

      .cls-3 {
        fill: url(#Ikke-navngivet_forløb_374);
      }

      .cls-4 {
        fill: url(#Ikke-navngivet_forløb_380);
      }

      .cls-5, .cls-6, .cls-14 {
        fill: #6bbdcc;
      }

      .cls-5, .cls-10, .cls-11, .cls-12, .cls-13 {
        stroke-width: .5px;
      }

      .cls-6 {
        stroke-width: .25px;
      }

      .cls-15, .cls-12 {
        fill: #e6e6e6;
      }

      .cls-7 {
        fill: url(#Ikke-navngivet_forløb_329);
      }

      .cls-8 {
        fill: url(#Ikke-navngivet_forløb_320);
      }

      .cls-9 {
        fill: url(#Ikke-navngivet_forløb_323);
      }

      .cls-16 {
        fill: url(#Ikke-navngivet_forløb_40);
      }

      .cls-11, .cls-17 {
        fill: #e1e2e2;
      }

      .cls-18 {
        fill: url(#Ikke-navngivet_forløb_306);
      }

      .cls-19 {
        fill: url(#Ikke-navngivet_forløb_333);
      }

      .cls-20 {
        fill: url(#Ikke-navngivet_forløb_187);
      }

      .cls-21 {
        fill: url(#Ikke-navngivet_forløb_150);
      }

      .cls-22 {
        fill: url(#Ikke-navngivet_forløb_196);
      }

      .cls-23 {
        fill: url(#Ikke-navngivet_forløb_295);
      }

      .cls-24 {
        fill: url(#Ikke-navngivet_forløb_232);
      }

      .cls-25 {
        fill: #ff0;
      }

      .cls-26 {
        fill: #303935;
      }

      .cls-27 {
        fill: #2e3192;
      }

      .cls-13 {
        fill: #f2f2f2;
      }

      .cls-28 {
        fill: url(#Ikke-navngivet_forløb_232-2);
      }

      .cls-29 {
        fill: url(#Ikke-navngivet_forløb_333-2);
      }

      .cls-30 {
        fill: url(#Ikke-navngivet_forløb_333-3);
      }
    </style>
    <radialGradient id="Ikke-navngivet_forløb_306" data-name="Ikke-navngivet forløb 306" cx="281.98" cy="354.04" fx="281.98" fy="354.04" r="98.97" gradientTransform="translate(38.6 82.14) rotate(8.77) scale(1 .65)" gradientUnits="userSpaceOnUse">
      <stop offset=".1" stop-color="#fff"/>
      <stop offset=".54" stop-color="#53bad9"/>
      <stop offset=".86" stop-color="#6bbdcc"/>
      <stop offset=".9" stop-color="#569dbd"/>
      <stop offset=".97" stop-color="#2b5d9e"/>
      <stop offset="1" stop-color="#0a568c"/>
    </radialGradient>
    <linearGradient id="Ikke-navngivet_forløb_187" data-name="Ikke-navngivet forløb 187" x1="102.72" y1="263.18" x2="250.52" y2="263.18" gradientUnits="userSpaceOnUse">
      <stop offset="0" stop-color="#005a97"/>
      <stop offset=".06" stop-color="#53bad9"/>
      <stop offset=".59" stop-color="#6bbdcc"/>
      <stop offset=".69" stop-color="#569dbd"/>
      <stop offset=".88" stop-color="#2b5d9e"/>
      <stop offset="1" stop-color="#0a568c"/>
    </linearGradient>
    <linearGradient id="Ikke-navngivet_forløb_196" data-name="Ikke-navngivet forløb 196" x1="354.41" y1="297.42" x2="496.72" y2="297.42" gradientUnits="userSpaceOnUse">
      <stop offset="0" stop-color="#005a97"/>
      <stop offset=".13" stop-color="#09649e"/>
      <stop offset=".35" stop-color="#53bad9"/>
      <stop offset=".44" stop-color="#54bad8"/>
      <stop offset=".81" stop-color="#6bbdcc"/>
      <stop offset=".87" stop-color="#4d9db8"/>
      <stop offset="1" stop-color="#0a568c"/>
    </linearGradient>
    <radialGradient id="Ikke-navngivet_forløb_333" data-name="Ikke-navngivet forløb 333" cx="234.87" cy="330.9" fx="234.87" fy="330.9" r="45.48" gradientUnits="userSpaceOnUse">
      <stop offset=".24" stop-color="#6bbdcc"/>
      <stop offset=".26" stop-color="#8acad6"/>
      <stop offset=".32" stop-color="#d9eef1"/>
      <stop offset=".35" stop-color="#fff"/>
      <stop offset=".4" stop-color="#0a568c"/>
      <stop offset=".46" stop-color="#2b5d9e"/>
    </radialGradient>
    <radialGradient id="Ikke-navngivet_forløb_320" data-name="Ikke-navngivet forløb 320" cx="236.28" cy="332.13" fx="236.28" fy="332.13" r="9.12" gradientUnits="userSpaceOnUse">
      <stop offset=".1" stop-color="#fff"/>
      <stop offset=".61" stop-color="lime"/>
      <stop offset=".83" stop-color="#009245"/>
      <stop offset=".91" stop-color="#1e733e"/>
      <stop offset=".94" stop-color="#2d663c"/>
    </radialGradient>
    <radialGradient id="Ikke-navngivet_forløb_380" data-name="Ikke-navngivet forløb 380" cx="241.27" cy="327.19" fx="241.27" fy="327.19" r="5.79" gradientUnits="userSpaceOnUse">
      <stop offset=".22" stop-color="#f7f6f6"/>
      <stop offset=".42" stop-color="#f7f6f6"/>
      <stop offset=".65" stop-color="#e6e5e4"/>
      <stop offset=".82" stop-color="#9a9993"/>
    </radialGradient>
    <radialGradient id="Ikke-navngivet_forløb_333-2" data-name="Ikke-navngivet forløb 333" cx="282.27" cy="337.67" fx="282.27" fy="337.67" r="45.09" xlink:href="#Ikke-navngivet_forløb_333"/>
    <radialGradient id="Ikke-navngivet_forløb_323" data-name="Ikke-navngivet forløb 323" cx="281.88" cy="338.32" fx="281.88" fy="338.32" r="9.12" gradientUnits="userSpaceOnUse">
      <stop offset=".1" stop-color="#fff"/>
      <stop offset=".33" stop-color="#efffef"/>
      <stop offset=".7" stop-color="lime"/>
      <stop offset=".83" stop-color="#009245"/>
      <stop offset=".91" stop-color="#1e733e"/>
      <stop offset=".94" stop-color="#2d663c"/>
    </radialGradient>
    <radialGradient id="Ikke-navngivet_forløb_370" data-name="Ikke-navngivet forløb 370" cx="283.04" cy="331.39" fx="283.04" fy="331.39" r="5.74" gradientUnits="userSpaceOnUse">
      <stop offset=".38" stop-color="#f7f6f6"/>
      <stop offset=".48" stop-color="#f7f6f6"/>
      <stop offset=".63" stop-color="#e6e5e4"/>
      <stop offset=".81" stop-color="#9a9993"/>
    </radialGradient>
    <radialGradient id="Ikke-navngivet_forløb_333-3" data-name="Ikke-navngivet forløb 333" cx="329.03" cy="352.9" fx="329.03" fy="352.9" r="44.9" gradientTransform="translate(77.72 -59.77) rotate(11.66)" xlink:href="#Ikke-navngivet_forløb_333"/>
    <radialGradient id="Ikke-navngivet_forløb_329" data-name="Ikke-navngivet forløb 329" cx="326.45" cy="353.49" fx="318.22" fy="353.49" r="9.86" gradientUnits="userSpaceOnUse">
      <stop offset=".21" stop-color="#fff"/>
      <stop offset=".59" stop-color="lime"/>
      <stop offset=".78" stop-color="#009245"/>
      <stop offset=".86" stop-color="#1e733e"/>
      <stop offset=".89" stop-color="#2d663c"/>
    </radialGradient>
    <radialGradient id="Ikke-navngivet_forløb_374" data-name="Ikke-navngivet forløb 374" cx="332.21" cy="348.46" fx="332.21" fy="348.46" r="5.67" gradientUnits="userSpaceOnUse">
      <stop offset=".17" stop-color="#f7f6f6"/>
      <stop offset=".35" stop-color="#f7f6f6"/>
      <stop offset=".55" stop-color="#e6e5e4"/>
      <stop offset=".75" stop-color="#9a9993"/>
    </radialGradient>
    <radialGradient id="Ikke-navngivet_forløb_232" data-name="Ikke-navngivet forløb 232" cx="236.83" cy="538.23" fx="236.83" fy="555.1" r="23.56" gradientUnits="userSpaceOnUse">
      <stop offset=".36" stop-color="#6bbdcc"/>
      <stop offset=".85" stop-color="#184c8c"/>
    </radialGradient>
    <radialGradient id="Ikke-navngivet_forløb_232-2" data-name="Ikke-navngivet forløb 232" cx="370.33" cy="543.17" fx="370.33" fy="560.95" r="24.84" gradientTransform="translate(746.27 106.48) rotate(-164.93) scale(.93 -1)" xlink:href="#Ikke-navngivet_forløb_232"/>
    <radialGradient id="Ikke-navngivet_forløb_150" data-name="Ikke-navngivet forløb 150" cx="183.48" cy="408.9" fx="154.58" fy="456.55" r="84.03" gradientUnits="userSpaceOnUse">
      <stop offset=".33" stop-color="#57c2de"/>
      <stop offset=".46" stop-color="#53bad9"/>
      <stop offset=".75" stop-color="#101e77"/>
    </radialGradient>
    <radialGradient id="Ikke-navngivet_forløb_40" data-name="Ikke-navngivet forløb 40" cx="511.44" cy="452.41" fx="472.8" fy="516.12" r="112.37" gradientTransform="translate(749.76) rotate(-180) scale(.78 -1)" gradientUnits="userSpaceOnUse">
      <stop offset=".15" stop-color="#57c2de"/>
      <stop offset=".46" stop-color="#53bad9"/>
      <stop offset=".75" stop-color="#101e77"/>
    </radialGradient>
    <radialGradient id="Ikke-navngivet_forløb_295" data-name="Ikke-navngivet forløb 295" cx="266.8" cy="462.99" fx="266.8" fy="512.02" r="100.36" gradientUnits="userSpaceOnUse">
      <stop offset="0" stop-color="#fff"/>
      <stop offset=".05" stop-color="#f5f9fc"/>
      <stop offset=".12" stop-color="#dcebf7"/>
      <stop offset=".17" stop-color="#c7dff3"/>
      <stop offset=".22" stop-color="#b8d9ec"/>
      <stop offset=".33" stop-color="#91cbdc"/>
      <stop offset=".41" stop-color="#6bbdcc"/>
      <stop offset=".6" stop-color="#57c2de"/>
      <stop offset=".63" stop-color="#41b3db"/>
      <stop offset=".68" stop-color="#27a2d8"/>
      <stop offset=".71" stop-color="#1e9cd7"/>
      <stop offset=".9" stop-color="#303935"/>
    </radialGradient>
  </defs>
  <g id="ansigt">
    <g id="ansigt-2" data-name="ansigt">
      <path class="cls-18" d="M228.44,292.65c.84-.03,7.62-2.49,8.46-2.5,2.05-.03,4.36-1.18,11.57-1.71,7.11-.52,7.89-.84,11.35-.56,4.16.34,22.86.5,39.28,4.02,30.61,6.57,51.07,23.06,57.95,30.91.92,1.05,3.27,2.47,4.37,3.32,5.62,4.36,20.72,18.94,21.78,33.21,1.21,16.39-5.85,29.1-7.3,31.09-5.75,7.89-12.76,11.27-23.26,16.34-11.33,5.47-21.49,8.03-28.45,9.34-4.75,1.56-11.92,3.43-20.8,3.9-7.14.38-13.9.58-23.83-.79-11.82-1.63-14.41-3.22-21.63-4.36-8.06-1.28-12.92-4.38-19.5-7.62,0,0-7.16-3.83-11.46-6.31-.51-.29-.78-.5-1.2-.72-.76-.4-1.38-.55-1.45-.57-.62-.19-22.4-7.84-34.12-28.8-3.25-5.82-2.41-2.64-6.89-13.8-3.68-9.17-2.76-14.73-1.91-19.68,1.95-11.32,6.61-19.27,11.3-23.52,5.93-5.37,4.83-5.23,9.05-7.89,5.83-3.68,4.98-3.68,7.14-5.08.66-.43,2.1-.94,2.78-1.32l3.6-1.5c2-1.08,4.88-2.41,6.28-2.89"/>
    </g>
    <g id="mund">
      <path class="cls-1" d="M204.95,349.75l22.17,12.5,28.47,16.05s43.4,15.99,66.24,11.8,18.21-2.36,31.15-6.51"/>
      <polygon class="cls-12" points="231.25 387.75 233.39 365.9 254.31 377.79 231.25 387.75"/>
      <polygon class="cls-13" points="267.71 382.58 271.91 402.71 290.55 388.16 267.71 382.58"/>
      <polygon class="cls-12" points="314.43 391.14 321.15 403.43 334.39 387.92 314.43 391.14"/>
    </g>
    <g id="ore">
      <path id="ore_v" class="cls-20" d="M250.52,288.8l-12.33-20.89-7.12-6.33-11.39-4.9-35.8-7.12-20.14-13.47s-53.28,26.14-61.02,34.54l68.88,13.1,13.25-19.38s16.27,1.03,22.69,1.61c5.82.53,20.69,5.5,26.27,8.33l7.91,15.98"/>
      <path id="ore_h" class="cls-22" d="M354.41,320.54l18.63-19.21,6.5-6.33,10.4-4.9,32.69-7.12,18.38-13.47s48.64,26.14,55.71,34.54l-62.88,13.1-12.09-19.38s-14.86,1.03-20.72,1.61c-5.31.53-18.89,5.5-23.98,8.33l-18.09,17.63"/>
      <g id="ore_stjerne">
        <path class="cls-25" d="M154.66,246.87l3.6,6.63c1.39,2.56,4.31,3.87,7.14,3.21l6.36-1.48-6.81,3.83c-2.35,1.32-3.74,3.87-3.56,6.56l.29,4.61-1.73-4.08c-1.19-2.79-4.03-4.51-7.06-4.26l-5.68.47,5.4-2.49c2.47-1.14,3.85-3.82,3.33-6.5l-1.27-6.5Z"/>
        <path class="cls-25" d="M441.88,280.73l3.6,6.63c1.39,2.56,4.31,3.87,7.14,3.21l6.36-1.48-6.81,3.83c-2.35,1.32-3.74,3.87-3.56,6.56l.29,4.61-1.73-4.08c-1.19-2.79-4.03-4.51-7.06-4.26l-5.68.47,5.4-2.49c2.47-1.14,3.85-3.82,3.33-6.5l-1.27-6.5Z"/>
      </g>
    </g>
    <g id="Har">
      <g>
        <path class="cls-14" d="M189.36,332.63l-7.22-1.83,7.22,1.83Z"/>
        <path class="cls-26" d="M189.36,332.63c-2.43-.51-4.84-1.12-7.25-1.71l.06-.24c2.4.63,4.81,1.24,7.19,1.95,0,0-2.38-.71,0,0ZM189.36,332.63c-2.43-.51-4.84-1.12-7.25-1.71l.06-.24c2.4.63,4.81,1.24,7.19,1.95,0,0-2.38-.71,0,0Z"/>
      </g>
      <g>
        <path class="cls-14" d="M182.38,339.35l-12.67,1.12,12.67-1.12Z"/>
        <path class="cls-26" d="M182.38,339.35c-4.21.48-8.44.83-12.66,1.25l-.02-.25c4.23-.33,8.45-.73,12.68-1,0,0-4.23.27,0,0ZM182.38,339.35c-4.21.48-8.44.83-12.66,1.25l-.02-.25c4.23-.33,8.45-.73,12.68-1,0,0-4.23.27,0,0Z"/>
      </g>
      <g>
        <path class="cls-14" d="M188.82,347.12l-24.75,6.36,24.75-6.36Z"/>
        <path class="cls-26" d="M188.82,347.12c-8.22,2.23-16.48,4.32-24.72,6.48l-.06-.24c8.26-2.08,16.51-4.23,24.78-6.24,0,0-8.28,2.02,0,0ZM188.82,347.12c-8.22,2.23-16.48,4.32-24.72,6.48l-.06-.24c8.26-2.08,16.51-4.23,24.78-6.24,0,0-8.28,2.02,0,0Z"/>
      </g>
      <g>
        <path class="cls-14" d="M182.27,342.52l-15.04,18.63,15.04-18.63Z"/>
        <path class="cls-26" d="M182.27,342.52c-4.93,6.28-9.96,12.47-14.94,18.71l-.19-.16c5.05-6.18,10.04-12.41,15.14-18.55,0,0-5.1,6.14,0,0ZM182.27,342.52c-4.93,6.28-9.96,12.47-14.94,18.71l-.19-.16c5.05-6.18,10.04-12.41,15.14-18.55,0,0-5.1,6.14,0,0Z"/>
      </g>
      <g>
        <path class="cls-14" d="M182.36,335.18l-9.88,9.7,9.88-9.7Z"/>
        <path class="cls-26" d="M182.36,335.18c-3.03,3.4-6.39,6.74-9.62,9.96,0,0-.52-.53-.52-.53,3.28-3.17,6.69-6.46,10.15-9.43h0ZM182.36,335.18c-3.03,3.4-6.39,6.74-9.62,9.96,0,0-.52-.53-.52-.53,3.28-3.17,6.69-6.46,10.15-9.43h0Z"/>
      </g>
      <g>
        <path class="cls-14" d="M186.76,327.96l-8.8,6.17,8.8-6.17Z"/>
        <path class="cls-26" d="M186.76,327.96c-2.87,2.14-5.82,4.18-8.73,6.27l-.14-.2c2.96-2.02,5.88-4.1,8.88-6.06,0,0-3,1.97,0,0ZM186.76,327.96c-2.87,2.14-5.82,4.18-8.73,6.27l-.14-.2c2.96-2.02,5.88-4.1,8.88-6.06,0,0-3,1.97,0,0Z"/>
      </g>
      <g>
        <path class="cls-14" d="M195.78,315.47l-8.27-5.7,8.27,5.7Z"/>
        <path class="cls-26" d="M195.78,315.47c-2.82-1.81-5.56-3.73-8.34-5.6l.14-.21c2.73,1.94,5.51,3.81,8.2,5.8,0,0-2.7-1.99,0,0ZM195.78,315.47c-2.82-1.81-5.56-3.73-8.34-5.6l.14-.21c2.73,1.94,5.51,3.81,8.2,5.8,0,0-2.7-1.99,0,0Z"/>
      </g>
      <g>
        <path class="cls-14" d="M191.6,315.45l-3.41-9,3.41,9Z"/>
        <path class="cls-26" d="M191.6,315.45c-1.41-2.89-2.61-5.87-3.76-8.87,0,0,.7-.27.7-.27,1.13,3.01,2.2,6.04,3.06,9.14h0ZM191.6,315.45c-1.41-2.89-2.61-5.87-3.76-8.87,0,0,.7-.27.7-.27,1.12,3.01,2.19,6.04,3.06,9.14h0Z"/>
      </g>
      <g>
        <path class="cls-14" d="M196.39,321.18l-24.24-8.12,24.24,8.12Z"/>
        <path class="cls-26" d="M196.39,321.18c-8.11-2.6-16.18-5.34-24.27-8l.08-.24c8.06,2.75,16.15,5.43,24.2,8.23,0,0-8.04-2.81,0,0ZM196.39,321.18c-8.11-2.6-16.18-5.33-24.27-8l.08-.24c8.06,2.75,16.15,5.43,24.2,8.23,0,0-8.04-2.81,0,0Z"/>
      </g>
      <g>
        <path class="cls-14" d="M196.63,316.29l-22.75,7.46,22.75-7.46Z"/>
        <path class="cls-26" d="M196.63,316.29c-7.55,2.59-15.14,5.05-22.71,7.58l-.08-.24c7.6-2.44,15.17-4.96,22.79-7.34,0,0-7.62,2.38,0,0ZM196.63,316.29c-7.55,2.59-15.14,5.05-22.71,7.58l-.08-.24c7.6-2.44,15.17-4.96,22.79-7.34,0,0-7.62,2.38,0,0Z"/>
      </g>
      <g>
        <path class="cls-14" d="M185.27,355.74l-9.35,2.43,9.35-2.43Z"/>
        <path class="cls-26" d="M185.27,355.74c-3.09.91-6.21,1.7-9.31,2.55l-.06-.24c3.13-.77,6.23-1.6,9.38-2.31,0,0-3.14.71,0,0ZM185.27,355.74c-3.09.91-6.21,1.7-9.31,2.55l-.06-.24c3.13-.77,6.23-1.6,9.38-2.31,0,0-3.14.71,0,0Z"/>
      </g>
      <g>
        <path class="cls-14" d="M189.44,362.99l-10.64,6.97,10.64-6.97Z"/>
        <path class="cls-26" d="M189.44,362.99c-3.49,2.41-7.05,4.71-10.57,7.07l-.14-.21c3.57-2.29,7.1-4.63,10.71-6.87,0,0-3.61,2.23,0,0ZM189.44,362.99c-3.49,2.41-7.05,4.71-10.57,7.07l-.14-.21c3.57-2.29,7.1-4.63,10.71-6.87,0,0-3.61,2.23,0,0Z"/>
      </g>
      <g>
        <path class="cls-14" d="M194.68,365.14l-18.82,17.3,18.82-17.3Z"/>
        <path class="cls-26" d="M194.68,365.14c-6.2,5.84-12.49,11.59-18.73,17.39l-.17-.18c6.3-5.73,12.56-11.52,18.9-17.2,0,0-6.34,5.69,0,0ZM194.68,365.14c-6.2,5.84-12.49,11.59-18.73,17.39l-.17-.18c6.3-5.73,12.56-11.52,18.9-17.2,0,0-6.34,5.69,0,0Z"/>
      </g>
      <g>
        <path class="cls-14" d="M192.84,364.05l-4.46,23.52,4.46-23.52Z"/>
        <path class="cls-26" d="M192.84,364.05c-1.38,7.86-2.9,15.7-4.34,23.55l-.25-.05c1.53-7.83,2.99-15.68,4.58-23.5,0,0-1.59,7.82,0,0ZM192.84,364.05c-1.38,7.86-2.9,15.7-4.34,23.55l-.25-.05c1.53-7.83,2.99-15.68,4.58-23.5,0,0-1.59,7.82,0,0Z"/>
      </g>
      <g>
        <path class="cls-14" d="M186.7,358.57l-4.14,13.21,4.14-13.21Z"/>
        <path class="cls-26" d="M186.7,358.57c-1.28,4.44-2.68,8.83-4.02,13.25l-.24-.07c1.42-4.39,2.77-8.8,4.25-13.18,0,0-1.48,4.37,0,0ZM186.7,358.57c-1.28,4.44-2.68,8.83-4.02,13.25l-.24-.07c1.42-4.39,2.77-8.8,4.25-13.18,0,0-1.48,4.37,0,0Z"/>
      </g>
      <g>
        <path class="cls-14" d="M183.03,349.81l-1.83,11.15,1.83-11.15Z"/>
        <path class="cls-26" d="M183.03,349.81c-.32,3.76-.87,7.49-1.46,11.21,0,0-.74-.12-.74-.12.62-3.72,1.3-7.42,2.2-11.09h0ZM183.03,349.81c-.32,3.76-.86,7.49-1.46,11.21,0,0-.74-.12-.74-.12.63-3.72,1.31-7.42,2.2-11.09h0Z"/>
      </g>
      <g>
        <path class="cls-14" d="M204.48,372.27l-8.31,9.63,8.31-9.63Z"/>
        <path class="cls-26" d="M204.48,372.27c-2.5,3.35-5.32,6.68-8.03,9.87,0,0-.57-.49-.57-.49,2.77-3.15,5.64-6.42,8.59-9.38h0ZM204.48,372.27c-2.5,3.36-5.32,6.68-8.03,9.87,0,0-.57-.49-.57-.49,2.77-3.15,5.64-6.42,8.59-9.38h0Z"/>
      </g>
      <g>
        <path class="cls-14" d="M215.88,377.52l-20.61,15.12,20.61-15.12Z"/>
        <path class="cls-26" d="M215.88,377.52c-6.81,5.13-13.69,10.14-20.53,15.22l-.15-.2c6.89-5,13.75-10.07,20.68-15.02,0,0-6.93,4.95,0,0ZM215.88,377.52c-6.8,5.13-13.69,10.14-20.53,15.22l-.15-.2c6.9-5,13.75-10.07,20.68-15.02,0,0-6.93,4.95,0,0Z"/>
      </g>
      <g>
        <path class="cls-14" d="M210.49,373.45l-7.6,22.7,7.6-22.7Z"/>
        <path class="cls-26" d="M210.49,373.45c-2.43,7.6-4.99,15.16-7.48,22.74l-.24-.08c2.58-7.55,5.08-15.13,7.72-22.66,0,0-2.64,7.53,0,0ZM210.49,373.45c-2.43,7.6-4.99,15.16-7.48,22.74l-.24-.08c2.58-7.55,5.09-15.13,7.72-22.66,0,0-2.64,7.53,0,0Z"/>
      </g>
      <g>
        <path class="cls-14" d="M198.57,372.47l-.34,13.84.34-13.84Z"/>
        <path class="cls-26" d="M198.57,372.47c.19,4.55.11,9.29.03,13.85,0,0-.75-.02-.75-.02.15-4.56.3-9.3.71-13.83h0ZM198.57,372.47c.19,4.55.11,9.29.03,13.85,0,0-.75-.02-.75-.02.15-4.56.3-9.3.71-13.83h0Z"/>
      </g>
      <g>
        <path class="cls-14" d="M194.65,372.24l-2.02,10.56,2.02-10.56Z"/>
        <path class="cls-26" d="M194.65,372.24c-.39,3.57-.99,7.1-1.66,10.63,0,0-.74-.14-.74-.14.69-3.52,1.43-7.03,2.39-10.49h0ZM194.65,372.24c-.39,3.57-.99,7.1-1.66,10.63,0,0-.74-.14-.74-.14.69-3.52,1.43-7.03,2.39-10.49h0Z"/>
      </g>
      <path class="cls-11" d="M376.95,363.57l7.21,1.87-7.21-1.87Z"/>
      <path class="cls-11" d="M376.99,356.92l12.68-1.05-12.68,1.05Z"/>
      <path class="cls-11" d="M374.57,347.97l24.79-6.23-24.79,6.23Z"/>
      <path class="cls-11" d="M378.36,359.74l9.94-9.64-9.94,9.64Z"/>
      <path class="cls-11" d="M376.63,367.25l8.84-6.12-8.84,6.12Z"/>
      <g>
        <path class="cls-14" d="M215.33,303.75l-5.77-11.34,5.77,11.34Z"/>
        <path class="cls-26" d="M215.33,303.75c-2.16-3.58-4.17-7.45-6.1-11.17,0,0,.67-.34.67-.34,1.87,3.75,3.81,7.65,5.44,11.5h0ZM215.33,303.75c-2.16-3.58-4.17-7.45-6.1-11.17,0,0,.67-.34.67-.34,1.87,3.75,3.81,7.65,5.44,11.5h0Z"/>
      </g>
      <g>
        <path class="cls-14" d="M210.07,305.32l-10.87-14.8,10.87,14.8Z"/>
        <path class="cls-26" d="M210.07,305.32c-3.81-4.68-7.56-9.73-11.17-14.58,0,0,.6-.44.6-.44,3.55,4.9,7.24,9.98,10.57,15.03h0ZM210.07,305.32c-3.81-4.68-7.56-9.73-11.17-14.58,0,0,.6-.44.6-.44,3.55,4.9,7.24,9.99,10.57,15.03h0Z"/>
      </g>
      <g>
        <path class="cls-14" d="M215.92,303.74l-22.9-7,22.9,7Z"/>
        <path class="cls-26" d="M215.92,303.74c-7.66-2.23-15.29-4.59-22.93-6.88l.07-.24c7.62,2.38,15.26,4.68,22.86,7.12,0,0-7.6-2.44,0,0ZM215.92,303.74c-7.66-2.23-15.29-4.59-22.93-6.88l.07-.24c7.62,2.38,15.26,4.68,22.86,7.12,0,0-7.6-2.44,0,0Z"/>
      </g>
      <g>
        <path class="cls-14" d="M223.61,300.61l-12.69-5.55,12.69,5.55Z"/>
        <path class="cls-26" d="M223.61,300.61c-4.28-1.55-8.64-3.41-12.84-5.21,0,0,.3-.69.3-.69,4.17,1.86,8.49,3.79,12.53,5.89h0ZM223.61,300.61c-4.28-1.54-8.64-3.41-12.84-5.21,0,0,.3-.69.3-.69,4.17,1.86,8.49,3.8,12.53,5.89h0Z"/>
      </g>
      <g>
        <path class="cls-14" d="M223.54,297.61l-9.01-5.87,9.01,5.87Z"/>
        <path class="cls-26" d="M223.54,297.61c-3.16-1.71-6.2-3.61-9.21-5.55,0,0,.41-.63.41-.63,3,1.97,5.96,3.98,8.8,6.18h0ZM223.54,297.61c-3.16-1.71-6.2-3.61-9.21-5.55,0,0,.41-.63.41-.63,3,1.97,5.96,3.98,8.8,6.18h0Z"/>
      </g>
      <g>
        <path class="cls-14" d="M203.7,308.92l-9.5-8.45,9.5,8.45Z"/>
        <path class="cls-26" d="M203.7,308.92c-3.24-2.74-6.39-5.58-9.59-8.36l.17-.19c3.14,2.85,6.32,5.65,9.42,8.55,0,0-3.1-2.9,0,0ZM203.7,308.92c-3.24-2.74-6.39-5.58-9.59-8.36l.17-.19c3.14,2.85,6.32,5.65,9.42,8.55,0,0-3.1-2.9,0,0Z"/>
      </g>
      <g>
        <path class="cls-14" d="M200.7,312.17l-.51-19.32.51,19.32Z"/>
        <path class="cls-26" d="M200.7,312.17c-.47-6.33-.68-12.95-.89-19.31,0,0,.75-.02.75-.02.13,6.37.27,12.98.14,19.33h0ZM200.7,312.17c-.47-6.33-.68-12.95-.89-19.31,0,0,.75-.02.75-.02.13,6.37.27,12.98.14,19.33h0Z"/>
      </g>
      <g>
        <path class="cls-14" d="M201.66,313.94l-11.23-17.53,11.23,17.53Z"/>
        <path class="cls-26" d="M201.66,313.94c-3.83-5.79-7.56-11.65-11.34-17.47l.21-.13c3.71,5.87,7.47,11.7,11.13,17.6,0,0-3.65-5.9,0,0ZM201.66,313.94c-3.83-5.79-7.56-11.65-11.34-17.47l.21-.13c3.71,5.87,7.47,11.7,11.13,17.6,0,0-3.65-5.9,0,0Z"/>
      </g>
      <g>
        <path class="cls-14" d="M203.34,307.81l-8.93-10.54,8.93,10.54Z"/>
        <path class="cls-26" d="M203.34,307.81c-3.06-3.44-6.01-6.97-9.02-10.46l.19-.16c2.94,3.54,5.94,7.04,8.83,10.62,0,0-2.89-3.58,0,0ZM203.34,307.81c-3.06-3.44-6.01-6.97-9.02-10.46l.19-.16c2.94,3.54,5.94,7.04,8.83,10.62,0,0-2.89-3.58,0,0Z"/>
      </g>
      <g>
        <path class="cls-14" d="M207.7,311.57l-10.52-2.18,10.52,2.18Z"/>
        <path class="cls-26" d="M207.7,311.57c-3.53-.62-7.03-1.38-10.55-2.06l.05-.24c3.5.77,7.01,1.47,10.5,2.3,0,0-3.49-.83,0,0ZM207.7,311.57c-3.53-.62-7.03-1.38-10.55-2.06l.05-.24c3.5.77,7.01,1.47,10.5,2.3,0,0-3.49-.83,0,0Z"/>
      </g>
      <g>
        <path class="cls-14" d="M289.2,292.86l3.48-6.59-3.48,6.59Z"/>
        <path class="cls-26" d="M289.17,292.85l3.33-6.67.35.19c-1.07,2.2-2.24,4.59-3.68,6.48h0ZM289.17,292.85c.94-2.31,2.05-4.53,3.32-6.67,0,0,.35.19.35.19-.04-.01-3.61,6.63-3.68,6.48h0Z"/>
      </g>
      <g>
        <path class="cls-14" d="M272.74,296.16l-.37-25.56.37,25.56Z"/>
        <path class="cls-26" d="M272.71,296.16l-.54-25.55h.4c.19,8.48.4,17.16.14,25.55h0ZM272.71,296.16c-.35-8.51-.53-17.03-.54-25.55,0,0,.4,0,.4,0-.05.01.28,25.65.14,25.56h0Z"/>
      </g>
      <g>
        <path class="cls-14" d="M275.91,295.59l-14.57-19,14.57,19Z"/>
        <path class="cls-26" d="M275.89,295.6l-14.71-18.89s.32-.24.32-.24c4.89,6.27,9.91,12.68,14.39,19.13h0ZM275.89,295.6c-5.04-6.19-9.94-12.49-14.71-18.89,0,0,.32-.24.32-.24-.03.04,14.56,19.12,14.39,19.13h0Z"/>
      </g>
      <g>
        <path class="cls-14" d="M286.06,296.82l-7.1-11.89,7.1,11.89Z"/>
        <path class="cls-26" d="M286.04,296.83l-7.25-11.8.34-.21c2.42,3.89,4.94,7.96,6.91,12h0ZM286.04,296.83c-2.58-3.84-4.99-7.77-7.25-11.8,0,0,.34-.21.34-.21-.03.03,7.07,12.01,6.91,12h0Z"/>
      </g>
      <g>
        <path class="cls-14" d="M192.17,368.27l-7.23,1.79,7.23-1.79Z"/>
        <path class="cls-26" d="M192.18,368.28l-7.21,1.88-.05-.19c2.38-.63,4.87-1.29,7.26-1.68h0ZM192.18,368.28c-2.38.72-4.79,1.34-7.21,1.88l-.05-.19s7.29-1.76,7.26-1.68h0Z"/>
      </g>
      <g>
        <path class="cls-14" d="M237.97,290.33l3.59-12.2-3.59,12.2Z"/>
        <path class="cls-26" d="M237.96,290.32l3.51-12.23.19.06c-1.16,4.06-2.34,8.22-3.7,12.17h0ZM237.96,290.32c1.09-4.1,2.25-8.17,3.51-12.23,0,0,.19.06.19.06-.02,0-3.64,12.23-3.7,12.17h0Z"/>
      </g>
      <g>
        <path class="cls-14" d="M223.29,301.52l3.13-25.37-3.13,25.37Z"/>
        <path class="cls-26" d="M223.25,301.51l2.87-25.4.6.07c-.34,3.67-1.02,8.98-1.49,12.69-.59,3.67-1.14,9.19-1.97,12.63h0ZM223.25,301.51c.66-8.22,1.67-17.24,2.87-25.4,0,0,.6.07.6.07-.07.01-3.28,25.48-3.46,25.32h0Z"/>
      </g>
      <g>
        <path class="cls-14" d="M230.77,299.82l-11.84-20.81,11.84,20.81Z"/>
        <path class="cls-26" d="M230.74,299.84l-12.07-20.68s.52-.3.52-.3c1.81,2.94,4.26,7.31,5.98,10.37,1.6,3.09,4.29,7.56,5.56,10.61h0ZM230.74,299.84c-2.98-4.66-6.44-10.6-9.19-15.43-.98-1.74-1.94-3.49-2.88-5.25,0,0,.52-.3.52-.3-.05.05,11.79,20.99,11.54,20.98h0Z"/>
      </g>
      <g>
        <path class="cls-14" d="M238.9,290l-5.41-12.75,5.41,12.75Z"/>
        <path class="cls-26" d="M238.87,290.02c-1.9-4.21-3.79-8.42-5.65-12.64l.55-.23c1.89,4.15,3.9,8.59,5.1,12.88h0ZM238.87,290.02c-2.14-4.1-4.02-8.32-5.65-12.64,0,0,.55-.23.55-.23,1.65,4.26,3.67,8.68,5.1,12.88h0Z"/>
      </g>
      <g>
        <path class="cls-14" d="M303.76,295.08l-2.52-10.45,2.52,10.45Z"/>
        <path class="cls-26" d="M303.72,295.09c-.94-3.46-1.87-6.92-2.77-10.39l.58-.14c.95,3.41,1.96,7.11,2.19,10.53h0ZM303.72,295.09c-1.19-3.39-2.12-6.86-2.77-10.39,0,0,.58-.14.58-.14.69,3.47,1.71,7.16,2.19,10.53h0Z"/>
      </g>
      <g>
        <path class="cls-14" d="M219.67,391.12l-5.53,4.99,5.53-4.99Z"/>
        <path class="cls-26" d="M219.69,391.14l-5.42,5.12-.27-.3c1.77-1.7,3.69-3.53,5.68-4.82h0ZM219.69,391.14c-1.68,1.84-3.48,3.55-5.42,5.12,0,0-.27-.3-.27-.3.04.02,5.67-4.98,5.68-4.82h0Z"/>
      </g>
      <g>
        <path class="cls-14" d="M195.6,376.28l-12.19,3.63,12.19-3.63Z"/>
        <path class="cls-26" d="M195.6,376.3l-12.14,3.8-.11-.38c4.01-1.28,8.21-2.61,12.25-3.42h0ZM195.6,376.3c-3.99,1.44-8.04,2.71-12.14,3.8,0,0-.11-.38-.11-.38.02.04,12.3-3.58,12.25-3.42h0Z"/>
      </g>
      <g>
        <path class="cls-14" d="M200.31,379.68l-22.98,11.19,22.98-11.19Z"/>
        <path class="cls-26" d="M200.32,379.7l-22.9,11.35-.18-.36c7.6-3.77,15.37-7.65,23.08-10.99h0ZM200.32,379.7c-7.56,3.94-15.19,7.72-22.9,11.35,0,0-.18-.36-.18-.36.03.04,23.1-11.15,23.08-10.99h0Z"/>
      </g>
      <g>
        <path class="cls-14" d="M226.45,295.43l-16.08-8.94,16.08,8.94Z"/>
        <path class="cls-26" d="M226.43,295.46l-16.16-8.78.19-.35c5.37,2.89,10.91,5.88,15.97,9.13h0ZM226.43,295.46c-5.48-2.76-10.87-5.69-16.16-8.78,0,0,.19-.35.19-.35,0,.05,16.12,9.05,15.97,9.13h0Z"/>
      </g>
      <g>
        <path class="cls-14" d="M194.74,372.2l-7.74,11.48,7.74-11.48Z"/>
        <path class="cls-26" d="M194.76,372.21l-7.6,11.58-.33-.22c2.5-3.84,5.1-7.85,7.93-11.35h0ZM194.76,372.21c-2.38,3.96-4.91,7.82-7.6,11.58,0,0-.33-.22-.33-.22.04.02,7.87-11.51,7.93-11.35h0Z"/>
      </g>
      <g>
        <path class="cls-14" d="M216.78,388.83l.24,10.75-.24-10.75Z"/>
        <path class="cls-26" d="M216.81,388.83l.42,10.74h-.4c-.16-3.54-.32-7.29-.02-10.74h0ZM216.81,388.83c.32,3.57.46,7.16.42,10.74,0,0-.4,0-.4,0,.04-.01-.15-10.84-.02-10.75h0Z"/>
      </g>
      <g>
        <path class="cls-14" d="M187.85,358.77l-10.64,6.97,10.64-6.97Z"/>
        <path class="cls-26" d="M187.86,358.78l-10.59,7.04-.11-.17c3.51-2.34,7.11-4.75,10.7-6.88h0ZM187.86,358.78c-3.48,2.42-7.01,4.77-10.59,7.04,0,0-.11-.17-.11-.17.02.02,10.7-6.96,10.7-6.88h0Z"/>
      </g>
      <g>
        <path class="cls-14" d="M197.78,327.04l-25.04-5.11,25.04,5.11Z"/>
        <path class="cls-26" d="M197.77,327.06l-25.06-5.03s.04-.2.04-.2c8.34,1.67,16.77,3.35,25.02,5.22h0ZM197.77,327.06c-8.37-1.59-16.72-3.27-25.06-5.03,0,0,.04-.2.04-.2,0,.02,25.08,5.16,25.02,5.22h0Z"/>
      </g>
      <g>
        <path class="cls-14" d="M255.76,296.59l-3.34-23.71,3.34,23.71Z"/>
        <path class="cls-26" d="M255.74,296.59l-3.52-23.68s.4-.06.4-.06c1.17,7.86,2.39,15.91,3.12,23.74h0ZM255.74,296.59c-1.34-7.87-2.51-15.76-3.52-23.68,0,0,.4-.06.4-.06-.05.02,3.27,23.81,3.12,23.74h0Z"/>
      </g>
      <g>
        <path class="cls-14" d="M189.23,319.83l-2.37-12.41,2.37,12.41Z"/>
        <path class="cls-26" d="M189.22,319.84l-2.46-12.39.2-.04c.82,4.11,1.67,8.32,2.26,12.43h0ZM189.22,319.84c-.9-4.11-1.72-8.24-2.46-12.39,0,0,.2-.04.2-.04-.02.01,2.34,12.46,2.26,12.43h0Z"/>
      </g>
      <g>
        <path class="cls-14" d="M204.22,380.22l-9.43,5.17,9.43-5.17Z"/>
        <path class="cls-26" d="M204.24,380.25c-3.09,1.82-6.19,3.62-9.3,5.4l-.29-.53c3.04-1.8,6.35-3.75,9.59-4.87h0ZM204.24,380.25c-2.96,2.04-6.06,3.84-9.3,5.4,0,0-.29-.53-.29-.53,3.16-1.57,6.46-3.52,9.59-4.87h0Z"/>
      </g>
      <g>
        <path class="cls-14" d="M185.67,348.35l-10.64,6.97,10.64-6.97Z"/>
        <path class="cls-26" d="M185.69,348.38c-3.49,2.41-6.99,4.81-10.49,7.19l-.33-.5c3.44-2.4,7.13-4.96,10.82-6.69h0ZM185.69,348.38c-3.34,2.63-6.84,5.02-10.49,7.19,0,0-.33-.5-.33-.5,3.58-2.18,7.26-4.74,10.82-6.69h0Z"/>
      </g>
      <g>
        <path class="cls-14" d="M186.6,343.61l-25.43,2.53,25.43-2.53Z"/>
        <path class="cls-26" d="M186.6,343.62l-25.42,2.62s-.02-.2-.02-.2c8.46-.87,17.01-1.77,25.44-2.42h0ZM186.6,343.62c-8.47.96-16.94,1.83-25.42,2.62,0,0-.02-.2-.02-.2,0,.02,25.48-2.5,25.44-2.42h0Z"/>
      </g>
      <g>
        <path class="cls-14" d="M239.77,294.53l3.23-23.72-3.23,23.72Z"/>
        <path class="cls-26" d="M239.74,294.53l3.05-23.75.4.05c-1.01,7.88-2.02,15.97-3.45,23.69h0ZM239.74,294.53c.85-7.94,1.87-15.85,3.05-23.75,0,0,.4.05.4.05-.05,0-3.32,23.8-3.45,23.69h0Z"/>
      </g>
      <g>
        <path class="cls-14" d="M184.34,334.71l-13.84-.4,13.84.4Z"/>
        <path class="cls-26" d="M184.34,334.72l-13.84-.31s0-.2,0-.2c4.6.1,9.3.19,13.84.51h0ZM184.34,334.72c-4.62-.02-9.23-.12-13.84-.31,0,0,0-.2,0-.2,0,.02,13.89.44,13.84.51h0Z"/>
      </g>
      <g>
        <path class="cls-14" d="M210.22,386.31l-4.98,5.54,4.98-5.54Z"/>
        <path class="cls-26" d="M210.22,386.31c-1.58,1.92-3.24,3.77-4.89,5.62l-.19-.17c1.67-1.84,3.34-3.68,5.08-5.46,0,0-1.74,1.78,0,0ZM210.22,386.31c-1.58,1.92-3.24,3.77-4.89,5.62l-.19-.17c1.67-1.84,3.34-3.68,5.08-5.46,0,0-1.74,1.78,0,0Z"/>
      </g>
      <g>
        <path class="cls-14" d="M217.55,386.77l-4.9,11.74,4.9-11.74Z"/>
        <path class="cls-26" d="M217.55,386.77c-1.54,3.95-3.19,7.85-4.79,11.78l-.23-.1c1.67-3.9,3.28-7.82,5.02-11.69,0,0-1.73,3.87,0,0ZM217.55,386.77c-1.53,3.95-3.19,7.86-4.79,11.78l-.23-.1c1.68-3.89,3.28-7.82,5.02-11.69,0,0-1.73,3.87,0,0Z"/>
      </g>
      <path class="cls-6" d="M201.64,308.66l-12.9-13.66,12.9,13.66Z"/>
      <path class="cls-6" d="M201.55,381.32l-19.64,13.7,19.64-13.7Z"/>
      <g>
        <path class="cls-14" d="M213.11,386.77l3.98,13.26-3.98-13.26Z"/>
        <path class="cls-26" d="M213.11,386.77c1.43,4.39,2.73,8.82,4.1,13.22l-.24.07c-1.29-4.43-2.64-8.85-3.86-13.3,0,0,1.22,4.45,0,0ZM213.11,386.77c1.43,4.39,2.73,8.82,4.1,13.22l-.24.07c-1.29-4.43-2.64-8.85-3.86-13.3,0,0,1.23,4.45,0,0Z"/>
      </g>
      <g>
        <path class="cls-14" d="M212.65,385.53l-2.43,10.47,2.43-10.47Z"/>
        <path class="cls-26" d="M212.65,385.53c-.71,3.51-1.54,7-2.31,10.5l-.24-.06c.85-3.48,1.64-6.98,2.55-10.44,0,0-.92,3.47,0,0ZM212.65,385.53c-.71,3.51-1.54,7-2.31,10.5l-.24-.06c.85-3.48,1.64-6.98,2.55-10.44,0,0-.91,3.47,0,0Z"/>
      </g>
      <g>
        <path class="cls-14" d="M258.94,293.31l3.13-25.37-3.13,25.37Z"/>
        <path class="cls-26" d="M258.91,293.31l2.96-25.39.4.05c-.98,8.43-1.96,17.06-3.35,25.34h0ZM258.91,293.31c.82-8.48,1.8-16.94,2.96-25.39,0,0,.4.05.4.05-.05,0-3.22,25.45-3.35,25.34h0Z"/>
      </g>
      <g>
        <path class="cls-14" d="M238.35,288.86l1.09-23.92-1.09,23.92Z"/>
        <path class="cls-26" d="M238.34,288.86l1.01-23.92s.2,0,.2,0c-.33,7.96-.66,16.01-1.21,23.91h0ZM238.34,288.86c.25-7.98.58-15.95,1.01-23.92,0,0,.2,0,.2,0-.02,0-1.14,23.96-1.21,23.91h0Z"/>
      </g>
      <g>
        <path class="cls-14" d="M262.14,293.08l-5.41-12.75,5.41,12.75Z"/>
        <path class="cls-26" d="M262.11,293.09c-1.9-4.21-3.79-8.42-5.65-12.64l.55-.23c1.89,4.15,3.9,8.59,5.1,12.88h0ZM262.11,293.09c-2.14-4.1-4.02-8.32-5.65-12.64,0,0,.55-.23.55-.23,1.65,4.26,3.67,8.68,5.1,12.88h0Z"/>
      </g>
      <g>
        <path class="cls-14" d="M236.89,296.14l-5.4-13.46,5.4,13.46Z"/>
        <path class="cls-26" d="M236.88,296.15l-5.49-13.43s.19-.07.19-.07c1.82,4.46,3.7,9.01,5.3,13.5h0ZM236.88,296.15c-1.91-4.44-3.74-8.92-5.49-13.43,0,0,.19-.07.19-.07-.02.01,5.38,13.52,5.3,13.5h0Z"/>
      </g>
      <g>
        <path class="cls-14" d="M278.75,296.24l3.13-25.37-3.13,25.37Z"/>
        <path class="cls-26" d="M278.74,296.23l3.04-25.38s.2.02.2.02c-1.01,8.44-2.02,16.98-3.24,25.35h0ZM278.74,296.23c.93-8.47,1.94-16.93,3.04-25.38,0,0,.2.02.2.02-.02,0-3.18,25.41-3.24,25.35h0Z"/>
      </g>
      <g>
        <path class="cls-14" d="M281.98,296.1l-11.84-20.81,11.84,20.81Z"/>
        <path class="cls-26" d="M281.95,296.11l-11.99-20.72.35-.2c3.98,6.88,8.09,13.91,11.64,20.92h0ZM281.95,296.11c-4.14-6.82-8.14-13.73-11.99-20.72,0,0,.35-.2.35-.2-.04.03,11.81,20.93,11.64,20.92h0Z"/>
      </g>
      <g>
        <path class="cls-14" d="M286.85,294.32l-5.41-12.75,5.41,12.75Z"/>
        <path class="cls-26" d="M286.84,294.33l-5.49-12.71.18-.08c1.83,4.22,3.7,8.53,5.31,12.79h0ZM286.84,294.33c-1.91-4.2-3.74-8.44-5.49-12.71,0,0,.18-.08.18-.08-.02.01,5.39,12.81,5.31,12.79h0Z"/>
      </g>
      <g>
        <path class="cls-14" d="M236.31,289.52l-5.64-4.8,5.64,4.8Z"/>
        <path class="cls-26" d="M236.3,289.53l-5.7-4.74.13-.15c1.89,1.56,3.86,3.18,5.57,4.89h0ZM236.3,289.53c-1.96-1.51-3.86-3.09-5.7-4.74l.13-.15s5.65,4.87,5.57,4.89h0Z"/>
      </g>
      <g>
        <path class="cls-14" d="M316.87,301.53l4.18-6.17-4.18,6.17Z"/>
        <path class="cls-26" d="M316.86,301.53l4.11-6.21.17.11c-1.35,2.06-2.76,4.21-4.28,6.1h0ZM316.86,301.53c1.29-2.12,2.66-4.19,4.11-6.21l.17.11s-4.25,6.18-4.28,6.1h0Z"/>
      </g>
      <g>
        <path class="cls-14" d="M310.61,299.26l3.26-12.29-3.26,12.29Z"/>
        <path class="cls-26" d="M310.57,299.26c.98-4.13,1.99-8.25,3.01-12.36,0,0,.58.15.58.15-.96,4.08-2,8.45-3.59,12.21h0ZM310.57,299.26c.73-4.19,1.74-8.31,3.01-12.36,0,0,.58.15.58.15-1.21,4.01-2.24,8.38-3.59,12.21h0Z"/>
      </g>
      <g>
        <path class="cls-14" d="M301.36,298.54l2.45-25.44-2.45,25.44Z"/>
        <path class="cls-26" d="M301.35,298.54l2.37-25.45.2.02c-.78,8.47-1.57,17.03-2.56,25.43h0ZM301.35,298.54c.7-8.49,1.49-16.97,2.37-25.45,0,0,.2.02.2.02-.02,0-2.5,25.48-2.56,25.43h0Z"/>
      </g>
      <g>
        <path class="cls-14" d="M304.58,298.32l-12.39-20.49,12.39,20.49Z"/>
        <path class="cls-26" d="M304.57,298.33l-12.46-20.44.17-.1c4.15,6.8,8.36,13.68,12.29,20.54h0ZM304.57,298.33c-4.23-6.77-8.38-13.58-12.46-20.44,0,0,.17-.1.17-.1-.02.02,12.38,20.55,12.29,20.54h0Z"/>
      </g>
      <g>
        <path class="cls-14" d="M350.02,324.06l9.82-8.08-9.82,8.08Z"/>
        <path class="cls-26" d="M350,324.03c3.2-2.78,6.42-5.54,9.65-8.29l.38.46c-3.16,2.76-6.55,5.7-10.03,7.82h0ZM350,324.03c3.04-2.97,6.26-5.74,9.65-8.29,0,0,.38.46.38.46-3.32,2.55-6.71,5.5-10.03,7.82h0Z"/>
      </g>
      <g>
        <path class="cls-14" d="M342.94,318.08l16.83-19.24-16.83,19.24Z"/>
        <path class="cls-26" d="M342.92,318.07l16.7-19.35.3.26c-5.54,6.43-11.19,13.02-17,19.09h0ZM342.92,318.07c5.44-6.56,11-13.01,16.7-19.35,0,0,.3.26.3.26-.04-.02-16.95,19.25-17,19.09h0Z"/>
      </g>
      <g>
        <path class="cls-14" d="M345.68,319.78l1.88-23.87-1.88,23.87Z"/>
        <path class="cls-26" d="M345.67,319.78l1.8-23.87s.2.02.2.02c-.59,7.94-1.19,15.98-2,23.86h0ZM345.67,319.78c.51-7.96,1.11-15.92,1.8-23.87,0,0,.2.02.2.02-.02,0-1.93,23.91-2,23.86h0Z"/>
      </g>
      <g>
        <path class="cls-14" d="M352.4,327.49l2.68-13.59-2.68,13.59Z"/>
        <path class="cls-26" d="M352.36,327.48c.79-4.55,1.59-9.09,2.42-13.64l.59.12c-.76,4.5-1.59,9.3-3.01,13.52h0ZM352.36,327.48c.53-4.59,1.34-9.14,2.42-13.64,0,0,.59.12.59.12-1.02,4.45-1.84,9.25-3.01,13.52h0Z"/>
      </g>
      <g>
        <path class="cls-14" d="M355.61,332.76l3.78-10.06-3.78,10.06Z"/>
        <path class="cls-26" d="M355.58,332.74c1.16-3.39,2.34-6.78,3.54-10.15l.56.21c-1.13,3.35-2.37,6.98-4.1,9.94h0ZM355.58,332.74c.92-3.48,2.09-6.86,3.54-10.15,0,0,.56.21.56.21-1.37,3.26-2.6,6.89-4.1,9.94h0Z"/>
      </g>
      <g>
        <path class="cls-14" d="M329.25,307.23l5.37-5.17-5.37,5.17Z"/>
        <path class="cls-26" d="M329.21,307.2c1.69-1.83,3.4-3.64,5.12-5.42l.56.58c-1.61,1.92-3.49,3.56-5.61,4.92,0,0-.07-.07-.07-.07h0ZM329.21,307.2c1.44-2.07,3.14-3.88,5.12-5.42,0,0,.56.58.56.58-1.33,1.08-4.62,4.33-5.68,4.85h0Z"/>
      </g>
      <g>
        <path class="cls-14" d="M323.59,303.73l5.73-11.36-5.73,11.36Z"/>
        <path class="cls-26" d="M323.58,303.72l5.65-11.4s.18.09.18.09c-1.87,3.78-3.78,7.66-5.83,11.31h0ZM323.58,303.72c1.81-3.84,3.69-7.64,5.65-11.4,0,0,.18.09.18.09-.02,0-5.78,11.38-5.83,11.31h0Z"/>
      </g>
      <g>
        <path class="cls-14" d="M314.69,301.11l7.64-24.39-7.64,24.39Z"/>
        <path class="cls-26" d="M314.68,301.11l7.56-24.42s.19.06.19.06c-2.51,8.12-5.04,16.34-7.75,24.36h0ZM314.68,301.11c2.44-8.16,4.96-16.3,7.56-24.42,0,0,.19.06.19.06-.02,0-7.69,24.42-7.75,24.36h0Z"/>
      </g>
      <g>
        <path class="cls-14" d="M317.89,301.56l-7.9-22.6,7.9,22.6Z"/>
        <path class="cls-26" d="M317.87,301.57l-7.99-22.57.19-.07c2.66,7.51,5.36,15.1,7.8,22.64h0ZM317.87,301.57c-2.74-7.49-5.4-15.02-7.99-22.57,0,0,.19-.07.19-.07-.02.01,7.88,22.66,7.8,22.64h0Z"/>
      </g>
      <g>
        <path class="cls-17" d="M367.44,338.63l6.96-2.65-6.96,2.65Z"/>
        <path class="cls-26" d="M367.44,338.62l6.93-2.73.07.19c-2.29.91-4.68,1.86-7,2.54h0ZM367.44,338.62c2.28-1,4.59-1.91,6.93-2.73l.07.19s-7.02,2.62-7,2.54h0Z"/>
      </g>
      <g>
        <path class="cls-17" d="M363.62,333.18l9.72-8.2-9.72,8.2Z"/>
        <path class="cls-26" d="M363.59,333.15c3.17-2.82,6.36-5.61,9.56-8.4l.39.46c-3.13,2.79-6.49,5.78-9.94,7.94h0ZM363.59,333.15c3-3.01,6.19-5.81,9.56-8.4,0,0,.39.46.39.46-3.29,2.59-6.64,5.58-9.94,7.94h0Z"/>
      </g>
      <g>
        <path class="cls-14" d="M356.46,327.29l16.6-19.43-16.6,19.43Z"/>
        <path class="cls-26" d="M356.45,327.28l16.54-19.49.15.13c-5.5,6.48-11.05,13.05-16.69,19.36h0ZM356.45,327.28c5.45-6.55,10.96-13.05,16.54-19.49,0,0,.15.13.15.13-.02-.01-16.66,19.44-16.69,19.36h0Z"/>
      </g>
      <g>
        <path class="cls-14" d="M359.22,328.95l1.6-23.89-1.6,23.89Z"/>
        <path class="cls-26" d="M359.2,328.95l1.43-23.9s.4.03.4.03c-.47,7.93-.93,16.07-1.83,23.87h0ZM359.2,328.95c.31-7.98.78-15.94,1.43-23.9,0,0,.4.03.4.03-.05,0-1.69,23.97-1.83,23.87h0Z"/>
      </g>
      <g>
        <path class="cls-17" d="M366.03,336.58l2.52-13.62-2.52,13.62Z"/>
        <path class="cls-26" d="M365.99,336.58c.73-4.56,1.49-9.11,2.26-13.66l.59.11c-.71,4.51-1.48,9.32-2.85,13.55h0ZM365.99,336.58c.48-4.6,1.23-9.16,2.26-13.66,0,0,.59.11.59.11-.97,4.46-1.73,9.27-2.85,13.55h0Z"/>
      </g>
      <g>
        <path class="cls-14" d="M346.91,317.7l4.97-5.56-4.97,5.56Z"/>
        <path class="cls-26" d="M346.87,317.66c1.55-1.95,3.12-3.88,4.7-5.79l.6.53c-1.47,2.03-3.21,3.81-5.23,5.32,0,0-.07-.07-.07-.07h0ZM346.87,317.66c1.28-2.17,2.85-4.1,4.7-5.79,0,0,.6.53.6.53-1.25,1.17-4.28,4.66-5.3,5.26h0Z"/>
      </g>
      <g>
        <path class="cls-14" d="M341,314.62l4.87-11.75-4.87,11.75Z"/>
        <path class="cls-26" d="M340.97,314.6c1.52-3.96,3.06-7.91,4.62-11.85,0,0,.55.23.55.23-1.49,3.92-3.1,8.11-5.18,11.62h0ZM340.97,314.6c1.28-4.05,2.82-8.01,4.62-11.85,0,0,.55.23.55.23-1.73,3.82-3.33,8.01-5.18,11.62h0Z"/>
      </g>
      <g>
        <path class="cls-14" d="M331.94,312.68l5.81-24.89-5.81,24.89Z"/>
        <path class="cls-26" d="M331.92,312.67l5.72-24.91s.19.05.19.05c-1.9,8.29-3.81,16.67-5.92,24.86h0ZM331.92,312.67c1.82-8.32,3.73-16.63,5.72-24.91,0,0,.19.05.19.05-.02,0-5.86,24.93-5.92,24.86h0Z"/>
      </g>
      <g>
        <path class="cls-14" d="M335.16,312.89l-9.56-21.95,9.56,21.95Z"/>
        <path class="cls-26" d="M335.14,312.89l-9.64-21.91.18-.08c3.21,7.29,6.47,14.66,9.46,21.99h0ZM335.14,312.89c-3.29-7.27-6.51-14.58-9.64-21.91,0,0,.18-.08.18-.08-.02.01,9.54,22.01,9.46,21.99h0Z"/>
      </g>
      <g>
        <path class="cls-14" d="M344.71,316.53l-4.03-13.25,4.03,13.25Z"/>
        <path class="cls-26" d="M344.67,316.54c-1.45-4.38-2.87-8.78-4.28-13.17l.57-.17c1.44,4.33,2.97,8.96,3.7,13.35h0ZM344.67,316.54c-1.69-4.3-3.12-8.7-4.28-13.17,0,0,.57-.17.57-.17,1.19,4.41,2.73,9.02,3.7,13.35h0Z"/>
      </g>
      <g>
        <path class="cls-17" d="M376.94,371.02l7.4.85-7.4-.85Z"/>
        <path class="cls-26" d="M376.95,370.97c2.48.14,4.96.3,7.44.5l-.09.79c-2.51-.02-4.97-.42-7.36-1.19,0,0,.01-.1.01-.1h0ZM376.95,370.97c2.51-.21,4.99-.05,7.44.5,0,0-.09.79-.09.79-1.77-.36-6.13-.78-7.35-1.29h0Z"/>
      </g>
      <g>
        <path class="cls-17" d="M376.05,364.43l12.4-2.81-12.4,2.81Z"/>
        <path class="cls-26" d="M376.04,364.41l12.38-2.9.04.2c-4.11.97-8.32,1.96-12.43,2.7h0ZM376.04,364.41c4.11-1.05,8.24-2.02,12.38-2.9,0,0,.04.2.04.2-.01-.02-12.46,2.78-12.43,2.7h0Z"/>
      </g>
      <g>
        <path class="cls-17" d="M372.4,355.9l23.67-9.63-23.67,9.63Z"/>
        <path class="cls-26" d="M372.39,355.89l23.64-9.71.08.19c-7.86,3.23-15.81,6.52-23.72,9.53h0ZM372.39,355.89c7.85-3.32,15.73-6.56,23.64-9.71,0,0,.08.19.08.19-.01-.02-23.73,9.61-23.72,9.53h0Z"/>
      </g>
      <g>
        <path class="cls-17" d="M374.08,358.65l12.4-20.48-12.4,20.48Z"/>
        <path class="cls-26" d="M374.07,358.64l12.32-20.53.17.1c-4.1,6.83-8.24,13.75-12.49,20.42h0ZM374.07,358.64c4.03-6.89,8.14-13.73,12.32-20.53,0,0,.17.1.17.1-.02-.01-12.46,20.5-12.49,20.42h0Z"/>
      </g>
      <g>
        <path class="cls-17" d="M377.14,374.71l7.9-7.29-7.9,7.29Z"/>
        <path class="cls-26" d="M377.11,374.68c2.56-2.51,5.13-5.01,7.72-7.49l.41.44c-2.51,2.49-5.26,5.17-8.12,7.05h0ZM377.11,374.68c2.38-2.7,4.95-5.19,7.72-7.49,0,0,.41.44.41.44-2.69,2.29-5.42,4.98-8.12,7.05h0Z"/>
      </g>
      <g>
        <path class="cls-17" d="M374.78,343.36l11.1-6.2-11.1,6.2Z"/>
        <path class="cls-26" d="M374.77,343.35l11.06-6.28.1.17c-3.67,2.09-7.42,4.23-11.16,6.11h0ZM374.77,343.35c3.64-2.17,7.33-4.26,11.06-6.28,0,0,.1.17.1.17-.02-.02-11.16,6.19-11.16,6.11h0Z"/>
      </g>
      <g>
        <path class="cls-17" d="M368.87,336.22l19.99-15.93-19.99,15.93Z"/>
        <path class="cls-26" d="M368.86,336.21l19.93-16,.12.16c-6.63,5.32-13.33,10.72-20.06,15.84h0ZM368.86,336.21c6.59-5.4,13.23-10.73,19.93-16,0,0,.12.16.12.16-.02-.02-20.05,15.93-20.06,15.84h0Z"/>
      </g>
      <g>
        <path class="cls-17" d="M371.26,338.38l6.11-23.15-6.11,23.15Z"/>
        <path class="cls-26" d="M371.25,338.38l6.02-23.17s.19.05.19.05c-2,7.71-4.02,15.52-6.22,23.12h0ZM371.25,338.38c1.92-7.75,3.93-15.47,6.02-23.17,0,0,.19.05.19.05-.02,0-6.16,23.19-6.22,23.12h0Z"/>
      </g>
      <g>
        <path class="cls-17" d="M376.5,347.16l5.06-12.89-5.06,12.89Z"/>
        <path class="cls-26" d="M376.49,347.16l4.97-12.92s.19.07.19.07c-1.65,4.29-3.33,8.68-5.16,12.85h0ZM376.49,347.16c1.58-4.34,3.24-8.65,4.97-12.92,0,0,.19.07.19.07-.02,0-5.11,12.92-5.16,12.85h0Z"/>
      </g>
      <g>
        <path class="cls-17" d="M374.18,388.06l6,4.41-6-4.41Z"/>
        <path class="cls-26" d="M374.18,388.05l6.05,4.34-.12.16c-2.01-1.43-4.1-2.92-5.94-4.5h0ZM374.18,388.05c2.07,1.37,4.09,2.82,6.05,4.34,0,0-.12.16-.12.16,0-.02-6.01-4.48-5.94-4.5h0Z"/>
      </g>
      <g>
        <path class="cls-17" d="M377.75,372.68l25.33,3.41-25.33-3.41Z"/>
        <path class="cls-26" d="M377.75,372.67l25.34,3.32s-.03.2-.03.2c-8.43-1.1-16.96-2.21-25.31-3.52h0ZM377.75,372.67c8.46,1.02,16.91,2.13,25.34,3.32,0,0-.03.2-.03.2,0-.02-25.37-3.46-25.31-3.52h0Z"/>
      </g>
      <g>
        <path class="cls-17" d="M377.85,375.9l20.94-11.61-20.94,11.61Z"/>
        <path class="cls-26" d="M377.84,375.89l20.9-11.68s.1.17.1.17c-6.95,3.89-13.98,7.84-20.99,11.51h0ZM377.84,375.89c6.92-3.97,13.89-7.86,20.9-11.68,0,0,.1.17.1.17-.01-.02-21,11.6-20.99,11.51h0Z"/>
      </g>
      <g>
        <path class="cls-17" d="M375.13,385.76l12.8-5.27-12.8,5.27Z"/>
        <path class="cls-26" d="M375.12,385.72c4.23-1.86,8.46-3.69,12.7-5.51l.23.55c-4.18,1.85-8.63,3.81-12.93,4.96h0ZM375.12,385.72c4.12-2.09,8.36-3.93,12.7-5.51,0,0,.23.55.23.55-4.27,1.61-8.72,3.57-12.93,4.96h0Z"/>
      </g>
      <g>
        <path class="cls-17" d="M372.51,391.35l10.48-2.4-10.48,2.4Z"/>
        <path class="cls-26" d="M372.51,391.31c3.47-.91,6.94-1.79,10.42-2.66l.13.58c-3.42.91-7.13,1.88-10.55,2.07h0ZM372.51,391.31c3.4-1.16,6.88-2.04,10.42-2.66,0,0,.13.58.13.58-3.47.65-7.18,1.63-10.55,2.07h0Z"/>
      </g>
      <g>
        <path class="cls-17" d="M369.28,388.08l10.76,6.79-10.76-6.79Z"/>
        <path class="cls-26" d="M369.29,388.07l10.8,6.72-.11.17c-3.59-2.23-7.27-4.5-10.7-6.88h0ZM369.29,388.07c3.65,2.17,7.25,4.4,10.8,6.72,0,0-.11.17-.11.17,0-.02-10.77-6.85-10.7-6.88h0Z"/>
      </g>
      <g>
        <path class="cls-17" d="M372.74,379.47l23.54,9.95-23.54-9.95Z"/>
        <path class="cls-26" d="M372.74,379.46l23.58,9.87-.08.18c-7.84-3.28-15.78-6.59-23.5-10.05h0ZM372.74,379.46c7.89,3.21,15.75,6.5,23.58,9.87,0,0-.08.18-.08.18,0-.02-23.57-10-23.5-10.05h0Z"/>
      </g>
      <g>
        <path class="cls-17" d="M371.98,382.61l23.25-5.7-23.25,5.7Z"/>
        <path class="cls-26" d="M371.98,382.6l23.23-5.78.05.19c-7.73,1.93-15.55,3.89-23.28,5.59h0ZM371.98,382.6c7.72-2.01,15.47-3.94,23.23-5.78,0,0,.05.19.05.19,0-.02-23.31,5.67-23.28,5.59h0Z"/>
      </g>
      <g>
        <path class="cls-17" d="M362.78,396.11l10.74.43-10.74-.43Z"/>
        <path class="cls-26" d="M362.78,396.08c3.58.04,7.17.09,10.75.17l-.02.6c-3.53-.02-7.37-.06-10.73-.77h0ZM362.78,396.08c3.59-.22,7.17-.16,10.75.17,0,0-.02.6-.02.6-3.52-.28-7.35-.31-10.73-.77h0Z"/>
      </g>
      <g>
        <path class="cls-14" d="M334.31,407.88l5.77,11.34-5.77-11.34Z"/>
        <path class="cls-26" d="M334.35,407.86c2.02,3.73,4.02,7.47,6,11.22,0,0-.53.27-.53.27-2.01-3.68-4.15-7.63-5.47-11.49h0ZM334.35,407.86c2.25,3.61,4.25,7.35,6,11.22,0,0-.53.27-.53.27-1.77-3.8-3.92-7.74-5.47-11.49h0Z"/>
      </g>
      <g>
        <path class="cls-14" d="M337.63,405.11l15.14,20.59-15.14-20.59Z"/>
        <path class="cls-26" d="M337.64,405.1l15.21,20.54-.16.12c-5.06-6.83-10.19-13.74-15.05-20.66h0ZM337.64,405.1c5.14,6.8,10.21,13.64,15.21,20.54,0,0-.16.12-.16.12.02-.02-15.14-20.65-15.05-20.66h0Z"/>
      </g>
      <g>
        <path class="cls-14" d="M346.68,399.93l22.89,7-22.89-7Z"/>
        <path class="cls-26" d="M346.69,399.92l22.92,6.92-.06.19c-7.62-2.3-15.35-4.62-22.86-7.11h0ZM346.69,399.92c7.66,2.22,15.3,4.53,22.92,6.92,0,0-.06.19-.06.19,0-.02-22.93-7.05-22.86-7.11h0Z"/>
      </g>
      <g>
        <path class="cls-14" d="M331.12,408.36l3.26,13.46-3.26-13.46Z"/>
        <path class="cls-26" d="M331.14,408.35l3.43,13.42s-.39.09-.39.09c-1.16-4.43-2.36-9.06-3.04-13.51h0ZM331.14,408.35c1.32,4.43,2.47,8.9,3.43,13.42,0,0-.39.09-.39.09.04-.02-3.2-13.57-3.04-13.51h0Z"/>
      </g>
      <g>
        <path class="cls-14" d="M337.2,409.27l9.01,5.87-9.01-5.87Z"/>
        <path class="cls-26" d="M337.2,409.26l9.05,5.8-.11.17c-3-1.92-6.1-3.89-8.94-5.96h0ZM337.2,409.26c3.06,1.86,6.08,3.79,9.05,5.8,0,0-.11.17-.11.17,0-.02-9.02-5.93-8.94-5.96h0Z"/>
      </g>
      <g>
        <path class="cls-17" d="M370.18,358.27l25.56.31-25.56-.31Z"/>
        <path class="cls-26" d="M370.18,358.26l25.56.23v.2c-8.5-.07-17.11-.13-25.56-.43h0ZM370.18,358.26c8.52-.01,17.04.06,25.56.23,0,0,0,.2,0,.2,0-.02-25.6-.35-25.55-.43h0Z"/>
      </g>
      <g>
        <path class="cls-17" d="M370.96,358.03l22.57-7.99-22.57,7.99Z"/>
        <path class="cls-26" d="M370.96,358.02l22.54-8.07.07.19c-7.5,2.69-15.08,5.42-22.61,7.88h0ZM370.96,358.02c7.48-2.77,15-5.46,22.54-8.07,0,0,.07.19.07.19-.01-.02-22.63,7.96-22.61,7.88h0Z"/>
      </g>
      <g>
        <path class="cls-17" d="M379.05,380.33l7.91-7.28-7.91,7.28Z"/>
        <path class="cls-26" d="M379.03,380.3c2.56-2.51,5.14-5,7.73-7.47,0,0,.41.44.41.44-2.52,2.48-5.26,5.16-8.14,7.03h0ZM379.03,380.3c2.38-2.69,4.96-5.18,7.73-7.47,0,0,.41.44.41.44-2.69,2.29-5.43,4.97-8.14,7.03h0Z"/>
      </g>
      <g>
        <path class="cls-14" d="M201.96,311.81l-15.4-7.51,15.4,7.51Z"/>
        <path class="cls-26" d="M201.95,311.82l-15.44-7.43.09-.18c5.13,2.47,10.36,4.97,15.35,7.61h0ZM201.95,311.82c-5.18-2.4-10.33-4.87-15.44-7.43,0,0,.09-.18.09-.18,0,.02,15.42,7.56,15.35,7.61h0Z"/>
      </g>
      <g>
        <path class="cls-14" d="M358.76,396.46l6.56,10.9-6.56-10.9Z"/>
        <path class="cls-26" d="M358.78,396.45l6.71,10.81-.34.21c-2.24-3.56-4.58-7.3-6.36-11.02h0ZM358.78,396.45c2.39,3.51,4.63,7.11,6.71,10.81,0,0-.34.21-.34.21.03-.03-6.53-11.02-6.36-11.02h0Z"/>
      </g>
      <g>
        <path class="cls-17" d="M365.71,390.32l16.56,19.47-16.56-19.47Z"/>
        <path class="cls-26" d="M365.72,390.32l16.63,19.41-.15.13c-5.53-6.46-11.14-12.98-16.47-19.54h0ZM365.72,390.32c5.61,6.41,11.15,12.89,16.63,19.41,0,0-.15.13-.15.13.02-.02-16.56-19.53-16.47-19.54h0Z"/>
      </g>
      <g>
        <path class="cls-17" d="M363.63,392.79l23.33,5.36-23.33-5.36Z"/>
        <path class="cls-26" d="M363.63,392.78l23.35,5.28s-.04.19-.04.19c-7.77-1.75-15.64-3.52-23.31-5.47h0ZM363.63,392.78c7.8,1.68,15.59,3.44,23.35,5.28,0,0-.04.19-.04.19,0-.02-23.37-5.41-23.31-5.47h0Z"/>
      </g>
      <g>
        <path class="cls-14" d="M355.02,398.3l13.05,4.64-13.05-4.64Z"/>
        <path class="cls-26" d="M355.03,398.27c4.38,1.45,8.76,2.91,13.13,4.39l-.2.57c-4.34-1.42-8.97-2.94-12.93-4.96h0ZM355.03,398.27c4.47,1.2,8.85,2.67,13.13,4.39,0,0-.2.57-.2.57-4.25-1.66-8.88-3.17-12.93-4.96h0Z"/>
      </g>
      <g>
        <path class="cls-14" d="M349.33,400.71l9.4,5.22-9.4-5.22Z"/>
        <path class="cls-26" d="M349.35,400.68c3.19,1.64,6.36,3.31,9.53,4.99,0,0-.29.52-.29.52-3.15-1.61-6.56-3.37-9.23-5.51h0ZM349.35,400.68c3.3,1.42,6.48,3.08,9.53,4.99,0,0-.29.52-.29.52-3.02-1.84-6.43-3.59-9.23-5.51h0Z"/>
      </g>
      <g>
        <path class="cls-14" d="M348.84,403.16l3.54,12.22-3.54-12.22Z"/>
        <path class="cls-26" d="M348.86,403.15l3.7,12.17s-.38.11-.38.11c-1.24-4.02-2.55-8.23-3.32-12.28h0ZM348.86,403.15c1.41,4,2.65,8.06,3.7,12.17,0,0-.38.11-.38.11.04-.02-3.48-12.33-3.32-12.28h0Z"/>
      </g>
      <g>
        <path class="cls-14" d="M349.81,402.2l11,23.07-11-23.07Z"/>
        <path class="cls-26" d="M349.82,402.2l11.08,23.03-.18.09c-3.69-7.66-7.43-15.41-10.9-23.12h0ZM349.82,402.2c3.77,7.64,7.46,15.32,11.08,23.03,0,0-.18.09-.18.09.02-.01-10.99-23.13-10.9-23.12h0Z"/>
      </g>
      <g>
        <path class="cls-14" d="M347.16,404.05l21.17,11.18-21.17-11.18Z"/>
        <path class="cls-26" d="M347.17,404.04l21.21,11.1s-.09.18-.09.18c-7.06-3.69-14.21-7.42-21.12-11.28h0ZM347.17,404.04c7.11,3.62,14.18,7.32,21.21,11.1,0,0-.09.18-.09.18,0-.02-21.2-11.24-21.12-11.28h0Z"/>
      </g>
      <g>
        <path class="cls-14" d="M337.42,407.17l11.42,7.84-11.42-7.84Z"/>
        <path class="cls-26" d="M337.43,407.16l11.46,7.76s-.11.16-.11.16c-3.81-2.58-7.71-5.2-11.35-7.93h0ZM337.43,407.16c3.87,2.52,7.69,5.11,11.46,7.76,0,0-.11.16-.11.16.01-.02-11.43-7.9-11.35-7.93h0Z"/>
      </g>
      <g>
        <path class="cls-14" d="M331.31,408.03l7.74,7.46-7.74-7.46Z"/>
        <path class="cls-26" d="M331.33,408.02l7.86,7.33-.28.29c-2.61-2.4-5.37-4.95-7.59-7.62h0ZM331.33,408.02c2.75,2.31,5.37,4.75,7.86,7.33,0,0-.28.29-.28.29.02-.04-7.74-7.58-7.59-7.62h0Z"/>
      </g>
      <g>
        <path class="cls-14" d="M340.55,410.31l-2.91,6.86,2.91-6.86Z"/>
        <path class="cls-26" d="M340.56,410.31l-2.83,6.89-.18-.08c.93-2.29,1.89-4.66,3.02-6.81h0ZM340.56,410.31c-.86,2.33-1.8,4.63-2.83,6.89,0,0-.18-.08-.18-.08.02,0,2.97-6.88,3.02-6.81h0Z"/>
      </g>
      <g>
        <path class="cls-14" d="M189.08,330.02l-4.57-5.85,4.57,5.85Z"/>
        <path class="cls-26" d="M189.07,330.03l-4.64-5.8.16-.12c1.54,1.91,3.15,3.9,4.48,5.92h0ZM189.07,330.03c-1.62-1.88-3.17-3.81-4.64-5.8,0,0,.16-.12.16-.12-.01.02,4.57,5.92,4.48,5.92h0Z"/>
      </g>
      <g>
        <path class="cls-17" d="M379.23,369.78l23.56-9.91-23.56,9.91Z"/>
        <path class="cls-26" d="M379.22,369.77l23.52-9.99s.08.18.08.18c-7.82,3.33-15.74,6.7-23.6,9.81h0ZM379.22,369.77c7.81-3.41,15.65-6.74,23.52-9.99,0,0,.08.18.08.18-.01-.02-23.62,9.9-23.6,9.81h0Z"/>
      </g>
      <g>
        <path class="cls-17" d="M375.85,357.9l22.35,8.59-22.35-8.59Z"/>
        <path class="cls-26" d="M375.86,357.89l22.38,8.51s-.07.19-.07.19c-7.44-2.83-14.99-5.68-22.31-8.69h0ZM375.86,357.89c7.49,2.76,14.95,5.59,22.38,8.51,0,0-.07.19-.07.19,0-.02-22.38-8.64-22.31-8.69h0Z"/>
      </g>
      <g>
        <path class="cls-14" d="M343.52,405.72l8.07,11.25-8.07-11.25Z"/>
        <path class="cls-26" d="M343.53,405.71l8.15,11.2s-.16.12-.16.12c-2.71-3.72-5.48-7.51-7.98-11.31h0ZM343.53,405.71c2.78,3.68,5.5,7.41,8.15,11.2,0,0-.16.12-.16.12.02-.02-8.07-11.31-7.98-11.31h0Z"/>
      </g>
      <g>
        <path class="cls-14" d="M212.58,302.63l-8.46-9.5,8.46,9.5Z"/>
        <path class="cls-26" d="M212.57,302.63l-8.53-9.44.15-.13c2.83,3.13,5.74,6.33,8.38,9.57h0ZM212.57,302.63c-2.91-3.09-5.75-6.24-8.53-9.44,0,0,.15-.13.15-.13-.01.02,8.46,9.56,8.38,9.57h0Z"/>
      </g>
      <g>
        <path class="cls-14" d="M198.55,313.08l-10.98-12.55,10.98,12.55Z"/>
        <path class="cls-26" d="M198.54,313.09l-11.04-12.49.15-.13c3.67,4.15,7.42,8.36,10.89,12.62h0ZM198.54,313.09c-3.74-4.11-7.42-8.27-11.04-12.49,0,0,.15-.13.15-.13-.02.02,10.97,12.61,10.89,12.62h0Z"/>
      </g>
      <g>
        <path class="cls-14" d="M198.06,311.39l-16.13-2.73,16.13,2.73Z"/>
        <path class="cls-26" d="M198.06,311.4l-16.14-2.65.03-.2c5.36.88,10.83,1.76,16.11,2.85h0ZM198.06,311.4c-5.39-.8-10.78-1.68-16.14-2.65,0,0,.03-.2.03-.2,0,.02,16.17,2.78,16.11,2.85h0Z"/>
      </g>
      <g>
        <path class="cls-14" d="M195.22,364.8l-11.98,6.94,11.98-6.94Z"/>
        <path class="cls-26" d="M195.23,364.81l-11.94,7.01-.1-.17c3.96-2.33,8.01-4.72,12.04-6.84h0ZM195.23,364.81c-3.94,2.41-7.92,4.75-11.94,7.01,0,0-.1-.17-.1-.17.02.02,12.05-6.92,12.04-6.84h0Z"/>
      </g>
      <g>
        <path class="cls-14" d="M320.22,301.51l4.88-5.63-4.88,5.63Z"/>
        <path class="cls-26" d="M320.21,301.5l4.82-5.69.15.13c-1.59,1.89-3.24,3.85-4.97,5.55h0ZM320.21,301.5c1.54-1.96,3.14-3.85,4.82-5.69l.15.13s-4.95,5.63-4.97,5.55h0Z"/>
      </g>
      <g>
        <path class="cls-14" d="M313.81,299.33l-14.46-21.08,14.46,21.08Z"/>
        <path class="cls-26" d="M313.8,299.34l-14.53-21.03s.16-.11.16-.11c4.84,6.99,9.74,14.06,14.37,21.14h0ZM313.8,299.34c-4.91-6.96-9.76-13.97-14.53-21.03,0,0,.16-.11.16-.11-.02.02,14.45,21.14,14.37,21.14h0Z"/>
      </g>
      <g>
        <path class="cls-17" d="M372.21,341.54l8.86-22.24-8.86,22.24Z"/>
        <path class="cls-26" d="M372.2,341.54l8.78-22.27.19.07c-2.92,7.41-5.86,14.92-8.96,22.2h0ZM372.2,341.54c2.85-7.46,5.77-14.88,8.78-22.27,0,0,.19.07.19.07-.02,0-8.91,22.27-8.96,22.2h0Z"/>
      </g>
      <g>
        <path class="cls-14" d="M318.01,300.37l-4.22-13.19,4.22,13.19Z"/>
        <path class="cls-26" d="M318,300.37l-4.3-13.16.19-.06c1.43,4.37,2.9,8.83,4.11,13.22h0ZM318,300.37c-1.52-4.36-2.95-8.75-4.3-13.16,0,0,.19-.06.19-.06-.02.01,4.2,13.24,4.11,13.22h0Z"/>
      </g>
      <g>
        <path class="cls-14" d="M323.37,303.43l-1.55-10.64,1.55,10.64Z"/>
        <path class="cls-26" d="M323.36,303.43l-1.64-10.62.2-.03c.55,3.52,1.12,7.15,1.44,10.65h0ZM323.36,303.43c-.63-3.53-1.18-7.07-1.64-10.62,0,0,.2-.03.2-.03-.02,0,1.52,10.69,1.44,10.65h0Z"/>
      </g>
      <path class="cls-5" d="M182.33,347.33l-10.64,6.97,10.64-6.97Z"/>
      <path class="cls-5" d="M186.18,352.05l-4.46,23.52,4.46-23.52Z"/>
      <path class="cls-5" d="M179.78,345.5l-4.14,13.21,4.14-13.21Z"/>
      <path class="cls-5" d="M190.53,319.76l-12.29-3.26,12.29,3.26Z"/>
      <path class="cls-5" d="M190.7,329l-25.44-2.46,25.44,2.46Z"/>
      <path class="cls-5" d="M187.96,327.41l-23.9,7.77,23.9-7.77Z"/>
      <path class="cls-11" d="M371.42,343.62l11.72-4.95-11.72,4.95Z"/>
      <g>
        <path class="cls-14" d="M300.24,297.18l5.15-25.03-5.15,25.03Z"/>
        <path class="cls-26" d="M300.21,297.17l4.98-25.07.39.08c-1.65,8.32-3.32,16.85-5.37,24.99h0ZM300.21,297.17c1.49-8.39,3.15-16.75,4.98-25.07,0,0,.39.08.39.08-.05,0-5.25,25.11-5.37,24.99h0Z"/>
      </g>
      <g>
        <path class="cls-14" d="M296,298.04l-10.13-21.69,10.13,21.69Z"/>
        <path class="cls-26" d="M296,298.04c-3.1-6.19-7.36-15.23-10.36-21.59,0,0,.45-.21.45-.21,2.96,6.41,7.13,15.41,9.91,21.8h0ZM296,298.04c-3.1-6.19-7.36-15.23-10.36-21.59,0,0,.45-.21.45-.21,2.96,6.41,7.13,15.41,9.91,21.8h0Z"/>
      </g>
      <path class="cls-11" d="M373.6,345.88l6.44-12.26-6.44,12.26Z"/>
      <g>
        <path class="cls-17" d="M374.3,353.55l6.49-8.57-6.49,8.57Z"/>
        <path class="cls-26" d="M374.28,353.54l6.35-8.67s.32.24.32.24c-2.08,2.88-4.28,5.92-6.67,8.43h0ZM374.28,353.54c1.97-3,4.09-5.89,6.35-8.67,0,0,.32.24.32.24-.04-.01-6.62,8.58-6.67,8.43h0Z"/>
      </g>
      <path class="cls-5" d="M228.07,277.21l15.1,18.58-15.1-18.58Z"/>
      <g>
        <path class="cls-14" d="M223.34,272.51l17.55,16.28-17.55-16.28Z"/>
        <path class="cls-26" d="M223.35,272.5l17.61,16.22-.14.15c-5.86-5.39-11.8-10.84-17.48-16.36h0ZM223.35,272.5c5.93,5.34,11.8,10.75,17.61,16.22,0,0-.14.15-.14.15.01-.02-17.56-16.34-17.48-16.36h0Z"/>
      </g>
      <g>
        <path class="cls-14" d="M233.9,270.49l3.83,12.13-3.83-12.13Z"/>
        <path class="cls-26" d="M233.91,270.49l3.91,12.1-.19.06c-1.3-4.02-2.65-8.13-3.72-12.16h0ZM233.91,270.49c1.39,4.01,2.69,8.04,3.91,12.1,0,0-.19.06-.19.06.02-.01-3.81-12.18-3.72-12.16h0Z"/>
      </g>
      <g>
        <path class="cls-14" d="M242.09,266.15l11.56,22.79-11.56-22.79Z"/>
        <path class="cls-26" d="M242.11,266.15l11.64,22.75s-.18.09-.18.09c-3.87-7.57-7.8-15.22-11.46-22.85h0ZM242.11,266.15c3.96,7.55,7.83,15.13,11.64,22.75,0,0-.18.09-.18.09.02-.01-11.55-22.86-11.46-22.85h0Z"/>
      </g>
      <path class="cls-6" d="M243.49,275.34l4.39,15.77-4.39-15.77Z"/>
    </g>
    <g id="oje">
      <g id="oje_v">
        <path class="cls-19" d="M221.65,344.52s-2.07-2.36-2.91-3.85-1.55-2.07-2.27-4.27c-.71-2.19-.9-4.45-.91-4.47t0,.78v-2.87c0-.37.14-3.05.14-3.34l.38-2.08c.57-2.32,0,0,0,0h0c1.2-3.71,2.13-4.38,3.8-6.16.4-.42.95-1.06,1.35-1.39l.02-.02h0c1.43-1.25,3.08-2.24,4.86-2.91l1.35-.51c1.85-.7,3.8-1.11,5.77-1.21l2.91-.16c.96-.05,2.19-.03,3.59.23,1.57.28,2.85.77,3.79,1.2.65.3,1.54.74,2.56,1.35,1.19.71,1.91,1.14,2.66,1.9.52.53,1.26,1.41,1.85,2.77.52.79,1.16,1.88,1.74,3.26.94,2.24,1.24,4.1,1.41,5.21.03.2.06.41.09.63.24,1.88.21,3.78,0,5.67l-.89,2.86c-.17.55-.33,1.1-.46,1.66-.39,1.65-1.31,2.67-1.69,3.52-.48,1.07-1.02,1.53-1.2,1.74l-.88,1.18c-.92,1.03-.64.8-1.7,1.69l-.72.59s-.6.48-.61.48l-1.23.59s-.43.22-.44.22l1,.29c-3.67-.81-7.35-1.63-11.02-2.44"/>
        <path class="cls-15" d="M241.94,347.98c1.34-.78,1.48-.9,3.65-3.08.53-.54,1.01-1.13,1.38-1.79.9-1.58,1.61-3.08,2.16-4.45,2.09-5.15,2.08-11-.48-15.93-.69-1.33-1.55-2.58-2.62-3.6-1.73-1.66-3.24-2.95-6.85-3.71-3.43-.72-8.78-.91-12.09,1.03-2.92,1.71-3.4,1.19-6.67,7.07-4.11,7.4,2.73,20.2,4.72,21.18.11.06-1.4.04-1.4.04h0"/>
        <path class="cls-8" d="M226.23,336.25c-1.54-4.6,1.23-9.35,3.22-10.98,1.16-.95,2.8-2.07,2.8-2.07h0l.65-.42c2.97-1.85,8-.37,10.96,2.19h0c2.06,1.78,3.12,4.44,2.89,7.16-.05.63-.13,1.25-.24,1.79l-.55,2.03s0-.01,0,0c-4.34,9.63-13.89,5.68-15.29,4.92-.24-.13-3.4-1.49-4.44-4.61Z"/>
        <path d="M242.76,333.43c.64.95.35,2.13.35,2.13,0,0,0,2.4-3.49,2.74-2.52.24-2.83-1.55-2.8-2.56,0-.37.1-.73.23-1.07l.16-.4c.75-1.89,3.09-2.76,4.77-1.61.33.23.6.5.79.78Z"/>
        <path class="cls-4" d="M239.27,323.03s-5.94,4.88-.66,7.11c5.81,2.45,7.63.65,7.51-.46-.08-.75-.89-3.94-2.48-4.9-1.81-1.21-3.48-1.67-4.37-1.75Z"/>
        <path class="cls-10" d="M210.07,346.08c-.04-.15,11.15-5.28,39.78,4.8"/>
      </g>
      <g id="oje_m">
        <path class="cls-29" d="M268.79,351.33s-1.81-2.06-2.65-3.55-1.55-2.07-2.27-4.27c-.71-2.19-.9-4.45-.91-4.47t0,.78v-2.87c0-.37.14-3.05.14-3.34l.38-2.08c.57-2.32,0,0,0,0h0c1.2-3.71,2.46-4.57,4.13-6.35.4-.42.74-.84,1.03-1.2l.02-.02h0c1.43-1.26,3.08-2.24,4.86-2.91l1.35-.51c1.85-.7,3.8-1.11,5.77-1.21l2.91-.16c.96-.05,2.19-.03,3.59.23,1.57.28,2.85.77,3.79,1.2.65.3,1.54.74,2.56,1.35,1.19.71,1.91,1.14,2.66,1.9.52.53,1.26,1.41,1.85,2.77.52.79,1.16,1.88,1.74,3.26.94,2.24,1.24,4.1,1.41,5.21.03.2.06.41.09.63.24,1.88.21,3.78,0,5.67l-.89,2.86c-.17.55-.33,1.1-.46,1.66-.39,1.65-1.31,2.67-1.69,3.52-.48,1.07-1.02,1.53-1.2,1.74l-.88,1.18c-.92,1.03-.64.8-1.7,1.69l-.72.59s-.6.48-.61.48l-.24.22s.17.21.17.21h0c-3.67-.81-7.95-.96-11.62-1.77"/>
        <path class="cls-15" d="M274.42,352.17c-3.7-1.26-6.01-4.2-6.87-5.87-.74-1.43-3.7-5.98-2.33-12.52.02-.11.06-.27.11-.47.76-3.01,2.33-5.79,4.61-7.9.02-.01.03-.03.05-.04,3.31-3.06,11.74-3.93,13.5-4.02,2.71.23,3.31-.14,8.24,2.27,6.56,3.21,6.45,7.14,6.49,14,.01,2.3-1.91,11.13-5.83,13.2-3.02,1.56-4.87,2.28-6.61,2.55-.98.15-2.06.13-2.17.14-1.56.01-2.76-.16-4.24-.4-2.9-.48-4.35-.72-4.93-.92Z"/>
        <path class="cls-10" d="M256.29,350.74c4.55-2.03,32.76,4.58,37.95,4.91"/>
        <path class="cls-9" d="M271.83,342.44c-1.54-4.6,1.23-9.35,3.22-10.98,1.16-.95,2.8-2.07,2.8-2.07h0l.65-.42c2.97-1.85,8-.37,10.96,2.19h0c2.06,1.78,3.12,4.44,2.89,7.16-.05.63-.13,1.25-.24,1.79l-.55,2.03s0-.01,0,0c-4.34,9.63-13.89,5.68-15.29,4.92-.24-.13-3.4-1.49-4.44-4.61Z"/>
        <path class="cls-2" d="M277.85,329.39c-1.55,1.93.73,3.74,3.69,4.6,4.22,1.22,7.2-3.05,7.2-3.05-.52-1.02-4.37-2.73-6.61-2.32-2.55-.05-3.49.23-4.27.76Z"/>
        <path d="M285.34,338.25c.64.95.35,2.13.35,2.13,0,0,0,2.4-3.49,2.74-2.52.24-2.83-1.55-2.8-2.56,0-.37.1-.73.23-1.07l.16-.4c.75-1.89,3.09-2.76,4.77-1.61.33.23.6.5.79.78Z"/>
      </g>
      <g id="oje_h">
        <polyline class="cls-10" points="342.71 373.21 329.83 370.44 315.02 363.87 305.04 361.41"/>
        <path class="cls-30" d="M312.87,363.49s-1.55-2.73-2.07-4.36-1.1-2.34-1.36-4.64c-.25-2.29.01-4.54.02-4.57t-.16.77l.58-2.81c.07-.36.75-2.96.81-3.24l.79-1.96c1.03-2.16,0,0,0,0,1.93-3.39,3.33-3.98,5.32-5.39.47-.33.9-.68,1.25-.96h.02s0-.01,0-.01c1.65-.94,3.46-1.57,5.34-1.87l1.42-.22c1.95-.31,3.94-.32,5.9-.02l2.88.43c.95.14,2.15.42,3.47.95,1.48.6,2.64,1.33,3.47,1.94.58.42,1.36,1.04,2.23,1.84,1.02.94.85.89,1.44,1.78.41.62,1.74,2.25,2.03,3.7.35.87.75,2.07,1.04,3.54.47,2.39.39,4.27.33,5.39-.01.2-.02.41-.04.64-.14,1.89-.56,3.75-1.15,5.55l-1.44,2.62c-.28.5-.47,1.06-.79,1.53-.8,1.18-1.94,2.46-2.71,2.98-.93.62-1.58,1.23-1.79,1.39l-.9.8c-1.11.83-1.29.65-2.51,1.3l-2.38.83s1.77.32,1.77.32l.19.11h-.08s-1.89-.43-1.89-.43c-3.36-1.03-5.92-1.44-9.41-3.36-3.25-1.38-6.51-2.77-9.76-4.15"/>
        <path class="cls-15" d="M315.74,363.94c-.18-.12-.38-.42-.46-.62-.59-1.52-2.44-5-2.65-7.57-.29-3.53.32-6.42.86-8.22.82-2.95,2.24-4.81,3.13-5.8,2.93-3.24,4.65-4.43,7.34-5.13.74-.19,7.65-.82,10.12.35,6.55,3.09,9.35,4.4,10.38,16.32.43,5.03-1.17,8.72-4.8,10.93-5.87,3.57-7.25,3.36-9.33,3.73-4.3.77-3.83,1.05-9.22-1.6-2.84-1.4-3.79-1.31-5.37-2.39Z"/>
        <path class="cls-7" d="M316.4,357.61c-1.54-4.6,1.23-9.35,3.22-10.98,1.16-.95,2.8-2.07,2.8-2.07h0l.65-.42c2.97-1.85,8-.37,10.96,2.19h0c2.06,1.78,3.12,4.44,2.89,7.16-.05.63-.13,1.25-.24,1.79l-.55,2.03s0-.01,0,0c-4.34,9.63-13.89,5.68-15.29,4.92-.24-.13-3.4-1.49-4.44-4.61Z"/>
        <path class="cls-3" d="M328.66,344.12c.88-1.08-1.89,1.07.36,6.11,2.58,5.76,7.28.97,7.28.97-.27-.71-1.09-3.42-2.83-4.73-2.14-1.38-3.93-2.48-4.81-2.34Z"/>
        <path d="M323.55,353.42c.64.95.35,2.13.35,2.13,0,0,0,2.4-3.49,2.74-2.52.24-2.83-1.55-2.8-2.56,0-.37.1-.73.23-1.07l.16-.4c.75-1.89,3.09-2.76,4.77-1.61.33.23.6.5.79.78Z"/>
      </g>
    </g>
  </g>
  <g id="krop">
    <g id="krop-2" data-name="krop">
      <path class="cls-14" d="M216.14,395.26c-15.83-1.85-6.05-1.27-31.34-1.92-13.41-.35-40.23,3.68-45.1,6.16-6.22,3.18-11.61,6.6-17.51,13.99-3.1,3.89-15.16,27.92-13.72,44.89s17.39,27.05,17.39,27.05c0,0,6.86,4.39,13.53,1.29,2.09-.97-22.51,10.2-13.85,14.81,11.02,5.86,17.71-12.4,17.71-12.4l3.22,1.61s-4.29,10.92,3.22,12.56c6.71,1.47,12.88-16.75,3.22-19s4.19-5.8,4.19-5.8c0,0,17.23-9.89-1.29-12.88-17.95-2.9-7.73,19.97-10.63,18.36-2.9-1.61-3.86,7.73-20.93-7.41-17.07-15.14-.44-48.24,1.86-50.94,6.61-7.73,12.83-13.52,36.47-17,24.25-3.57,46.69,5.14,52.16,12.54,5.47,7.41-15.81,37.45-9.84,62.13,4.39,18.18,16.25,31.43,18,34.92.11.23.26.43.46.57.68.46,2.36,2.21,3.3,5.43.93,3.23,6.82,17.58,2.28,29.49-4.45,11.69-19.99,78.07-19.99,78.07l-5.8,38.64c-3.3-2.65-43.76-1.77-60.21,19.34l66.03,1.08,3.72-7.05,15.43-89.22,20.98-65.72-.62-2.03,16.58,1.48-.99,2.19-.39,11.25-.55,20.44-15.14,127.21,6.29,6.24,64.46,5.06c-.97-.48-24.26-36.89-56.75-21.44l15.6-137.06s10.19-16.94,16.82-21.27c7.12-4.64,34.5-20.48,34.83-46.56.32-26.09.08-24.34.08-24.34l-7.72-14.91s3.62,12.41,27.41,40.8c23.06,27.52,46.32,10.36,46.32,10.36,5.07-4.77,3.16-3.21,10.03-12.29,4.22-5.58,8.6,4.54,11.93,7.53.98.88,6.99,3.48,2.8-9.08-4.19-12.56,17.17,12.43,15.54-6.18-.77-8.75-9.05.73-15.78-4.51-4.03-3.14-3.73-8.69,1.61-9.66,6.29-1.14,7.7-5.59,4.83-8.05-4.96-4.26-13.35,1.97-13.67,4.5-1.11.66.39,9.19.79,10.31.71,2.04-6.76,8.37-8.37,1.93s-7.08-13.2-10.31-6.12c-3.22,7.08,4.51,7.41,4.51,7.41,0,0,10.5-.45,2.25,11.59s-39.93,9.98-53.78-16.42c-13.85-26.41-9.21-35.45-14.59-38.71-2.96-1.79-5.56-2.83-8.45-3.34-7.69-1.37-12.17.93-19.93,2.3-8.07,1.42-14.22.88-22.06.18-9.05-.8-15.74-1.5-23.04-3.53-7.26-2.02-16.61-6.21-27.37-11.12"/>
      <g id="ben">
        <path class="cls-24" d="M224.61,519.97c1.21.74,2.87,1.72,4.92,2.76,3.37,1.72,6.01,2.72,8.62,3.7,4.1,1.54,5.84,1.92,6.39,2.03,1.84.38,3.41.53,4.52.59-1.15,3.61-2.3,7.22-3.46,10.83l-5.3,16.61c-5.04-7.57-8.61-11.57-9.36-13.98-.82-2.63,0,0-.84-5.21-.19-1.15-.42-2.14-2.01-7.03-.83-2.55-2-6.07-3.47-10.3"/>
        <path class="cls-28" d="M289.32,525.7c-1.27.43-4.32,2.36-6.45,2.77-3.69.71-6.18,1.92-8.31,2.14-3.89.4-6.32.1-6.84.07-1.75-.08-2.61.03-3.63-.18.09,3.76-.48,7.49-.39,11.25l-.46,17.37c6.49-6.09,12.69-8.91,13.6-11.26.94-2.46-.42-2.12,1.7-6.95.34-.77.49-.9,1.71-2.53,0,0,1.05-1.35,1.59-2.17.8-1.23,1.44-2.3,1.93-2.88.98-1.16,1.94-3.42,4.41-6"/>
      </g>
      <g id="arm">
        <path id="arm_v" class="cls-21" d="M150.81,396.7l29.95,11.24s-.23,0,5.39.79c6.16,1.61,10.34,2.85,16.5,4.46.47.12,1.82.88,2.29,1.01,1.73.78,3.92,1.95,6.13,3.63,2.5,1.9,3.95,3.75,4.2,4.35.1.28.27,2.04.39,2.19.04-.49.1-1.21.16-2.1.39-6.05.16-10.53.08-12.46-.13-3.3-.18-8.13.24-14.56-10.9-1.27-19.59-1.76-26.82-1.81-4.24-.03-10.36-.06-18.45.58-7.95.63-14.74,1.67-20.05,2.67Z"/>
        <path id="arm_h" class="cls-16" d="M360.23,472.2c-.51,4.5,13.17,13.13,12.66,17.62-4.53.11-10.11-2.24-13.97-4.61-14.52-8.94-15.74-17.27-17.4-18.56-.67-1.13-1.26-1.28-7.36-10-1.98-2.83-2.3-3.22-3.13-4.41-2.36-3.4-2.39-1.95-6.08-10.22l.84-27.03c2.8.69.97.18,2.64.73,1.53.5,3.6,2.19,4.75,2.83,3.41,1.88,4.79,8.77,6.12,15.11,0,0,1.25,5.98,4.66,16.02,1.99,5.86,6.22,13.97,16.28,22.52Z"/>
      </g>
      <path class="cls-23" d="M317.07,414.94c-19.35,1.96-34,2.51-39.82,2.13-4.06-.26-7.68-.84-7.68-.84-3.78-.61-6.7-1.35-8.24-1.79-5.05-1.45-6.57-2.17-12.03-4.06-5.25-1.81-4.08-1.73-7.95-3.43-5.93-2.61-8.15-3.85-11.33-5.1,0,0-2.52-1.82-4.86-2.28-.09-.02-.26-.16-.81-.45-.16-.08-1.28-.91-1.34-.94-2.46-1.45-6.87-2.93-6.87-2.93-1.72,1.55-.25,11.88-.38,27.19-.03,3.23-.85,8.48-2.88,15.01-2.25,7.27-4.4,10.94-7.02,20.38-.5,1.82-.93,3.85-1.32,6.52-1.36,9.3-1.2,16.94,2.19,25,.14.34,1.55,5.13,3.52,9.53,3.13,7,6.46,10.69,7.33,12.08.86,1.37,1.89,2.28,3.5,4.95,1.35,2.24,3.26,3.92,3.52,4.05,0,0,4.05,2.46,4.92,2.76.51.18,6.03,2.67,6.03,2.67,4.19,1.48,8.31,3.15,14.59,3.79,9.11.93,6.58.97,12.16,1.27,4.39.23,11.66.46,13.37-.08,0,0,7.55-1.92,9.7-2.7,3.14-1.14,5.29-2.85,7.11-4.5,1.7-1.54,7.19-4.18,11.29-7.52,8.08-6.58,5.54-4.72,11.33-10.6,1.41-1.43,7.15-6.11,10.09-12.02.92-1.86,1.59-3.73,1.62-3.8.64-1.54,1.32-3.81,1.73-7.67.62-5.81,1.42-11.75,1.3-17.93-.03-1.29-.05-.66-.27-5.5-.16-3.53-.06-4.67-.15-6.52-.07-1.57-.03-1.41-.07-1.57-1.12-4.44-4.04-20.08-4.04-20.08,0,0,1.03-13,.46-14.98-1.63-.54-.88-.19-3.55-.33-2-.1-3.75.06-5.16.28Z"/>
    </g>
    <g id="krop_stjerne">
      <path id="krop__stj" data-name="krop_ stj" class="cls-25" d="M306.97,424.37l1.96,7.48c.56,2.12,2.86,4.47,5.66,4.97l2.9.52-3.17,1.26c-2.4.95-4.02,3.6-4.03,6.59l-.04,8.82-2.12-8.13c-.9-3.45-3.45-5.94-6.49-6.32l-3.78-.47,2.8-.81c3.32-.96,5.7-4.42,5.82-8.46l.48-5.45Z"/>
      <path id="krop__stj-2" data-name="krop_ stj" class="cls-25" d="M311.84,508.62l-7.85-9.32c-1.96-2.32-5.33-2.83-7.88-1.18l-5.14,3.31,4.84-5.38c1.78-1.98,2.11-4.88.81-7.21l-3.86-6.9,5.5,6.08c1.82,2.01,4.83,2.43,7.13,1l6.04-3.77-5.61,5.56c-1.77,1.76-2.1,4.5-.8,6.63l6.83,11.18Z"/>
      <path id="krop__stj-3" data-name="krop_ stj" class="cls-25" d="M241.59,435l7.89,2.22h-9.41c-3.41,0-6.55,1.93-8.19,5.04l-4.05,7.68,1.6-6.52c.92-3.74-1.42-7.5-5.07-8.18l-4.69-.86,5.53-.61c4.1-.45,7.65-3.18,9.26-7.13l3.86-9.47-1.54,10.14c-.52,3.46,1.55,6.78,4.8,7.69Z"/>
    </g>
    <g id="marke_blue">
      <g id="Blue_v">
        <path class="cls-27" d="M149.74,401.15c-.98-.67-.81-2.09-.43-2.9.11-.24.39-.81,1.09-1.23,1-.59,2.44-.63,3.49-.01.15.09,1.32.8,1.23,1.87-.08.94-1.09,1.49-1.67,1.81-.31.17-2.43,1.32-3.7.46Z"/>
        <path class="cls-27" d="M139.52,401.15c.45-.09,1.09-.04,1.38.24.17.16.15.37.09.77-.09.63-.14.94-.52,1.19-.3.2-.87.38-1.38.24-.58-.16-.74-.62-.78-.74-.22-.65.29-1.51,1.21-1.69Z"/>
        <path class="cls-27" d="M132.57,404.88c.34-.06.83-.02,1.05.16.13.11.11.24.07.51-.07.41-.11.62-.39.78-.23.13-.66.25-1.05.16-.44-.1-.56-.41-.59-.49-.17-.43.22-.99.92-1.11Z"/>
        <path class="cls-27" d="M145.67,398.75c.17-.03.42-.01.53.09.07.06.06.13.03.28-.04.23-.05.34-.2.43-.12.07-.33.14-.53.09-.22-.06-.28-.22-.3-.27-.08-.23.11-.54.46-.61Z"/>
        <path class="cls-27" d="M136.99,406.24c.17.02.42,0,.53-.05.07-.04.06-.08.03-.17-.04-.14-.05-.21-.2-.27-.12-.04-.33-.08-.53-.05-.22.04-.28.14-.3.17-.08.15.11.34.46.38Z"/>
        <path class="cls-27" d="M165.08,399.12c-1.38-.55-1.12-1.75-.58-2.43.16-.2.56-.68,1.56-1.04,1.42-.51,3.47-.56,4.94-.05.22.07,1.86.66,1.72,1.56-.13.79-1.56,1.27-2.39,1.54-.45.15-3.46,1.14-5.25.43Z"/>
      </g>
      <g id="blue_h">
        <path class="cls-27" d="M334.98,436.66c.05-1.49,1.27-1.65,2.1-1.36.24.08.83.3,1.5,1.12.96,1.17,1.69,3.08,1.71,4.64,0,.23,0,1.97-.89,2.14-.79.15-1.72-1.05-2.25-1.73-.29-.37-2.23-2.87-2.17-4.8Z"/>
        <path class="cls-27" d="M339.59,449.41c.25-.87,1.42-1.23,2.16-1.25.22,0,.74,0,1.26.32.74.47,1.16,1.42.96,2.32-.03.13-.27,1.14-1.13,1.43-.76.26-1.47-.23-1.88-.51-.22-.15-1.7-1.18-1.37-2.31Z"/>
        <path class="cls-27" d="M334.83,444.89c.26-.06.64-.03.81.16.1.11.09.25.05.53-.06.43-.08.65-.3.81-.18.13-.51.26-.81.16-.34-.11-.43-.43-.45-.51-.13-.45.17-1.04.71-1.16Z"/>
      </g>
    </g>
  </g>
</svg>