<?xml version="1.0" encoding="UTF-8"?>
<svg xmlns="http://www.w3.org/2000/svg" width="402.39" height="470.53" xmlns:xlink="http://www.w3.org/1999/xlink" viewBox="0 0 402.39 470.53">
  <defs>
    <radialGradient id="Ikke-navngivet_forløb_306" data-name="Ikke-navngivet forløb 306" cx="184.41" cy="122.25" fx="184.41" fy="122.25" r="98.97" gradientTransform="translate(14.35 15.09) rotate(8.77) scale(1 .65)" gradientUnits="userSpaceOnUse">
      <stop offset=".1" stop-color="#fff"/>
      <stop offset=".54" stop-color="#53bad9"/>
      <stop offset=".86" stop-color="#6bbdcc"/>
      <stop offset=".9" stop-color="#569dbd"/>
      <stop offset=".97" stop-color="#2b5d9e"/>
      <stop offset="1" stop-color="#0a568c"/>
    </radialGradient>
    <linearGradient id="Ikke-navngivet_forløb_187" data-name="Ikke-navngivet forløb 187" x1="5.15" y1="31.39" x2="152.95" y2="31.39" gradientUnits="userSpaceOnUse">
      <stop offset="0" stop-color="#005a97"/>
      <stop offset=".06" stop-color="#53bad9"/>
      <stop offset=".59" stop-color="#6bbdcc"/>
      <stop offset=".69" stop-color="#569dbd"/>
      <stop offset=".88" stop-color="#2b5d9e"/>
      <stop offset="1" stop-color="#0a568c"/>
    </linearGradient>
    <linearGradient id="Ikke-navngivet_forløb_196" data-name="Ikke-navngivet forløb 196" x1="256.84" y1="65.64" x2="399.15" y2="65.64" gradientUnits="userSpaceOnUse">
      <stop offset="0" stop-color="#005a97"/>
      <stop offset=".13" stop-color="#09649e"/>
      <stop offset=".35" stop-color="#53bad9"/>
      <stop offset=".44" stop-color="#54bad8"/>
      <stop offset=".81" stop-color="#6bbdcc"/>
      <stop offset=".87" stop-color="#4d9db8"/>
      <stop offset="1" stop-color="#0a568c"/>
    </linearGradient>
    <radialGradient id="Ikke-navngivet_forløb_37" data-name="Ikke-navngivet forløb 37" cx="137.21" cy="98.71" fx="137.21" fy="98.71" r="20.59" gradientUnits="userSpaceOnUse">
      <stop offset=".78" stop-color="#fff"/>
      <stop offset=".85" stop-color="#6bbdcc"/>
      <stop offset=".87" stop-color="#4d9db8"/>
      <stop offset=".91" stop-color="#0a568c"/>
      <stop offset=".99" stop-color="#1d1d1b"/>
    </radialGradient>
    <radialGradient id="Ikke-navngivet_forløb_320" data-name="Ikke-navngivet forløb 320" cx="138.71" cy="100.34" fx="138.71" fy="100.34" r="9.12" gradientUnits="userSpaceOnUse">
      <stop offset=".1" stop-color="#fff"/>
      <stop offset=".61" stop-color="lime"/>
      <stop offset=".83" stop-color="#009245"/>
      <stop offset=".91" stop-color="#1e733e"/>
      <stop offset=".94" stop-color="#2d663c"/>
    </radialGradient>
    <radialGradient id="Ikke-navngivet_forløb_380" data-name="Ikke-navngivet forløb 380" cx="143.71" cy="95.41" fx="143.71" fy="95.41" r="5.79" gradientUnits="userSpaceOnUse">
      <stop offset=".22" stop-color="#f7f6f6"/>
      <stop offset=".42" stop-color="#f7f6f6"/>
      <stop offset=".65" stop-color="#e6e5e4"/>
      <stop offset=".82" stop-color="#9a9993"/>
    </radialGradient>
    <radialGradient id="Ikke-navngivet_forløb_34" data-name="Ikke-navngivet forløb 34" cx="184.84" cy="103.51" fx="184.84" fy="103.51" r="35.78" gradientUnits="userSpaceOnUse">
      <stop offset=".47" stop-color="#fff"/>
      <stop offset=".49" stop-color="#6bbdcc"/>
      <stop offset=".5" stop-color="#4d9db8"/>
      <stop offset=".52" stop-color="#0a568c"/>
      <stop offset=".54" stop-color="#1d1d1b"/>
    </radialGradient>
    <radialGradient id="Ikke-navngivet_forløb_323" data-name="Ikke-navngivet forløb 323" cx="184.32" cy="106.53" fx="184.32" fy="106.53" r="9.12" gradientUnits="userSpaceOnUse">
      <stop offset=".1" stop-color="#fff"/>
      <stop offset=".33" stop-color="#efffef"/>
      <stop offset=".7" stop-color="lime"/>
      <stop offset=".83" stop-color="#009245"/>
      <stop offset=".91" stop-color="#1e733e"/>
      <stop offset=".94" stop-color="#2d663c"/>
    </radialGradient>
    <radialGradient id="Ikke-navngivet_forløb_370" data-name="Ikke-navngivet forløb 370" cx="185.48" cy="99.6" fx="185.48" fy="99.6" r="5.74" gradientUnits="userSpaceOnUse">
      <stop offset=".38" stop-color="#f7f6f6"/>
      <stop offset=".48" stop-color="#f7f6f6"/>
      <stop offset=".63" stop-color="#e6e5e4"/>
      <stop offset=".81" stop-color="#9a9993"/>
    </radialGradient>
    <radialGradient id="Ikke-navngivet_forløb_26" data-name="Ikke-navngivet forløb 26" cx="231.11" cy="120.79" fx="231.11" fy="120.79" r="45.15" gradientTransform="translate(28.88 -44.84) rotate(11.66)" gradientUnits="userSpaceOnUse">
      <stop offset=".3" stop-color="#fff"/>
      <stop offset=".33" stop-color="#fdfefe"/>
      <stop offset=".34" stop-color="#f6fbfc"/>
      <stop offset=".35" stop-color="#eaf5f7"/>
      <stop offset=".36" stop-color="#d9eef2"/>
      <stop offset=".36" stop-color="#c3e4ea"/>
      <stop offset=".37" stop-color="#a8d8e1"/>
      <stop offset=".37" stop-color="#88cad6"/>
      <stop offset=".38" stop-color="#6bbdcc"/>
      <stop offset=".38" stop-color="#569dbd"/>
      <stop offset=".4" stop-color="#2b5d9e"/>
      <stop offset=".45" stop-color="#1d1d1b"/>
    </radialGradient>
    <radialGradient id="Ikke-navngivet_forløb_329" data-name="Ikke-navngivet forløb 329" cx="228.88" cy="121.7" fx="220.65" fy="121.7" r="9.86" gradientUnits="userSpaceOnUse">
      <stop offset=".21" stop-color="#fff"/>
      <stop offset=".59" stop-color="lime"/>
      <stop offset=".78" stop-color="#009245"/>
      <stop offset=".86" stop-color="#1e733e"/>
      <stop offset=".89" stop-color="#2d663c"/>
    </radialGradient>
    <radialGradient id="Ikke-navngivet_forløb_374" data-name="Ikke-navngivet forløb 374" cx="234.64" cy="116.79" fx="234.64" fy="116.79" r="5.59" gradientUnits="userSpaceOnUse">
      <stop offset=".17" stop-color="#f7f6f6"/>
      <stop offset=".35" stop-color="#f7f6f6"/>
      <stop offset=".55" stop-color="#e6e5e4"/>
      <stop offset=".75" stop-color="#9a9993"/>
    </radialGradient>
    <radialGradient id="Ikke-navngivet_forløb_232" data-name="Ikke-navngivet forløb 232" cx="139.27" cy="306.44" fx="139.27" fy="323.31" r="23.56" gradientUnits="userSpaceOnUse">
      <stop offset=".36" stop-color="#6bbdcc"/>
      <stop offset=".85" stop-color="#184c8c"/>
    </radialGradient>
    <radialGradient id="Ikke-navngivet_forløb_232-2" data-name="Ikke-navngivet forløb 232" cx="272.76" cy="311.38" fx="272.76" fy="329.16" r="24.84" gradientTransform="translate(500.97 74.95) rotate(-164.93) scale(.93 -1)" xlink:href="#Ikke-navngivet_forløb_232"/>
    <radialGradient id="Ikke-navngivet_forløb_150" data-name="Ikke-navngivet forløb 150" cx="85.91" cy="177.12" fx="57.01" fy="224.76" r="84.03" gradientUnits="userSpaceOnUse">
      <stop offset=".33" stop-color="#57c2de"/>
      <stop offset=".46" stop-color="#53bad9"/>
      <stop offset=".75" stop-color="#101e77"/>
    </radialGradient>
    <radialGradient id="Ikke-navngivet_forløb_40" data-name="Ikke-navngivet forløb 40" cx="413.87" cy="220.62" fx="375.23" fy="284.33" r="112.37" gradientTransform="translate(575.73) rotate(-180) scale(.78 -1)" gradientUnits="userSpaceOnUse">
      <stop offset=".15" stop-color="#57c2de"/>
      <stop offset=".46" stop-color="#53bad9"/>
      <stop offset=".75" stop-color="#101e77"/>
    </radialGradient>
    <radialGradient id="Ikke-navngivet_forløb_295" data-name="Ikke-navngivet forløb 295" cx="169.24" cy="231.2" fx="169.24" fy="280.23" r="100.36" gradientUnits="userSpaceOnUse">
      <stop offset="0" stop-color="#fff"/>
      <stop offset=".05" stop-color="#f5f9fc"/>
      <stop offset=".12" stop-color="#dcebf7"/>
      <stop offset=".17" stop-color="#c7dff3"/>
      <stop offset=".22" stop-color="#b8d9ec"/>
      <stop offset=".33" stop-color="#91cbdc"/>
      <stop offset=".41" stop-color="#6bbdcc"/>
      <stop offset=".6" stop-color="#57c2de"/>
      <stop offset=".63" stop-color="#41b3db"/>
      <stop offset=".68" stop-color="#27a2d8"/>
      <stop offset=".71" stop-color="#1e9cd7"/>
      <stop offset=".9" stop-color="#303935"/>
    </radialGradient>
  </defs>
  <g id="ansigt">
    <g id="ansigt-2" data-name="ansigt">
      <path d="M130.87,60.87c.84-.03,7.62-2.49,8.46-2.5,2.05-.03,4.36-1.18,11.57-1.71,7.11-.52,7.89-.84,11.35-.56,4.16.34,22.86.5,39.28,4.02,30.61,6.57,51.07,23.06,57.95,30.91.92,1.05,3.27,2.47,4.37,3.32,5.62,4.36,20.72,18.94,21.78,33.21,1.21,16.39-5.85,29.1-7.3,31.09-5.75,7.89-12.76,11.27-23.26,16.34-11.33,5.47-21.49,8.03-28.45,9.34-4.75,1.56-11.92,3.43-20.8,3.9-7.14.38-13.9.58-23.83-.79-11.82-1.63-14.41-3.22-21.63-4.36-8.06-1.28-12.92-4.38-19.5-7.62,0,0-7.16-3.83-11.46-6.31-.51-.29-.78-.5-1.2-.72-.76-.4-1.38-.55-1.45-.57-.62-.19-22.4-7.84-34.12-28.8-3.25-5.82-2.41-2.64-6.89-13.8-3.68-9.17-2.76-14.73-1.91-19.68,1.95-11.32,6.61-19.27,11.3-23.52,5.93-5.37,4.83-5.23,9.05-7.89,5.83-3.68,4.98-3.68,7.14-5.08.66-.43,2.1-.94,2.78-1.32l3.6-1.5c2-1.08,4.88-2.41,6.28-2.89" style="fill: url(#Ikke-navngivet_forløb_306);"/>
    </g>
    <g id="mund">
      <path d="M107.25,118.04l22.17,12.5c5.34,3.6,11.29,7.25,17.88,10.78,3.62,1.94,7.16,3.69,10.59,5.28,10.75,3.5,19.89,6.01,26.76,7.76,11.98,3.05,17.34,3.85,22.03,4.24,0,0,9.24.79,17.46-.2,2.37-.28,4.89-.71,4.89-.71,2.68-.45,4.39-.85,5.89-1.18,5.69-1.22,6.34-.88,10.85-2.07,3.82-1.01,9.81-2.53,9.52-2.55-.61-.03-15.75,4.27-36.33,4.3-12.48.02-22.17-1.75-28.29-2.89-4.73-.89-16.61-3.32-31.18-8.95-4.77-1.84-8.71-3.59-11.56-4.93" style="fill: #384894;"/>
      <path d="M133.68,155.97l2.14-21.86c2.94,2.08,6.26,4.24,9.97,6.36,3.86,2.2,7.54,4.02,10.95,5.53-7.69,3.32-15.37,6.64-23.06,9.97Z" style="fill: #e6e6e6; stroke: #303935; stroke-miterlimit: 10; stroke-width: .5px;"/>
      <path d="M170.08,150.5l4.27,20.42,18.64-14.55c-3.86-.73-7.94-1.62-12.21-2.73-3.78-.98-7.35-2.04-10.7-3.14Z" style="fill: #f2f2f2; stroke: #303935; stroke-miterlimit: 10; stroke-width: .5px;"/>
      <path d="M216.85,158.87c2.27,4.19,4.47,8.59,6.74,12.78l13.24-15.51c-3.93,1.07-8.45,2-13.49,2.52-2.29.24-4.41.16-6.48.21Z" style="fill: #e6e6e6; stroke: #303935; stroke-miterlimit: 10; stroke-width: .5px;"/>
      <path d="M111.12,116.01c-.73.12-1.7.37-2.73.92-.51.27-.95.56-1.31.84-.24.43-.49.93-.7,1.51-.49,1.32-.63,2.52-.65,3.41.08-.86.28-1.99.79-3.21.23-.55.48-1.02.73-1.43.38-.31.84-.64,1.37-.96.92-.54,1.79-.87,2.5-1.07Z" style="fill: #384894;"/>
      <path d="M254.11,156.09c.41-.61.89-1.49,1.2-2.62.15-.56.24-1.08.28-1.53-.15-.47-.34-1-.62-1.55-.63-1.26-1.4-2.18-2.04-2.81.58.65,1.25,1.57,1.79,2.77.24.54.42,1.05.54,1.52-.03.49-.1,1.05-.24,1.66-.24,1.04-.59,1.9-.93,2.55Z" style="fill: #384894;"/>
    </g>
    <g id="ore">
      <path id="ore_v" d="M152.95,57.01l-12.33-20.89-7.12-6.33-11.39-4.9-35.8-7.12-20.14-13.47S12.89,30.44,5.15,38.84l68.88,13.1,13.25-19.38s16.27,1.03,22.69,1.61c5.82.53,20.69,5.5,26.27,8.33l7.91,15.98" style="fill: url(#Ikke-navngivet_forløb_187);"/>
      <path id="ore_h" d="M256.84,88.75l18.63-19.21,6.5-6.33,10.4-4.9,32.69-7.12,18.38-13.47s48.64,26.14,55.71,34.54l-62.88,13.1-12.09-19.38s-14.86,1.03-20.72,1.61c-5.31.53-18.89,5.5-23.98,8.33l-18.09,17.63" style="fill: url(#Ikke-navngivet_forløb_196);"/>
      <g id="ore_stjerne">
        <path d="M57.09,15.08l3.6,6.63c1.39,2.56,4.31,3.87,7.14,3.21l6.36-1.48-6.81,3.83c-2.35,1.32-3.74,3.87-3.56,6.56l.29,4.61-1.73-4.08c-1.19-2.79-4.03-4.51-7.06-4.26l-5.68.47,5.4-2.49c2.47-1.14,3.85-3.82,3.33-6.5l-1.27-6.5Z" style="fill: #ff0;"/>
        <path d="M344.31,48.94l3.6,6.63c1.39,2.56,4.31,3.87,7.14,3.21l6.36-1.48-6.81,3.83c-2.35,1.32-3.74,3.87-3.56,6.56l.29,4.61-1.73-4.08c-1.19-2.79-4.03-4.51-7.06-4.26l-5.68.47,5.4-2.49c2.47-1.14,3.85-3.82,3.33-6.5l-1.27-6.5Z" style="fill: #ff0;"/>
      </g>
    </g>
    <g id="Har">
      <g>
        <path d="M87.04,99.64l-7.22-1.83,7.22,1.83Z" style="fill: #6bbdcc;"/>
        <path d="M87.04,99.64c-2.43-.51-4.84-1.12-7.25-1.71l.06-.24c2.4.63,4.81,1.24,7.19,1.95,0,0-2.38-.71,0,0ZM87.04,99.64c-2.43-.51-4.84-1.12-7.25-1.71l.06-.24c2.4.63,4.81,1.24,7.19,1.95,0,0-2.38-.71,0,0Z" style="fill: #303935;"/>
      </g>
      <g>
        <path d="M87.36,107.34l-12.67,1.12,12.67-1.12Z" style="fill: #6bbdcc;"/>
        <path d="M87.36,107.34c-4.21.48-8.44.83-12.66,1.25l-.02-.25c4.23-.33,8.45-.73,12.68-1,0,0-4.23.27,0,0ZM87.36,107.34c-4.21.48-8.44.83-12.66,1.25l-.02-.25c4.23-.33,8.45-.73,12.68-1,0,0-4.23.27,0,0Z" style="fill: #303935;"/>
      </g>
      <g>
        <path d="M91.25,115.34l-24.75,6.36,24.75-6.36Z" style="fill: #6bbdcc;"/>
        <path d="M91.25,115.34c-8.22,2.23-16.48,4.32-24.72,6.48l-.06-.24c8.26-2.08,16.51-4.23,24.78-6.24,0,0-8.28,2.02,0,0ZM91.25,115.34c-8.22,2.23-16.48,4.32-24.72,6.48l-.06-.24c8.26-2.08,16.51-4.23,24.78-6.24,0,0-8.28,2.02,0,0Z" style="fill: #303935;"/>
      </g>
      <g>
        <path d="M87.24,108.17l-15.04,18.63,15.04-18.63Z" style="fill: #6bbdcc;"/>
        <path d="M87.24,108.17c-4.93,6.28-9.96,12.47-14.94,18.71l-.19-.16c5.05-6.18,10.04-12.41,15.14-18.55,0,0-5.1,6.14,0,0ZM87.24,108.17c-4.93,6.28-9.96,12.47-14.94,18.71l-.19-.16c5.05-6.18,10.04-12.41,15.14-18.55,0,0-5.1,6.14,0,0Z" style="fill: #303935;"/>
      </g>
      <g>
        <path d="M84.8,103.39l-9.88,9.7,9.88-9.7Z" style="fill: #6bbdcc;"/>
        <path d="M84.8,103.39c-3.03,3.4-6.39,6.74-9.62,9.96,0,0-.52-.53-.52-.53,3.28-3.17,6.69-6.46,10.15-9.43h0ZM84.8,103.39c-3.03,3.4-6.39,6.74-9.62,9.96,0,0-.52-.53-.52-.53,3.28-3.17,6.69-6.46,10.15-9.43h0Z" style="fill: #303935;"/>
      </g>
      <g>
        <path d="M89.2,96.17l-8.8,6.17,8.8-6.17Z" style="fill: #6bbdcc;"/>
        <path d="M89.2,96.17c-2.87,2.14-5.82,4.18-8.73,6.27l-.14-.2c2.96-2.02,5.88-4.1,8.88-6.06,0,0-3,1.97,0,0ZM89.2,96.17c-2.87,2.14-5.82,4.18-8.73,6.27l-.14-.2c2.96-2.02,5.88-4.1,8.88-6.06,0,0-3,1.97,0,0Z" style="fill: #303935;"/>
      </g>
      <g>
        <path d="M98.21,83.68l-8.27-5.7,8.27,5.7Z" style="fill: #6bbdcc;"/>
        <path d="M98.21,83.68c-2.82-1.81-5.56-3.73-8.34-5.6l.14-.21c2.73,1.94,5.51,3.81,8.2,5.8,0,0-2.7-1.99,0,0ZM98.21,83.68c-2.82-1.81-5.56-3.73-8.34-5.6l.14-.21c2.73,1.94,5.51,3.81,8.2,5.8,0,0-2.7-1.99,0,0Z" style="fill: #303935;"/>
      </g>
      <g>
        <path d="M93.88,88.44l-7.23-7.15,7.23,7.15Z" style="fill: #6bbdcc;"/>
        <path d="M93.88,88.44c-2.61-2.18-5.07-4.51-7.49-6.89,0,0,.53-.53.53-.53,2.4,2.4,4.77,4.83,6.97,7.42h0ZM93.88,88.44c-2.61-2.17-5.07-4.51-7.49-6.89,0,0,.53-.53.53-.53,2.4,2.4,4.76,4.83,6.97,7.42h0Z" style="fill: #303935;"/>
      </g>
      <g>
        <path d="M98.83,89.39l-24.24-8.12,24.24,8.12Z" style="fill: #6bbdcc;"/>
        <path d="M98.83,89.39c-8.11-2.6-16.18-5.34-24.27-8l.08-.24c8.06,2.75,16.15,5.43,24.2,8.23,0,0-8.04-2.81,0,0ZM98.83,89.39c-8.11-2.6-16.18-5.33-24.27-8l.08-.24c8.06,2.75,16.15,5.43,24.2,8.23,0,0-8.04-2.81,0,0Z" style="fill: #303935;"/>
      </g>
      <g>
        <path d="M99.06,84.5l-22.75,7.46,22.75-7.46Z" style="fill: #6bbdcc;"/>
        <path d="M99.06,84.5c-7.55,2.59-15.14,5.05-22.71,7.58l-.08-.24c7.6-2.44,15.17-4.96,22.79-7.34,0,0-7.62,2.38,0,0ZM99.06,84.5c-7.55,2.59-15.14,5.05-22.71,7.58l-.08-.24c7.6-2.44,15.17-4.96,22.79-7.34,0,0-7.62,2.38,0,0Z" style="fill: #303935;"/>
      </g>
      <g>
        <path d="M87.71,123.95l-9.35,2.43,9.35-2.43Z" style="fill: #6bbdcc;"/>
        <path d="M87.71,123.95c-3.09.91-6.21,1.7-9.31,2.55l-.06-.24c3.13-.77,6.23-1.6,9.38-2.31,0,0-3.14.71,0,0ZM87.71,123.95c-3.09.91-6.21,1.7-9.31,2.55l-.06-.24c3.13-.77,6.23-1.6,9.38-2.31,0,0-3.14.71,0,0Z" style="fill: #303935;"/>
      </g>
      <g>
        <path d="M91.87,131.2l-10.64,6.97,10.64-6.97Z" style="fill: #6bbdcc;"/>
        <path d="M91.87,131.2c-3.49,2.41-7.05,4.71-10.57,7.07l-.14-.21c3.57-2.29,7.1-4.63,10.71-6.87,0,0-3.61,2.23,0,0ZM91.87,131.2c-3.49,2.41-7.05,4.71-10.57,7.07l-.14-.21c3.57-2.29,7.1-4.63,10.71-6.87,0,0-3.61,2.23,0,0Z" style="fill: #303935;"/>
      </g>
      <g>
        <path d="M97.11,133.35l-18.82,17.3,18.82-17.3Z" style="fill: #6bbdcc;"/>
        <path d="M97.11,133.35c-6.2,5.84-12.49,11.59-18.73,17.39l-.17-.18c6.3-5.73,12.56-11.52,18.9-17.2,0,0-6.34,5.69,0,0ZM97.11,133.35c-6.2,5.84-12.49,11.59-18.73,17.39l-.17-.18c6.3-5.73,12.56-11.52,18.9-17.2,0,0-6.34,5.69,0,0Z" style="fill: #303935;"/>
      </g>
      <g>
        <path d="M95.27,132.26l-4.46,23.52,4.46-23.52Z" style="fill: #6bbdcc;"/>
        <path d="M95.27,132.26c-1.38,7.86-2.9,15.7-4.34,23.55l-.25-.05c1.53-7.83,2.99-15.68,4.58-23.5,0,0-1.59,7.82,0,0ZM95.27,132.26c-1.38,7.86-2.9,15.7-4.34,23.55l-.25-.05c1.53-7.83,2.99-15.68,4.58-23.5,0,0-1.59,7.82,0,0Z" style="fill: #303935;"/>
      </g>
      <g>
        <path d="M89.13,126.79l-4.14,13.21,4.14-13.21Z" style="fill: #6bbdcc;"/>
        <path d="M89.13,126.79c-1.28,4.44-2.68,8.83-4.02,13.25l-.24-.07c1.42-4.39,2.77-8.8,4.25-13.18,0,0-1.48,4.37,0,0ZM89.13,126.79c-1.28,4.44-2.68,8.83-4.02,13.25l-.24-.07c1.42-4.39,2.77-8.8,4.25-13.18,0,0-1.48,4.37,0,0Z" style="fill: #303935;"/>
      </g>
      <g>
        <path d="M85.46,118.03l-6.02,10.74,6.02-10.74Z" style="fill: #6bbdcc;"/>
        <path d="M85.46,118.03c-1.75,3.72-3.7,7.33-5.69,10.92,0,0-.65-.37-.65-.37,2.02-3.58,4.09-7.12,6.35-10.55h0ZM85.46,118.03c-1.75,3.72-3.7,7.33-5.69,10.92,0,0-.65-.37-.65-.37,2.02-3.57,4.09-7.12,6.35-10.55h0Z" style="fill: #303935;"/>
      </g>
      <g>
        <path d="M106.91,140.48l-8.31,9.63,8.31-9.63Z" style="fill: #6bbdcc;"/>
        <path d="M106.91,140.48c-2.5,3.35-5.32,6.68-8.03,9.87,0,0-.57-.49-.57-.49,2.77-3.15,5.64-6.42,8.59-9.38h0ZM106.91,140.48c-2.5,3.36-5.32,6.68-8.03,9.87,0,0-.57-.49-.57-.49,2.77-3.15,5.64-6.42,8.59-9.38h0Z" style="fill: #303935;"/>
      </g>
      <g>
        <path d="M118.31,145.73l-20.61,15.12,20.61-15.12Z" style="fill: #6bbdcc;"/>
        <path d="M118.31,145.73c-6.81,5.13-13.69,10.14-20.53,15.22l-.15-.2c6.89-5,13.75-10.07,20.68-15.02,0,0-6.93,4.95,0,0ZM118.31,145.73c-6.8,5.13-13.69,10.14-20.53,15.22l-.15-.2c6.9-5,13.75-10.07,20.68-15.02,0,0-6.93,4.95,0,0Z" style="fill: #303935;"/>
      </g>
      <g>
        <path d="M112.92,141.66l-7.6,22.7,7.6-22.7Z" style="fill: #6bbdcc;"/>
        <path d="M112.92,141.66c-2.43,7.6-4.99,15.16-7.48,22.74l-.24-.08c2.58-7.55,5.08-15.13,7.72-22.66,0,0-2.64,7.53,0,0ZM112.92,141.66c-2.43,7.6-4.99,15.16-7.48,22.74l-.24-.08c2.58-7.55,5.09-15.13,7.72-22.66,0,0-2.64,7.53,0,0Z" style="fill: #303935;"/>
      </g>
      <g>
        <path d="M101.01,140.68l-.34,13.84.34-13.84Z" style="fill: #6bbdcc;"/>
        <path d="M101.01,140.68c.19,4.55.11,9.29.03,13.85,0,0-.75-.02-.75-.02.15-4.56.3-9.3.71-13.83h0ZM101.01,140.68c.19,4.55.11,9.29.03,13.85,0,0-.75-.02-.75-.02.15-4.56.3-9.3.71-13.83h0Z" style="fill: #303935;"/>
      </g>
      <g>
        <path d="M97.08,140.46l-2.02,10.56,2.02-10.56Z" style="fill: #6bbdcc;"/>
        <path d="M97.08,140.46c-.39,3.57-.99,7.1-1.66,10.63,0,0-.74-.14-.74-.14.69-3.52,1.43-7.03,2.39-10.49h0ZM97.08,140.46c-.39,3.57-.99,7.1-1.66,10.63,0,0-.74-.14-.74-.14.69-3.52,1.43-7.03,2.39-10.49h0Z" style="fill: #303935;"/>
      </g>
      <path d="M279.39,131.79l7.21,1.87-7.21-1.87Z" style="fill: #e1e2e2; stroke: #303935; stroke-miterlimit: 10; stroke-width: .5px;"/>
      <path d="M279.42,125.13l12.68-1.05-12.68,1.05Z" style="fill: #e1e2e2; stroke: #303935; stroke-miterlimit: 10; stroke-width: .5px;"/>
      <path d="M277,116.18l24.79-6.23-24.79,6.23Z" style="fill: #e1e2e2; stroke: #303935; stroke-miterlimit: 10; stroke-width: .5px;"/>
      <path d="M280.79,127.95l9.94-9.64-9.94,9.64Z" style="fill: #e1e2e2; stroke: #303935; stroke-miterlimit: 10; stroke-width: .5px;"/>
      <path d="M279.07,135.46l8.84-6.12-8.84,6.12Z" style="fill: #e1e2e2; stroke: #303935; stroke-miterlimit: 10; stroke-width: .5px;"/>
      <g>
        <path d="M119.7,71.35l-5.77-11.34,5.77,11.34Z" style="fill: #6bbdcc;"/>
        <path d="M119.7,71.35c-2.16-3.58-4.17-7.45-6.1-11.17,0,0,.67-.34.67-.34,1.87,3.75,3.81,7.65,5.44,11.5h0ZM119.7,71.35c-2.16-3.58-4.17-7.45-6.1-11.17,0,0,.67-.34.67-.34,1.87,3.75,3.81,7.65,5.44,11.5h0Z" style="fill: #303935;"/>
      </g>
      <g>
        <path d="M112.5,73.53l-10.87-14.8,10.87,14.8Z" style="fill: #6bbdcc;"/>
        <path d="M112.5,73.53c-3.81-4.68-7.56-9.73-11.17-14.58,0,0,.6-.44.6-.44,3.55,4.9,7.24,9.98,10.57,15.03h0ZM112.5,73.53c-3.81-4.68-7.56-9.73-11.17-14.58,0,0,.6-.44.6-.44,3.55,4.9,7.24,9.99,10.57,15.03h0Z" style="fill: #303935;"/>
      </g>
      <g>
        <path d="M123.04,68.27l-22.9-7,22.9,7Z" style="fill: #6bbdcc;"/>
        <path d="M123.04,68.27c-7.66-2.23-15.29-4.59-22.93-6.88l.07-.24c7.62,2.38,15.26,4.68,22.86,7.12,0,0-7.6-2.44,0,0ZM123.04,68.27c-7.66-2.23-15.29-4.59-22.93-6.88l.07-.24c7.62,2.38,15.26,4.68,22.86,7.12,0,0-7.6-2.44,0,0Z" style="fill: #303935;"/>
      </g>
      <g>
        <path d="M126.04,68.83l-2.59-11.2,2.59,11.2Z" style="fill: #6bbdcc;"/>
        <path d="M126.04,68.83c-1.15-3.66-2.08-7.38-2.95-11.11,0,0,.73-.17.73-.17.85,3.74,1.65,7.49,2.22,11.28h0ZM126.04,68.83c-1.15-3.66-2.08-7.38-2.95-11.11,0,0,.73-.17.73-.17.85,3.74,1.64,7.49,2.22,11.28h0Z" style="fill: #303935;"/>
      </g>
      <g>
        <path d="M125.97,65.82l-9.01-5.87,9.01,5.87Z" style="fill: #6bbdcc;"/>
        <path d="M125.97,65.82c-3.16-1.71-6.2-3.61-9.21-5.55,0,0,.41-.63.41-.63,3,1.97,5.96,3.98,8.8,6.18h0ZM125.97,65.82c-3.16-1.71-6.2-3.61-9.21-5.55,0,0,.41-.63.41-.63,3,1.97,5.96,3.98,8.8,6.18h0Z" style="fill: #303935;"/>
      </g>
      <g>
        <path d="M109,73.4l-9.5-8.45,9.5,8.45Z" style="fill: #6bbdcc;"/>
        <path d="M109,73.4c-3.24-2.74-6.39-5.58-9.59-8.36l.17-.19c3.14,2.85,6.32,5.65,9.42,8.55,0,0-3.1-2.9,0,0ZM109,73.4c-3.24-2.74-6.39-5.58-9.59-8.36l.17-.19c3.14,2.85,6.32,5.65,9.42,8.55,0,0-3.1-2.9,0,0Z" style="fill: #303935;"/>
      </g>
      <g>
        <path d="M103.14,80.39l-.51-19.32.51,19.32Z" style="fill: #6bbdcc;"/>
        <path d="M103.14,80.39c-.47-6.33-.68-12.95-.89-19.31,0,0,.75-.02.75-.02.13,6.37.27,12.98.14,19.33h0ZM103.14,80.39c-.47-6.33-.68-12.95-.89-19.31,0,0,.75-.02.75-.02.13,6.37.27,12.98.14,19.33h0Z" style="fill: #303935;"/>
      </g>
      <g>
        <path d="M104.09,82.15l-11.23-17.53,11.23,17.53Z" style="fill: #6bbdcc;"/>
        <path d="M104.09,82.15c-3.83-5.79-7.56-11.65-11.34-17.47l.21-.13c3.71,5.87,7.47,11.7,11.13,17.6,0,0-3.65-5.9,0,0ZM104.09,82.15c-3.83-5.79-7.56-11.65-11.34-17.47l.21-.13c3.71,5.87,7.47,11.7,11.13,17.6,0,0-3.65-5.9,0,0Z" style="fill: #303935;"/>
      </g>
      <g>
        <path d="M114.03,70.9l-8.93-10.54,8.93,10.54Z" style="fill: #6bbdcc;"/>
        <path d="M114.03,70.9c-3.06-3.44-6.01-6.97-9.02-10.46l.19-.16c2.94,3.54,5.94,7.04,8.83,10.62,0,0-2.89-3.58,0,0ZM114.03,70.9c-3.06-3.44-6.01-6.97-9.02-10.46l.19-.16c2.94,3.54,5.94,7.04,8.83,10.62,0,0-2.89-3.58,0,0Z" style="fill: #303935;"/>
      </g>
      <g>
        <path d="M109.81,73.5l-10.52-2.18,10.52,2.18Z" style="fill: #6bbdcc;"/>
        <path d="M109.81,73.5c-3.53-.62-7.03-1.38-10.55-2.06l.05-.24c3.5.77,7.01,1.47,10.5,2.3,0,0-3.49-.83,0,0ZM109.81,73.5c-3.53-.62-7.03-1.38-10.55-2.06l.05-.24c3.5.77,7.01,1.47,10.5,2.3,0,0-3.49-.83,0,0Z" style="fill: #303935;"/>
      </g>
      <g>
        <path d="M191.63,61.08l3.48-6.59-3.48,6.59Z" style="fill: #6bbdcc;"/>
        <path d="M191.61,61.06l3.33-6.67.35.19c-1.07,2.2-2.24,4.59-3.68,6.48h0ZM191.61,61.06c.94-2.31,2.05-4.53,3.32-6.67,0,0,.35.19.35.19-.04-.01-3.61,6.63-3.68,6.48h0Z" style="fill: #303935;"/>
      </g>
      <g>
        <path d="M175.17,64.37l-.37-25.56.37,25.56Z" style="fill: #6bbdcc;"/>
        <path d="M175.14,64.37l-.54-25.55h.4c.19,8.48.4,17.16.14,25.55h0ZM175.14,64.37c-.35-8.51-.53-17.03-.54-25.55,0,0,.4,0,.4,0-.05.01.28,25.65.14,25.56h0Z" style="fill: #303935;"/>
      </g>
      <g>
        <path d="M178.34,63.8l-14.57-19,14.57,19Z" style="fill: #6bbdcc;"/>
        <path d="M178.32,63.81l-14.71-18.89s.32-.24.32-.24c4.89,6.27,9.91,12.68,14.39,19.13h0ZM178.32,63.81c-5.04-6.19-9.94-12.49-14.71-18.89,0,0,.32-.24.32-.24-.03.04,14.56,19.12,14.39,19.13h0Z" style="fill: #303935;"/>
      </g>
      <g>
        <path d="M188.49,65.03l-7.1-11.89,7.1,11.89Z" style="fill: #6bbdcc;"/>
        <path d="M188.47,65.04l-7.25-11.8.34-.21c2.42,3.89,4.94,7.96,6.91,12h0ZM188.47,65.04c-2.58-3.84-4.99-7.77-7.25-11.8,0,0,.34-.21.34-.21-.03.03,7.07,12.01,6.91,12h0Z" style="fill: #303935;"/>
      </g>
      <g>
        <path d="M94.61,136.48l-12.71,6.4,12.71-6.4Z" style="fill: #6bbdcc;"/>
        <path d="M94.61,136.49l-12.67,6.48-.09-.18c4.21-2.15,8.5-4.36,12.76-6.3h0ZM94.61,136.49c-4.19,2.24-8.41,4.4-12.67,6.48,0,0-.09-.18-.09-.18.01.02,12.77-6.39,12.76-6.3h0Z" style="fill: #303935;"/>
      </g>
      <g>
        <path d="M143.34,61.74l3.59-12.2-3.59,12.2Z" style="fill: #6bbdcc;"/>
        <path d="M143.33,61.74l3.51-12.23.19.06c-1.16,4.06-2.34,8.22-3.7,12.17h0ZM143.33,61.74c1.09-4.1,2.25-8.17,3.51-12.23,0,0,.19.06.19.06-.02,0-3.64,12.23-3.7,12.17h0Z" style="fill: #303935;"/>
      </g>
      <g>
        <path d="M125.72,69.73l3.13-25.37-3.13,25.37Z" style="fill: #6bbdcc;"/>
        <path d="M125.69,69.73l2.87-25.4.6.07c-.34,3.67-1.02,8.98-1.49,12.69-.59,3.67-1.14,9.19-1.97,12.63h0ZM125.69,69.73c.66-8.22,1.67-17.24,2.87-25.4,0,0,.6.07.6.07-.07.01-3.28,25.48-3.46,25.32h0Z" style="fill: #303935;"/>
      </g>
      <g>
        <path d="M133.21,68.03l-11.84-20.81,11.84,20.81Z" style="fill: #6bbdcc;"/>
        <path d="M133.17,68.05l-12.07-20.68s.52-.3.52-.3c1.81,2.94,4.26,7.31,5.98,10.37,1.6,3.09,4.29,7.56,5.56,10.61h0ZM133.17,68.05c-2.98-4.66-6.44-10.6-9.19-15.43-.98-1.74-1.94-3.49-2.88-5.25,0,0,.52-.3.52-.3-.05.05,11.79,20.99,11.54,20.98h0Z" style="fill: #303935;"/>
      </g>
      <g>
        <path d="M146.14,61.72l-5.41-12.75,5.41,12.75Z" style="fill: #6bbdcc;"/>
        <path d="M146.11,61.73c-1.9-4.21-3.79-8.42-5.65-12.64l.55-.23c1.89,4.15,3.9,8.59,5.1,12.88h0ZM146.11,61.73c-2.14-4.1-4.02-8.32-5.65-12.64,0,0,.55-.23.55-.23,1.65,4.26,3.67,8.68,5.1,12.88h0Z" style="fill: #303935;"/>
      </g>
      <g>
        <path d="M204.02,64.49l-2.52-10.45,2.52,10.45Z" style="fill: #6bbdcc;"/>
        <path d="M203.99,64.5c-.94-3.46-1.87-6.92-2.77-10.39,0,0,.58-.14.58-.14.95,3.41,1.96,7.11,2.19,10.53h0ZM203.99,64.5c-1.19-3.39-2.12-6.86-2.77-10.39,0,0,.58-.14.58-.14.69,3.47,1.71,7.16,2.19,10.53h0Z" style="fill: #303935;"/>
      </g>
      <g>
        <path d="M115.49,155.83l-5.53,4.99,5.53-4.99Z" style="fill: #6bbdcc;"/>
        <path d="M115.5,155.85l-5.42,5.12-.27-.3c1.77-1.7,3.69-3.53,5.68-4.82h0ZM115.5,155.85c-1.68,1.84-3.48,3.55-5.42,5.12,0,0-.27-.3-.27-.3.04.02,5.67-4.98,5.68-4.82h0Z" style="fill: #303935;"/>
      </g>
      <g>
        <path d="M98.03,144.49l-12.19,3.63,12.19-3.63Z" style="fill: #6bbdcc;"/>
        <path d="M98.04,144.52l-12.14,3.8-.11-.38c4.01-1.28,8.21-2.61,12.25-3.42h0ZM98.04,144.52c-3.99,1.44-8.04,2.71-12.14,3.8,0,0-.11-.38-.11-.38.02.04,12.3-3.58,12.25-3.42h0Z" style="fill: #303935;"/>
      </g>
      <g>
        <path d="M109.7,145.42l-22.98,11.19,22.98-11.19Z" style="fill: #6bbdcc;"/>
        <path d="M109.71,145.44l-22.9,11.35-.18-.36c7.6-3.77,15.37-7.65,23.08-10.99h0ZM109.71,145.44c-7.56,3.94-15.19,7.72-22.9,11.35,0,0-.18-.36-.18-.36.03.04,23.1-11.15,23.08-10.99h0Z" style="fill: #303935;"/>
      </g>
      <g>
        <path d="M128.88,63.65l-16.08-8.94,16.08,8.94Z" style="fill: #6bbdcc;"/>
        <path d="M128.87,63.67l-16.16-8.78.19-.35c5.37,2.89,10.91,5.88,15.97,9.13h0ZM128.87,63.67c-5.48-2.76-10.87-5.69-16.16-8.78,0,0,.19-.35.19-.35,0,.05,16.12,9.05,15.97,9.13h0Z" style="fill: #303935;"/>
      </g>
      <g>
        <path d="M97.17,140.41l-7.74,11.48,7.74-11.48Z" style="fill: #6bbdcc;"/>
        <path d="M97.19,140.43l-7.6,11.58-.33-.22c2.5-3.84,5.1-7.85,7.93-11.35h0ZM97.19,140.43c-2.38,3.96-4.91,7.82-7.6,11.58,0,0-.33-.22-.33-.22.04.02,7.87-11.51,7.93-11.35h0Z" style="fill: #303935;"/>
      </g>
      <g>
        <path d="M107.91,151.42l.24,10.75-.24-10.75Z" style="fill: #6bbdcc;"/>
        <path d="M107.93,151.42l.42,10.74h-.4c-.16-3.54-.32-7.29-.02-10.74h0ZM107.93,151.42c.32,3.57.46,7.16.42,10.74,0,0-.4,0-.4,0,.04-.01-.15-10.84-.02-10.75h0Z" style="fill: #303935;"/>
      </g>
      <g>
        <path d="M90.28,126.99l-10.64,6.97,10.64-6.97Z" style="fill: #6bbdcc;"/>
        <path d="M90.29,127l-10.59,7.04-.11-.17c3.51-2.34,7.11-4.75,10.7-6.88h0ZM90.29,127c-3.48,2.42-7.01,4.77-10.59,7.04,0,0-.11-.17-.11-.17.02.02,10.7-6.96,10.7-6.88h0Z" style="fill: #303935;"/>
      </g>
      <g>
        <path d="M100.21,95.26l-25.04-5.11,25.04,5.11Z" style="fill: #6bbdcc;"/>
        <path d="M100.21,95.27l-25.06-5.03s.04-.2.04-.2c8.34,1.67,16.77,3.35,25.02,5.22h0ZM100.21,95.27c-8.37-1.59-16.72-3.27-25.06-5.03,0,0,.04-.2.04-.2,0,.02,25.08,5.16,25.02,5.22h0Z" style="fill: #303935;"/>
      </g>
      <g>
        <path d="M158.2,64.8l-3.34-23.71,3.34,23.71Z" style="fill: #6bbdcc;"/>
        <path d="M158.17,64.8l-3.52-23.68s.4-.06.4-.06c1.17,7.86,2.39,15.91,3.12,23.74h0ZM158.17,64.8c-1.34-7.87-2.51-15.76-3.52-23.68,0,0,.4-.06.4-.06-.05.02,3.27,23.81,3.12,23.74h0Z" style="fill: #303935;"/>
      </g>
      <g>
        <path d="M96.69,86.59l-5.51-11.48,5.51,11.48Z" style="fill: #6bbdcc;"/>
        <path d="M96.68,86.6l-5.59-11.44.18-.09c1.86,3.8,3.77,7.68,5.41,11.53h0ZM96.68,86.6c-1.94-3.78-3.81-7.59-5.59-11.44,0,0,.18-.09.18-.09-.02.02,5.5,11.54,5.41,11.53h0Z" style="fill: #303935;"/>
      </g>
      <g>
        <path d="M106.65,148.43l-9.43,5.17,9.43-5.17Z" style="fill: #6bbdcc;"/>
        <path d="M106.67,148.46c-3.09,1.82-6.19,3.62-9.3,5.4l-.29-.53c3.04-1.8,6.35-3.75,9.59-4.87h0ZM106.67,148.46c-2.96,2.04-6.06,3.84-9.3,5.4,0,0-.29-.53-.29-.53,3.16-1.57,6.46-3.52,9.59-4.87h0Z" style="fill: #303935;"/>
      </g>
      <g>
        <path d="M88.1,116.56l-10.64,6.97,10.64-6.97Z" style="fill: #6bbdcc;"/>
        <path d="M88.13,116.6c-3.49,2.41-6.99,4.81-10.49,7.19l-.33-.5c3.44-2.4,7.13-4.96,10.82-6.69h0ZM88.13,116.6c-3.34,2.63-6.84,5.02-10.49,7.19,0,0-.33-.5-.33-.5,3.58-2.18,7.26-4.74,10.82-6.69h0Z" style="fill: #303935;"/>
      </g>
      <g>
        <path d="M89.03,111.82l-25.43,2.53,25.43-2.53Z" style="fill: #6bbdcc;"/>
        <path d="M89.03,111.83l-25.42,2.62s-.02-.2-.02-.2c8.46-.87,17.01-1.77,25.44-2.42h0ZM89.03,111.83c-8.47.96-16.94,1.83-25.42,2.62,0,0-.02-.2-.02-.2,0,.02,25.48-2.5,25.44-2.42h0Z" style="fill: #303935;"/>
      </g>
      <g>
        <path d="M137.69,63.56l3.23-23.72-3.23,23.72Z" style="fill: #6bbdcc;"/>
        <path d="M137.66,63.56l3.05-23.75s.4.05.4.05c-1.01,7.88-2.02,15.97-3.45,23.69h0ZM137.66,63.56c.85-7.94,1.87-15.85,3.05-23.75,0,0,.4.05.4.05-.05,0-3.32,23.8-3.45,23.69h0Z" style="fill: #303935;"/>
      </g>
      <g>
        <path d="M86.77,102.92l-13.84-.4,13.84.4Z" style="fill: #6bbdcc;"/>
        <path d="M86.77,102.93l-13.84-.31s0-.2,0-.2c4.6.1,9.3.19,13.84.51h0ZM86.77,102.93c-4.62-.02-9.23-.12-13.84-.31,0,0,0-.2,0-.2,0,.02,13.89.44,13.84.51h0Z" style="fill: #303935;"/>
      </g>
      <g>
        <path d="M112.65,154.52l-4.98,5.54,4.98-5.54Z" style="fill: #6bbdcc;"/>
        <path d="M112.65,154.52c-1.58,1.92-3.24,3.77-4.89,5.62l-.19-.17c1.67-1.84,3.34-3.68,5.08-5.46,0,0-1.74,1.78,0,0ZM112.65,154.52c-1.58,1.92-3.24,3.77-4.89,5.62l-.19-.17c1.67-1.84,3.34-3.68,5.08-5.46,0,0-1.74,1.78,0,0Z" style="fill: #303935;"/>
      </g>
      <g>
        <path d="M119.98,154.99l-4.9,11.74,4.9-11.74Z" style="fill: #6bbdcc;"/>
        <path d="M119.98,154.99c-1.54,3.95-3.19,7.85-4.79,11.78l-.23-.1c1.67-3.9,3.28-7.82,5.02-11.69,0,0-1.73,3.87,0,0ZM119.98,154.99c-1.53,3.95-3.19,7.86-4.79,11.78l-.23-.1c1.68-3.89,3.28-7.82,5.02-11.69,0,0-1.73,3.87,0,0Z" style="fill: #303935;"/>
      </g>
      <path d="M104.07,76.87l-12.9-13.66,12.9,13.66Z" style="fill: #6bbdcc; stroke: #303935; stroke-miterlimit: 10; stroke-width: .25px;"/>
      <path d="M108.57,149.29l-19.64,13.7,19.64-13.7Z" style="fill: #6bbdcc; stroke: #303935; stroke-miterlimit: 10; stroke-width: .25px;"/>
      <g>
        <path d="M115.54,154.99l3.98,13.26-3.98-13.26Z" style="fill: #6bbdcc;"/>
        <path d="M115.54,154.99c1.43,4.39,2.73,8.82,4.1,13.22l-.24.07c-1.29-4.43-2.64-8.85-3.86-13.3,0,0,1.22,4.45,0,0ZM115.54,154.99c1.43,4.39,2.73,8.82,4.1,13.22l-.24.07c-1.29-4.43-2.64-8.85-3.86-13.3,0,0,1.23,4.45,0,0Z" style="fill: #303935;"/>
      </g>
      <g>
        <path d="M115.08,153.74l-2.43,10.47,2.43-10.47Z" style="fill: #6bbdcc;"/>
        <path d="M115.08,153.74c-.71,3.51-1.54,7-2.31,10.5l-.24-.06c.85-3.48,1.64-6.98,2.55-10.44,0,0-.92,3.47,0,0ZM115.08,153.74c-.71,3.51-1.54,7-2.31,10.5l-.24-.06c.85-3.48,1.64-6.98,2.55-10.44,0,0-.91,3.47,0,0Z" style="fill: #303935;"/>
      </g>
      <g>
        <path d="M161.37,61.52l3.13-25.37-3.13,25.37Z" style="fill: #6bbdcc;"/>
        <path d="M161.35,61.52l2.96-25.39.4.05c-.98,8.43-1.96,17.06-3.35,25.34h0ZM161.35,61.52c.82-8.48,1.8-16.94,2.96-25.39,0,0,.4.05.4.05-.05,0-3.22,25.45-3.35,25.34h0Z" style="fill: #303935;"/>
      </g>
      <g>
        <path d="M148.68,64.18l1.09-23.92-1.09,23.92Z" style="fill: #6bbdcc;"/>
        <path d="M148.67,64.18l1.01-23.92h.2c-.33,7.97-.66,16.02-1.21,23.92h0ZM148.67,64.18c.25-7.98.58-15.95,1.01-23.92,0,0,.2,0,.2,0-.02,0-1.14,23.96-1.21,23.91h0Z" style="fill: #303935;"/>
      </g>
      <g>
        <path d="M164.58,61.29l-5.41-12.75,5.41,12.75Z" style="fill: #6bbdcc;"/>
        <path d="M164.54,61.3c-1.9-4.21-3.79-8.42-5.65-12.64l.55-.23c1.89,4.15,3.9,8.59,5.1,12.88h0ZM164.54,61.3c-2.14-4.1-4.02-8.32-5.65-12.64,0,0,.55-.23.55-.23,1.65,4.26,3.67,8.68,5.1,12.88h0Z" style="fill: #303935;"/>
      </g>
      <g>
        <path d="M135.6,64.94l-5.4-13.46,5.4,13.46Z" style="fill: #6bbdcc;"/>
        <path d="M135.59,64.95l-5.49-13.43.19-.07c1.82,4.46,3.7,9.01,5.3,13.5h0ZM135.59,64.95c-1.91-4.44-3.74-8.92-5.49-13.43,0,0,.19-.07.19-.07-.02.01,5.38,13.52,5.3,13.5h0Z" style="fill: #303935;"/>
      </g>
      <g>
        <path d="M181.19,64.45l3.13-25.37-3.13,25.37Z" style="fill: #6bbdcc;"/>
        <path d="M181.17,64.45l3.04-25.38s.2.02.2.02c-1.01,8.44-2.02,16.98-3.24,25.35h0ZM181.17,64.45c.93-8.47,1.94-16.93,3.04-25.38,0,0,.2.02.2.02-.02,0-3.18,25.41-3.24,25.35h0Z" style="fill: #303935;"/>
      </g>
      <g>
        <path d="M184.41,64.31l-11.84-20.81,11.84,20.81Z" style="fill: #6bbdcc;"/>
        <path d="M184.39,64.33l-11.99-20.72.35-.2c3.98,6.88,8.09,13.91,11.64,20.92h0ZM184.39,64.33c-4.14-6.82-8.14-13.73-11.99-20.72,0,0,.35-.2.35-.2-.04.03,11.81,20.93,11.64,20.92h0Z" style="fill: #303935;"/>
      </g>
      <g>
        <path d="M189.28,62.53l-5.41-12.75,5.41,12.75Z" style="fill: #6bbdcc;"/>
        <path d="M189.27,62.54l-5.49-12.71.18-.08c1.83,4.22,3.7,8.53,5.31,12.79h0ZM189.27,62.54c-1.91-4.2-3.74-8.44-5.49-12.71,0,0,.18-.08.18-.08-.02.01,5.39,12.81,5.31,12.79h0Z" style="fill: #303935;"/>
      </g>
      <g>
        <path d="M140.41,61.52l-7.31-8.6,7.31,8.6Z" style="fill: #6bbdcc;"/>
        <path d="M140.4,61.53l-7.38-8.54.15-.13c2.45,2.83,4.97,5.73,7.23,8.67h0ZM140.4,61.53c-2.52-2.79-4.98-5.64-7.38-8.54,0,0,.15-.13.15-.13-.01.02,7.31,8.66,7.23,8.67h0Z" style="fill: #303935;"/>
      </g>
      <g>
        <path d="M219.3,69.75l4.18-6.17-4.18,6.17Z" style="fill: #6bbdcc;"/>
        <path d="M219.29,69.74l4.11-6.21.17.11c-1.35,2.06-2.76,4.21-4.28,6.1h0ZM219.29,69.74c1.29-2.12,2.66-4.19,4.11-6.21l.17.11s-4.25,6.18-4.28,6.1h0Z" style="fill: #303935;"/>
      </g>
      <g>
        <path d="M213.04,67.48l3.26-12.29-3.26,12.29Z" style="fill: #6bbdcc;"/>
        <path d="M213,67.47c.98-4.13,1.99-8.25,3.01-12.36,0,0,.58.15.58.15-.96,4.08-2,8.45-3.59,12.21h0ZM213,67.47c.73-4.19,1.74-8.31,3.01-12.36,0,0,.58.15.58.15-1.21,4.01-2.24,8.38-3.59,12.21h0Z" style="fill: #303935;"/>
      </g>
      <g>
        <path d="M206.6,68.88l2.45-25.44-2.45,25.44Z" style="fill: #6bbdcc;"/>
        <path d="M206.58,68.88l2.37-25.45s.2.02.2.02c-.78,8.47-1.57,17.03-2.56,25.43h0ZM206.58,68.88c.7-8.49,1.49-16.97,2.37-25.45,0,0,.2.02.2.02-.02,0-2.5,25.48-2.56,25.43h0Z" style="fill: #303935;"/>
      </g>
      <g>
        <path d="M207.01,66.53l-12.39-20.49,12.39,20.49Z" style="fill: #6bbdcc;"/>
        <path d="M207,66.54l-12.46-20.44.17-.1c4.15,6.8,8.36,13.68,12.29,20.54h0ZM207,66.54c-4.23-6.77-8.38-13.58-12.46-20.44,0,0,.17-.1.17-.1-.02.02,12.38,20.55,12.29,20.54h0Z" style="fill: #303935;"/>
      </g>
      <g>
        <path d="M252.46,92.27l9.82-8.08-9.82,8.08Z" style="fill: #6bbdcc;"/>
        <path d="M252.43,92.24c3.2-2.78,6.42-5.54,9.65-8.29l.38.46c-3.16,2.76-6.55,5.7-10.03,7.82h0ZM252.43,92.24c3.04-2.97,6.26-5.74,9.65-8.29,0,0,.38.46.38.46-3.32,2.55-6.71,5.5-10.03,7.82h0Z" style="fill: #303935;"/>
      </g>
      <g>
        <path d="M245.37,86.3l16.83-19.24-16.83,19.24Z" style="fill: #6bbdcc;"/>
        <path d="M245.35,86.28l16.7-19.35.3.26c-5.54,6.43-11.19,13.02-17,19.09h0ZM245.35,86.28c5.44-6.56,11-13.01,16.7-19.35,0,0,.3.26.3.26-.04-.02-16.95,19.25-17,19.09h0Z" style="fill: #303935;"/>
      </g>
      <g>
        <path d="M248.11,87.99l1.88-23.87-1.88,23.87Z" style="fill: #6bbdcc;"/>
        <path d="M248.1,87.99l1.8-23.87s.2.02.2.02c-.59,7.94-1.19,15.98-2,23.86h0ZM248.1,87.99c.51-7.96,1.11-15.92,1.8-23.87,0,0,.2.02.2.02-.02,0-1.93,23.91-2,23.86h0Z" style="fill: #303935;"/>
      </g>
      <g>
        <path d="M254.83,95.7l2.68-13.59-2.68,13.59Z" style="fill: #6bbdcc;"/>
        <path d="M254.79,95.69c.79-4.55,1.59-9.09,2.42-13.64l.59.12c-.76,4.5-1.59,9.3-3.01,13.52h0ZM254.79,95.69c.53-4.59,1.34-9.14,2.42-13.64,0,0,.59.12.59.12-1.02,4.45-1.84,9.25-3.01,13.52h0Z" style="fill: #303935;"/>
      </g>
      <g>
        <path d="M258.05,100.97l3.78-10.06-3.78,10.06Z" style="fill: #6bbdcc;"/>
        <path d="M258.01,100.96c1.16-3.39,2.34-6.78,3.54-10.15l.56.21c-1.13,3.35-2.37,6.98-4.1,9.94h0ZM258.01,100.96c.92-3.48,2.09-6.86,3.54-10.15,0,0,.56.21.56.21-1.37,3.26-2.6,6.89-4.1,9.94h0Z" style="fill: #303935;"/>
      </g>
      <g>
        <path d="M231.68,75.45l5.37-5.17-5.37,5.17Z" style="fill: #6bbdcc;"/>
        <path d="M231.64,75.41c1.69-1.83,3.4-3.64,5.12-5.42l.56.58c-1.61,1.92-3.49,3.56-5.61,4.92,0,0-.07-.07-.07-.07h0ZM231.64,75.41c1.44-2.07,3.14-3.88,5.12-5.42,0,0,.56.58.56.58-1.33,1.08-4.62,4.33-5.68,4.85h0Z" style="fill: #303935;"/>
      </g>
      <g>
        <path d="M226.02,71.94l5.73-11.36-5.73,11.36Z" style="fill: #6bbdcc;"/>
        <path d="M226.01,71.93l5.65-11.4s.18.09.18.09c-1.87,3.78-3.78,7.66-5.83,11.31h0ZM226.01,71.93c1.81-3.84,3.69-7.64,5.65-11.4,0,0,.18.09.18.09-.02,0-5.78,11.38-5.83,11.31h0Z" style="fill: #303935;"/>
      </g>
      <g>
        <path d="M217.12,69.33l7.64-24.39-7.64,24.39Z" style="fill: #6bbdcc;"/>
        <path d="M217.11,69.32l7.56-24.42s.19.06.19.06c-2.51,8.12-5.04,16.34-7.75,24.36h0ZM217.11,69.32c2.44-8.16,4.96-16.3,7.56-24.42,0,0,.19.06.19.06-.02,0-7.69,24.42-7.75,24.36h0Z" style="fill: #303935;"/>
      </g>
      <g>
        <path d="M220.32,69.77l-7.9-22.6,7.9,22.6Z" style="fill: #6bbdcc;"/>
        <path d="M220.31,69.78l-7.99-22.57.19-.07c2.66,7.51,5.36,15.1,7.8,22.64h0ZM220.31,69.78c-2.74-7.49-5.4-15.02-7.99-22.57,0,0,.19-.07.19-.07-.02.01,7.88,22.66,7.8,22.64h0Z" style="fill: #303935;"/>
      </g>
      <g>
        <path d="M269.87,106.84l6.96-2.65-6.96,2.65Z" style="fill: #e1e2e2;"/>
        <path d="M269.87,106.83l6.93-2.73.07.19c-2.29.91-4.68,1.86-7,2.54h0ZM269.87,106.83c2.28-1,4.59-1.91,6.93-2.73l.07.19s-7.02,2.62-7,2.54h0Z" style="fill: #303935;"/>
      </g>
      <g>
        <path d="M266.05,101.39l9.72-8.2-9.72,8.2Z" style="fill: #e1e2e2;"/>
        <path d="M266.03,101.37c3.17-2.82,6.36-5.61,9.56-8.4l.39.46c-3.13,2.79-6.49,5.78-9.94,7.94h0ZM266.03,101.37c3-3.01,6.19-5.81,9.56-8.4,0,0,.39.46.39.46-3.29,2.59-6.64,5.58-9.94,7.94h0Z" style="fill: #303935;"/>
      </g>
      <g>
        <path d="M258.89,95.5l16.6-19.43-16.6,19.43Z" style="fill: #6bbdcc;"/>
        <path d="M258.88,95.49l16.54-19.49.15.13c-5.5,6.48-11.05,13.05-16.69,19.36h0ZM258.88,95.49c5.45-6.55,10.96-13.05,16.54-19.49,0,0,.15.13.15.13-.02-.01-16.66,19.44-16.69,19.36h0Z" style="fill: #303935;"/>
      </g>
      <g>
        <path d="M261.65,97.17l1.6-23.89-1.6,23.89Z" style="fill: #6bbdcc;"/>
        <path d="M261.63,97.16l1.43-23.9s.4.03.4.03c-.47,7.93-.93,16.07-1.83,23.87h0ZM261.63,97.16c.31-7.98.78-15.94,1.43-23.9,0,0,.4.03.4.03-.05,0-1.69,23.97-1.83,23.87h0Z" style="fill: #303935;"/>
      </g>
      <g>
        <path d="M268.46,104.79l2.52-13.62-2.52,13.62Z" style="fill: #e1e2e2;"/>
        <path d="M268.43,104.79c.73-4.56,1.49-9.11,2.26-13.66l.59.11c-.71,4.51-1.48,9.32-2.85,13.55h0ZM268.43,104.79c.48-4.6,1.23-9.16,2.26-13.66,0,0,.59.11.59.11-.97,4.46-1.73,9.27-2.85,13.55h0Z" style="fill: #303935;"/>
      </g>
      <g>
        <path d="M249.34,85.91l4.97-5.56-4.97,5.56Z" style="fill: #6bbdcc;"/>
        <path d="M249.3,85.88c1.55-1.95,3.12-3.88,4.7-5.79l.6.53c-1.47,2.03-3.21,3.81-5.23,5.32,0,0-.07-.07-.07-.07h0ZM249.3,85.88c1.28-2.17,2.85-4.1,4.7-5.79,0,0,.6.53.6.53-1.25,1.17-4.28,4.66-5.3,5.26h0Z" style="fill: #303935;"/>
      </g>
      <g>
        <path d="M243.44,82.83l4.87-11.75-4.87,11.75Z" style="fill: #6bbdcc;"/>
        <path d="M243.4,82.82c1.52-3.96,3.06-7.91,4.62-11.85,0,0,.55.23.55.23-1.49,3.92-3.1,8.11-5.18,11.62h0ZM243.4,82.82c1.28-4.05,2.82-8.01,4.62-11.85,0,0,.55.23.55.23-1.73,3.82-3.33,8.01-5.18,11.62h0Z" style="fill: #303935;"/>
      </g>
      <g>
        <path d="M234.37,80.89l5.81-24.89-5.81,24.89Z" style="fill: #6bbdcc;"/>
        <path d="M234.36,80.89l5.72-24.91s.19.05.19.05c-1.9,8.29-3.81,16.67-5.92,24.86h0ZM234.36,80.89c1.82-8.32,3.73-16.63,5.72-24.91,0,0,.19.05.19.05-.02,0-5.86,24.93-5.92,24.86h0Z" style="fill: #303935;"/>
      </g>
      <g>
        <path d="M237.59,81.1l-9.56-21.95,9.56,21.95Z" style="fill: #6bbdcc;"/>
        <path d="M237.58,81.1l-9.64-21.91.18-.08c3.21,7.29,6.47,14.66,9.46,21.99h0ZM237.58,81.1c-3.29-7.27-6.51-14.58-9.64-21.91,0,0,.18-.08.18-.08-.02.01,9.54,22.01,9.46,21.99h0Z" style="fill: #303935;"/>
      </g>
      <g>
        <path d="M247.14,84.74l-4.03-13.25,4.03,13.25Z" style="fill: #6bbdcc;"/>
        <path d="M247.11,84.75c-1.45-4.38-2.87-8.78-4.28-13.17l.57-.17c1.44,4.33,2.97,8.96,3.7,13.35h0ZM247.11,84.75c-1.69-4.3-3.12-8.7-4.28-13.17,0,0,.57-.17.57-.17,1.19,4.41,2.73,9.02,3.7,13.35h0Z" style="fill: #303935;"/>
      </g>
      <g>
        <path d="M279.37,139.24l7.4.85-7.4-.85Z" style="fill: #e1e2e2;"/>
        <path d="M279.38,139.19c2.48.14,4.96.3,7.44.5l-.09.79c-2.51-.02-4.97-.42-7.36-1.19,0,0,.01-.1.01-.1h0ZM279.38,139.19c2.51-.21,4.99-.05,7.44.5,0,0-.09.79-.09.79-1.77-.36-6.13-.78-7.35-1.29h0Z" style="fill: #303935;"/>
      </g>
      <g>
        <path d="M278.48,132.64l12.4-2.81-12.4,2.81Z" style="fill: #e1e2e2;"/>
        <path d="M278.48,132.63l12.38-2.9.04.2c-4.11.97-8.32,1.96-12.43,2.7h0ZM278.48,132.63c4.11-1.05,8.24-2.02,12.38-2.9,0,0,.04.2.04.2-.01-.02-12.46,2.78-12.43,2.7h0Z" style="fill: #303935;"/>
      </g>
      <g>
        <path d="M274.83,124.11l23.67-9.63-23.67,9.63Z" style="fill: #e1e2e2;"/>
        <path d="M274.82,124.1l23.64-9.71.08.19c-7.86,3.23-15.81,6.52-23.72,9.53h0ZM274.82,124.1c7.85-3.32,15.73-6.56,23.64-9.71,0,0,.08.19.08.19-.01-.02-23.73,9.61-23.72,9.53h0Z" style="fill: #303935;"/>
      </g>
      <g>
        <path d="M276.52,126.86l12.4-20.48-12.4,20.48Z" style="fill: #e1e2e2;"/>
        <path d="M276.51,126.86l12.32-20.53.17.1c-4.1,6.83-8.24,13.75-12.49,20.42h0ZM276.51,126.86c4.03-6.89,8.14-13.73,12.32-20.53,0,0,.17.1.17.1-.02-.01-12.46,20.5-12.49,20.42h0Z" style="fill: #303935;"/>
      </g>
      <g>
        <path d="M279.57,142.92l7.9-7.29-7.9,7.29Z" style="fill: #e1e2e2;"/>
        <path d="M279.54,142.89c2.56-2.51,5.13-5.01,7.72-7.49l.41.44c-2.51,2.49-5.26,5.17-8.12,7.05h0ZM279.54,142.89c2.38-2.7,4.95-5.19,7.72-7.49,0,0,.41.44.41.44-2.69,2.29-5.42,4.98-8.12,7.05h0Z" style="fill: #303935;"/>
      </g>
      <g>
        <path d="M277.21,111.58l11.1-6.2-11.1,6.2Z" style="fill: #e1e2e2;"/>
        <path d="M277.2,111.57l11.06-6.28.1.17c-3.67,2.09-7.42,4.23-11.16,6.11h0ZM277.2,111.57c3.64-2.17,7.33-4.26,11.06-6.28,0,0,.1.17.1.17-.02-.02-11.16,6.19-11.16,6.11h0Z" style="fill: #303935;"/>
      </g>
      <g>
        <path d="M269.49,104.97l19.99-15.93-19.99,15.93Z" style="fill: #e1e2e2;"/>
        <path d="M269.48,104.96l19.93-16s.12.16.12.16c-6.63,5.32-13.33,10.72-20.06,15.84h0ZM269.48,104.96c6.59-5.4,13.23-10.73,19.93-16,0,0,.12.16.12.16-.02-.02-20.05,15.93-20.06,15.84h0Z" style="fill: #303935;"/>
      </g>
      <g>
        <path d="M273.7,106.59l6.11-23.15-6.11,23.15Z" style="fill: #e1e2e2;"/>
        <path d="M273.68,106.59l6.02-23.17s.19.05.19.05c-2,7.71-4.02,15.52-6.22,23.12h0ZM273.68,106.59c1.92-7.75,3.93-15.47,6.02-23.17,0,0,.19.05.19.05-.02,0-6.16,23.19-6.22,23.12h0Z" style="fill: #303935;"/>
      </g>
      <g>
        <path d="M278.93,115.37l5.06-12.89-5.06,12.89Z" style="fill: #e1e2e2;"/>
        <path d="M278.92,115.37l4.97-12.92s.19.07.19.07c-1.65,4.29-3.33,8.68-5.16,12.85h0ZM278.92,115.37c1.58-4.34,3.24-8.65,4.97-12.92,0,0,.19.07.19.07-.02,0-5.11,12.92-5.16,12.85h0Z" style="fill: #303935;"/>
      </g>
      <g>
        <path d="M276.61,156.27l6,4.41-6-4.41Z" style="fill: #e1e2e2;"/>
        <path d="M276.62,156.26l6.05,4.34-.12.16c-2.01-1.43-4.1-2.92-5.94-4.5h0ZM276.62,156.26c2.07,1.37,4.09,2.82,6.05,4.34,0,0-.12.16-.12.16,0-.02-6.01-4.48-5.94-4.5h0Z" style="fill: #303935;"/>
      </g>
      <g>
        <path d="M280.18,140.89l25.33,3.41-25.33-3.41Z" style="fill: #e1e2e2;"/>
        <path d="M280.18,140.88l25.34,3.32s-.03.2-.03.2c-8.43-1.1-16.96-2.21-25.31-3.52h0ZM280.18,140.88c8.46,1.02,16.91,2.13,25.34,3.32,0,0-.03.2-.03.2,0-.02-25.37-3.46-25.31-3.52h0Z" style="fill: #303935;"/>
      </g>
      <g>
        <path d="M280.28,144.11l20.94-11.61-20.94,11.61Z" style="fill: #e1e2e2;"/>
        <path d="M280.27,144.1l20.9-11.68s.1.17.1.17c-6.95,3.89-13.98,7.84-20.99,11.51h0ZM280.27,144.1c6.92-3.97,13.89-7.86,20.9-11.68,0,0,.1.17.1.17-.01-.02-21,11.6-20.99,11.51h0Z" style="fill: #303935;"/>
      </g>
      <g>
        <path d="M277.56,153.97l12.8-5.27-12.8,5.27Z" style="fill: #e1e2e2;"/>
        <path d="M277.55,153.94c4.23-1.86,8.46-3.69,12.7-5.51l.23.55c-4.18,1.85-8.63,3.81-12.93,4.96h0ZM277.55,153.94c4.12-2.09,8.36-3.93,12.7-5.51,0,0,.23.55.23.55-4.27,1.61-8.72,3.57-12.93,4.96h0Z" style="fill: #303935;"/>
      </g>
      <g>
        <path d="M274.95,159.56l10.48-2.4-10.48,2.4Z" style="fill: #e1e2e2;"/>
        <path d="M274.94,159.53c3.47-.91,6.94-1.79,10.42-2.66l.13.58c-3.42.91-7.13,1.88-10.55,2.07h0ZM274.94,159.53c3.4-1.16,6.88-2.04,10.42-2.66,0,0,.13.58.13.58-3.47.65-7.18,1.63-10.55,2.07h0Z" style="fill: #303935;"/>
      </g>
      <g>
        <path d="M271.72,156.29l10.76,6.79-10.76-6.79Z" style="fill: #e1e2e2;"/>
        <path d="M271.72,156.28l10.8,6.72-.11.17c-3.59-2.23-7.27-4.5-10.7-6.88h0ZM271.72,156.28c3.65,2.17,7.25,4.4,10.8,6.72,0,0-.11.17-.11.17,0-.02-10.77-6.85-10.7-6.88h0Z" style="fill: #303935;"/>
      </g>
      <g>
        <path d="M275.17,147.68l23.54,9.95-23.54-9.95Z" style="fill: #e1e2e2;"/>
        <path d="M275.17,147.67l23.58,9.87-.08.18c-7.84-3.28-15.78-6.59-23.5-10.05h0ZM275.17,147.67c7.89,3.21,15.75,6.5,23.58,9.87,0,0-.08.18-.08.18,0-.02-23.57-10-23.5-10.05h0Z" style="fill: #303935;"/>
      </g>
      <g>
        <path d="M274.42,150.82l23.25-5.7-23.25,5.7Z" style="fill: #e1e2e2;"/>
        <path d="M274.41,150.81l23.23-5.78.05.19c-7.73,1.93-15.55,3.89-23.28,5.59h0ZM274.41,150.81c7.72-2.01,15.47-3.94,23.23-5.78,0,0,.05.19.05.19,0-.02-23.31,5.67-23.28,5.59h0Z" style="fill: #303935;"/>
      </g>
      <g>
        <path d="M265.21,164.32l10.74.43-10.74-.43Z" style="fill: #e1e2e2;"/>
        <path d="M265.21,164.29c3.58.04,7.17.09,10.75.17l-.02.6c-3.53-.02-7.37-.06-10.73-.77h0ZM265.21,164.29c3.59-.22,7.17-.16,10.75.17,0,0-.02.6-.02.6-3.52-.28-7.35-.31-10.73-.77h0Z" style="fill: #303935;"/>
      </g>
      <g>
        <path d="M236.75,176.09l5.77,11.34-5.77-11.34Z" style="fill: #6bbdcc;"/>
        <path d="M236.78,176.08c2.02,3.73,4.02,7.47,6,11.22,0,0-.53.27-.53.27-2.01-3.68-4.15-7.63-5.47-11.49h0ZM236.78,176.08c2.25,3.61,4.25,7.35,6,11.22,0,0-.53.27-.53.27-1.77-3.8-3.92-7.74-5.47-11.49h0Z" style="fill: #303935;"/>
      </g>
      <g>
        <path d="M240.07,173.32l15.14,20.59-15.14-20.59Z" style="fill: #6bbdcc;"/>
        <path d="M240.08,173.31l15.21,20.54-.16.12c-5.06-6.83-10.19-13.74-15.05-20.66h0ZM240.08,173.31c5.14,6.8,10.21,13.64,15.21,20.54,0,0-.16.12-.16.12.02-.02-15.14-20.65-15.05-20.66h0Z" style="fill: #303935;"/>
      </g>
      <g>
        <path d="M249.11,168.15l22.89,7-22.89-7Z" style="fill: #6bbdcc;"/>
        <path d="M249.12,168.13l22.92,6.92-.06.19c-7.62-2.3-15.35-4.62-22.86-7.11h0ZM249.12,168.13c7.66,2.22,15.3,4.53,22.92,6.92,0,0-.06.19-.06.19,0-.02-22.93-7.05-22.86-7.11h0Z" style="fill: #303935;"/>
      </g>
      <g>
        <path d="M233.55,176.57l3.26,13.46-3.26-13.46Z" style="fill: #6bbdcc;"/>
        <path d="M233.57,176.56l3.43,13.42s-.39.09-.39.09c-1.16-4.43-2.36-9.06-3.04-13.51h0ZM233.57,176.56c1.32,4.43,2.47,8.9,3.43,13.42,0,0-.39.09-.39.09.04-.02-3.2-13.57-3.04-13.51h0Z" style="fill: #303935;"/>
      </g>
      <g>
        <path d="M239.63,177.48l9.01,5.87-9.01-5.87Z" style="fill: #6bbdcc;"/>
        <path d="M239.64,177.47l9.05,5.8-.11.17c-3-1.92-6.1-3.89-8.94-5.96h0ZM239.64,177.47c3.06,1.86,6.08,3.79,9.05,5.8,0,0-.11.17-.11.17,0-.02-9.02-5.93-8.94-5.96h0Z" style="fill: #303935;"/>
      </g>
      <g>
        <path d="M272.61,126.48l25.56.31-25.56-.31Z" style="fill: #e1e2e2;"/>
        <path d="M272.61,126.47l25.56.23v.2c-8.5-.07-17.11-.13-25.56-.43h0ZM272.61,126.47c8.52-.01,17.04.06,25.56.23,0,0,0,.2,0,.2,0-.02-25.6-.35-25.55-.43h0Z" style="fill: #303935;"/>
      </g>
      <g>
        <path d="M273.39,126.24l22.57-7.99-22.57,7.99Z" style="fill: #e1e2e2;"/>
        <path d="M273.39,126.23l22.54-8.07.07.19c-7.5,2.69-15.08,5.42-22.61,7.88h0ZM273.39,126.23c7.48-2.77,15-5.46,22.54-8.07,0,0,.07.19.07.19-.01-.02-22.63,7.96-22.61,7.88h0Z" style="fill: #303935;"/>
      </g>
      <g>
        <path d="M281.48,148.54l7.91-7.28-7.91,7.28Z" style="fill: #e1e2e2;"/>
        <path d="M281.46,148.51c2.56-2.51,5.14-5,7.73-7.47,0,0,.41.44.41.44-2.52,2.48-5.26,5.16-8.14,7.03h0ZM281.46,148.51c2.38-2.69,4.96-5.18,7.73-7.47,0,0,.41.44.41.44-2.69,2.29-5.43,4.97-8.14,7.03h0Z" style="fill: #303935;"/>
      </g>
      <g>
        <path d="M102.05,82.07l-15.4-7.51,15.4,7.51Z" style="fill: #6bbdcc;"/>
        <path d="M102.04,82.09l-15.44-7.43.09-.18c5.13,2.47,10.36,4.97,15.35,7.61h0ZM102.04,82.09c-5.18-2.4-10.33-4.87-15.44-7.43,0,0,.09-.18.09-.18,0,.02,15.42,7.56,15.35,7.61h0Z" style="fill: #303935;"/>
      </g>
      <g>
        <path d="M261.19,164.67l6.56,10.9-6.56-10.9Z" style="fill: #6bbdcc;"/>
        <path d="M261.21,164.66l6.71,10.81-.34.21c-2.24-3.56-4.58-7.3-6.36-11.02h0ZM261.21,164.66c2.39,3.51,4.63,7.11,6.71,10.81,0,0-.34.21-.34.21.03-.03-6.53-11.02-6.36-11.02h0Z" style="fill: #303935;"/>
      </g>
      <g>
        <path d="M268.14,158.54l16.56,19.47-16.56-19.47Z" style="fill: #e1e2e2;"/>
        <path d="M268.15,158.53l16.63,19.41-.15.13c-5.53-6.46-11.14-12.98-16.47-19.54h0ZM268.15,158.53c5.61,6.41,11.15,12.89,16.63,19.41,0,0-.15.13-.15.13.02-.02-16.56-19.53-16.47-19.54h0Z" style="fill: #303935;"/>
      </g>
      <g>
        <path d="M266.06,161l23.33,5.36-23.33-5.36Z" style="fill: #e1e2e2;"/>
        <path d="M266.06,160.99l23.35,5.28s-.04.19-.04.19c-7.77-1.75-15.64-3.52-23.31-5.47h0ZM266.06,160.99c7.8,1.68,15.59,3.44,23.35,5.28,0,0-.04.19-.04.19,0-.02-23.37-5.41-23.31-5.47h0Z" style="fill: #303935;"/>
      </g>
      <g>
        <path d="M257.45,166.52l13.05,4.64-13.05-4.64Z" style="fill: #6bbdcc;"/>
        <path d="M257.46,166.48c4.38,1.45,8.76,2.91,13.13,4.39l-.2.57c-4.34-1.42-8.97-2.94-12.93-4.96h0ZM257.46,166.48c4.47,1.2,8.85,2.67,13.13,4.39,0,0-.2.57-.2.57-4.25-1.66-8.88-3.17-12.93-4.96h0Z" style="fill: #303935;"/>
      </g>
      <g>
        <path d="M251.77,168.93l9.4,5.22-9.4-5.22Z" style="fill: #6bbdcc;"/>
        <path d="M251.79,168.89c3.19,1.64,6.36,3.31,9.53,4.99,0,0-.29.52-.29.52-3.15-1.61-6.56-3.37-9.23-5.51h0ZM251.79,168.89c3.3,1.42,6.48,3.08,9.53,4.99,0,0-.29.52-.29.52-3.02-1.84-6.43-3.59-9.23-5.51h0Z" style="fill: #303935;"/>
      </g>
      <g>
        <path d="M251.27,171.37l3.54,12.22-3.54-12.22Z" style="fill: #6bbdcc;"/>
        <path d="M251.3,171.36l3.7,12.17s-.38.11-.38.11c-1.24-4.02-2.55-8.23-3.32-12.28h0ZM251.3,171.36c1.41,4,2.65,8.06,3.7,12.17,0,0-.38.11-.38.11.04-.02-3.48-12.33-3.32-12.28h0Z" style="fill: #303935;"/>
      </g>
      <g>
        <path d="M252.24,170.41l11,23.07-11-23.07Z" style="fill: #6bbdcc;"/>
        <path d="M252.25,170.41l11.08,23.03-.18.09c-3.69-7.66-7.43-15.41-10.9-23.12h0ZM252.25,170.41c3.77,7.64,7.46,15.32,11.08,23.03,0,0-.18.09-.18.09.02-.01-10.99-23.13-10.9-23.12h0Z" style="fill: #303935;"/>
      </g>
      <g>
        <path d="M249.59,172.26l21.17,11.18-21.17-11.18Z" style="fill: #6bbdcc;"/>
        <path d="M249.6,172.25l21.21,11.1s-.09.18-.09.18c-7.06-3.69-14.21-7.42-21.12-11.28h0ZM249.6,172.25c7.11,3.62,14.18,7.32,21.21,11.1,0,0-.09.18-.09.18,0-.02-21.2-11.24-21.12-11.28h0Z" style="fill: #303935;"/>
      </g>
      <g>
        <path d="M239.86,175.38l11.42,7.84-11.42-7.84Z" style="fill: #6bbdcc;"/>
        <path d="M239.86,175.37l11.46,7.76s-.11.16-.11.16c-3.81-2.58-7.71-5.2-11.35-7.93h0ZM239.86,175.37c3.87,2.52,7.69,5.11,11.46,7.76,0,0-.11.16-.11.16.01-.02-11.43-7.9-11.35-7.93h0Z" style="fill: #303935;"/>
      </g>
      <g>
        <path d="M233.74,176.25l7.74,7.46-7.74-7.46Z" style="fill: #6bbdcc;"/>
        <path d="M233.76,176.23l7.86,7.33-.28.29c-2.61-2.4-5.37-4.95-7.59-7.62h0ZM233.76,176.23c2.75,2.31,5.37,4.75,7.86,7.33,0,0-.28.29-.28.29.02-.04-7.74-7.58-7.59-7.62h0Z" style="fill: #303935;"/>
      </g>
      <g>
        <path d="M242.98,178.52l-2.91,6.86,2.91-6.86Z" style="fill: #6bbdcc;"/>
        <path d="M242.99,178.52l-2.83,6.89-.18-.08c.93-2.29,1.89-4.66,3.02-6.81h0ZM242.99,178.52c-.86,2.33-1.8,4.63-2.83,6.89,0,0-.18-.08-.18-.08.02,0,2.97-6.88,3.02-6.81h0Z" style="fill: #303935;"/>
      </g>
      <g>
        <path d="M87.95,94.65l-4.57-5.85,4.57,5.85Z" style="fill: #6bbdcc;"/>
        <path d="M87.94,94.66l-4.64-5.8.16-.12c1.54,1.91,3.15,3.9,4.48,5.92h0ZM87.94,94.66c-1.62-1.88-3.17-3.81-4.64-5.8l.16-.12s4.57,5.92,4.48,5.92h0Z" style="fill: #303935;"/>
      </g>
      <g>
        <path d="M281.66,137.99l23.56-9.91-23.56,9.91Z" style="fill: #e1e2e2;"/>
        <path d="M281.66,137.98l23.52-9.99s.08.18.08.18c-7.82,3.33-15.74,6.7-23.6,9.81h0ZM281.66,137.98c7.81-3.41,15.65-6.74,23.52-9.99,0,0,.08.18.08.18-.01-.02-23.62,9.9-23.6,9.81h0Z" style="fill: #303935;"/>
      </g>
      <g>
        <path d="M278.28,126.12l22.35,8.59-22.35-8.59Z" style="fill: #e1e2e2;"/>
        <path d="M278.29,126.1l22.38,8.51s-.07.19-.07.19c-7.44-2.83-14.99-5.68-22.31-8.69h0ZM278.29,126.1c7.49,2.76,14.95,5.59,22.38,8.51,0,0-.07.19-.07.19,0-.02-22.38-8.64-22.31-8.69h0Z" style="fill: #303935;"/>
      </g>
      <g>
        <path d="M245.96,173.93l8.07,11.25-8.07-11.25Z" style="fill: #6bbdcc;"/>
        <path d="M245.97,173.92l8.15,11.2s-.16.12-.16.12c-2.71-3.72-5.48-7.51-7.98-11.31h0ZM245.97,173.92c2.78,3.68,5.5,7.41,8.15,11.2,0,0-.16.12-.16.12.02-.02-8.07-11.31-7.98-11.31h0Z" style="fill: #303935;"/>
      </g>
      <g>
        <path d="M119.82,70.01l-8.46-9.5,8.46,9.5Z" style="fill: #6bbdcc;"/>
        <path d="M119.81,70.02l-8.53-9.44s.15-.13.15-.13c2.83,3.13,5.74,6.33,8.38,9.57h0ZM119.81,70.02c-2.91-3.09-5.75-6.24-8.53-9.44,0,0,.15-.13.15-.13-.01.02,8.46,9.56,8.38,9.57h0Z" style="fill: #303935;"/>
      </g>
      <g>
        <path d="M102.17,80.64l-10.98-12.55,10.98,12.55Z" style="fill: #6bbdcc;"/>
        <path d="M102.16,80.65l-11.04-12.49.15-.13c3.67,4.15,7.42,8.36,10.89,12.62h0ZM102.16,80.65c-3.74-4.11-7.42-8.27-11.04-12.49,0,0,.15-.13.15-.13-.01.02,10.97,12.61,10.89,12.62h0Z" style="fill: #303935;"/>
      </g>
      <g>
        <path d="M100.5,79.6l-16.13-2.73,16.13,2.73Z" style="fill: #6bbdcc;"/>
        <path d="M100.49,79.62l-16.14-2.65.03-.2c5.36.88,10.83,1.76,16.11,2.85h0ZM100.49,79.62c-5.39-.8-10.78-1.68-16.14-2.65,0,0,.03-.2.03-.2,0,.02,16.17,2.78,16.11,2.85h0Z" style="fill: #303935;"/>
      </g>
      <g>
        <path d="M97.65,133.01l-11.98,6.94,11.98-6.94Z" style="fill: #6bbdcc;"/>
        <path d="M97.66,133.02l-11.94,7.01-.1-.17c3.96-2.33,8.01-4.72,12.04-6.84h0ZM97.66,133.02c-3.94,2.41-7.92,4.75-11.94,7.01,0,0-.1-.17-.1-.17.02.02,12.05-6.92,12.04-6.84h0Z" style="fill: #303935;"/>
      </g>
      <g>
        <path d="M222.65,69.72l4.88-5.63-4.88,5.63Z" style="fill: #6bbdcc;"/>
        <path d="M222.65,69.71l4.82-5.69.15.13c-1.59,1.89-3.24,3.85-4.97,5.55h0ZM222.65,69.71c1.54-1.96,3.14-3.85,4.82-5.69l.15.13s-4.95,5.63-4.97,5.55h0Z" style="fill: #303935;"/>
      </g>
      <g>
        <path d="M216.24,67.55l-14.46-21.08,14.46,21.08Z" style="fill: #6bbdcc;"/>
        <path d="M216.23,67.55l-14.53-21.03s.16-.11.16-.11c4.84,6.99,9.74,14.06,14.37,21.14h0ZM216.23,67.55c-4.91-6.96-9.76-13.97-14.53-21.03,0,0,.16-.11.16-.11-.02.02,14.45,21.14,14.37,21.14h0Z" style="fill: #303935;"/>
      </g>
      <g>
        <path d="M274.65,109.75l8.86-22.24-8.86,22.24Z" style="fill: #e1e2e2;"/>
        <path d="M274.64,109.75l8.78-22.27.19.07c-2.92,7.41-5.86,14.92-8.96,22.2h0ZM274.64,109.75c2.85-7.46,5.77-14.88,8.78-22.27,0,0,.19.07.19.07-.02,0-8.91,22.27-8.96,22.2h0Z" style="fill: #303935;"/>
      </g>
      <g>
        <path d="M220.44,68.58l-1.14-13.4,1.14,13.4Z" style="fill: #6bbdcc;"/>
        <path d="M220.43,68.58l-1.23-13.39.2-.02c.41,4.45.84,8.99,1.03,13.41h0ZM220.43,68.58c-.5-4.46-.91-8.92-1.23-13.39,0,0,.2-.02.2-.02-.02,0,1.1,13.45,1.03,13.41h0Z" style="fill: #303935;"/>
      </g>
      <g>
        <path d="M225.8,71.64l-1.55-10.64,1.55,10.64Z" style="fill: #6bbdcc;"/>
        <path d="M225.79,71.64l-1.64-10.62.2-.03c.55,3.52,1.12,7.15,1.44,10.65h0ZM225.79,71.64c-.63-3.53-1.18-7.07-1.64-10.62,0,0,.2-.03.2-.03-.02,0,1.52,10.69,1.44,10.65h0Z" style="fill: #303935;"/>
      </g>
      <path d="M84.76,115.54l-10.64,6.97,10.64-6.97Z" style="fill: #6bbdcc; stroke: #303935; stroke-miterlimit: 10; stroke-width: .5px;"/>
      <path d="M88.62,120.26l-13.45,21.4,13.45-21.4Z" style="fill: #6bbdcc; stroke: #303935; stroke-miterlimit: 10; stroke-width: .5px;"/>
      <path d="M85.33,113.72l-9.01,1.3,9.01-1.3Z" style="fill: #6bbdcc; stroke: #303935; stroke-miterlimit: 10; stroke-width: .5px;"/>
      <path d="M92.97,87.98l-9.92-1.06,9.92,1.06Z" style="fill: #6bbdcc; stroke: #303935; stroke-miterlimit: 10; stroke-width: .5px;"/>
      <path d="M93.13,97.21l-25.44-2.46,25.44,2.46Z" style="fill: #6bbdcc; stroke: #303935; stroke-miterlimit: 10; stroke-width: .5px;"/>
      <path d="M90.39,95.62l-23.9,7.77,23.9-7.77Z" style="fill: #6bbdcc; stroke: #303935; stroke-miterlimit: 10; stroke-width: .5px;"/>
      <path d="M273.85,111.84l11.72-4.95-11.72,4.95Z" style="fill: #e1e2e2; stroke: #303935; stroke-miterlimit: 10; stroke-width: .5px;"/>
      <g>
        <path d="M202.67,65.39l5.15-25.03-5.15,25.03Z" style="fill: #6bbdcc;"/>
        <path d="M202.65,65.39l4.98-25.07.39.08c-1.65,8.32-3.32,16.85-5.37,24.99h0ZM202.65,65.39c1.49-8.39,3.15-16.75,4.98-25.07,0,0,.39.08.39.08-.05,0-5.25,25.11-5.37,24.99h0Z" style="fill: #303935;"/>
      </g>
      <g>
        <path d="M198.44,66.25l-10.13-21.69,10.13,21.69Z" style="fill: #6bbdcc;"/>
        <path d="M198.44,66.25c-3.1-6.19-7.36-15.23-10.36-21.59,0,0,.45-.21.45-.21,2.96,6.41,7.13,15.41,9.91,21.8h0ZM198.44,66.25c-3.1-6.19-7.36-15.23-10.36-21.59,0,0,.45-.21.45-.21,2.96,6.41,7.13,15.41,9.91,21.8h0Z" style="fill: #303935;"/>
      </g>
      <path d="M276.03,114.09l6.44-12.26-6.44,12.26Z" style="fill: #e1e2e2; stroke: #303935; stroke-miterlimit: 10; stroke-width: .5px;"/>
      <g>
        <path d="M276.73,121.77l6.49-8.57-6.49,8.57Z" style="fill: #e1e2e2;"/>
        <path d="M276.71,121.75l6.35-8.67s.32.24.32.24c-2.08,2.88-4.28,5.92-6.67,8.43h0ZM276.71,121.75c1.97-3,4.09-5.89,6.35-8.67,0,0,.32.24.32.24-.04-.01-6.62,8.58-6.67,8.43h0Z" style="fill: #303935;"/>
      </g>
      <path d="M130.5,45.42l15.1,18.58-15.1-18.58Z" style="fill: #6bbdcc; stroke: #303935; stroke-miterlimit: 10; stroke-width: .5px;"/>
      <g>
        <path d="M148.64,62.8l-4.3-15.19,4.3,15.19Z" style="fill: #6bbdcc;"/>
        <path d="M148.63,62.8l-4.39-15.17s.19-.05.19-.05c1.46,5.04,2.96,10.17,4.2,15.22h0ZM148.63,62.8c-1.54-5.03-3.01-10.09-4.39-15.17,0,0,.19-.05.19-.05-.02.01,4.28,15.25,4.2,15.22h0Z" style="fill: #303935;"/>
      </g>
      <g>
        <path d="M164.2,49.22l3.83,12.13-3.83-12.13Z" style="fill: #6bbdcc;"/>
        <path d="M164.21,49.21l3.91,12.1-.19.06c-1.3-4.02-2.64-8.13-3.72-12.16h0ZM164.21,49.21c1.39,4.01,2.69,8.04,3.91,12.1,0,0-.19.06-.19.06.02-.01-3.81-12.18-3.72-12.16h0Z" style="fill: #303935;"/>
      </g>
      <g>
        <path d="M154.21,64l-3.42-28.48,3.42,28.48Z" style="fill: #6bbdcc;"/>
        <path d="M154.2,64l-3.51-28.47.2-.02c.87,7.08,2.62,21.45,3.31,28.5h0ZM154.2,64c-.94-7.09-2.7-21.37-3.51-28.47,0,0,.2-.02.2-.02-.02,0,3.39,28.54,3.31,28.5h0Z" style="fill: #303935;"/>
      </g>
      <path d="M146.85,44.31l4.39,15.77-4.39-15.77Z" style="fill: #6bbdcc; stroke: #303935; stroke-miterlimit: 10; stroke-width: .25px;"/>
    </g>
    <g id="oje">
      <g id="oje_v">
        <path d="M124.32,112.74s-2.15-1.77-3.13-3.18-1.63-2.96-2.34-5.16c-.71-2.19-.9-4.45-.91-4.47,0,0-.04-.41-.05-.58l-.04-.43c-.1-1.16-.12-2.32-.04-3.47.03-.46.09-.87.13-.98l.13-1.05c.15-.69.32-1.07.32-1.07l.3-.85c1.51-3.68,1.54-3.98,3.27-5.58.43-.4.21-.23,1.01-.9l.32-.26.43-.32c1.43-1.25,2.77-2.33,4.55-3l1.32-.5c1.97-.66,3.82-.93,5.79-1.04l3.11-.05c.96-.05,2.21.18,3.61.44,1.57.28,2.85.77,3.79,1.2.65.3,1.54.74,2.56,1.35,1.19.71,1.91,1.14,2.66,1.9.52.53,1.36,1.39,2.16,2.7.49.8,1.22,1.9,1.8,3.28.94,2.24.88,3.57,1.06,4.68.03.2.11.86.2,1.49.26,1.88.09,3.5-.13,5.38l-.62,2.81c-.17.55-.32,1.14-.56,1.66-.76,1.65-1.39,2.76-1.85,3.56-.59,1.04-1.09,1.78-1.27,1.98l-.81.93c-.92,1.03-.64.8-1.7,1.69l-.72.59s-.6.48-.61.48l-1.23.59s-.43.22-.44.22l-.19.09c-3.67-.81-6.16-1.42-9.83-2.23" style="fill: url(#Ikke-navngivet_forløb_37);"/>
        <path d="M141.6,115.52c1.36-.14,2.27-.83,5.12-2.59.64-.4,1.84-1.58,2.49-2.17,1.34-1.23,1.8-2.51,2.35-3.88,2.09-5.15,2.08-11-.48-15.93-.69-1.33-1.55-2.58-2.62-3.6-1.73-1.66-3.24-2.95-6.85-3.71-3.43-.72-8.78-.91-12.09,1.03-2.92,1.71-3.4,1.19-6.67,7.07-4.11,7.4,2.73,20.2,4.72,21.18.11.06-1.4.04-1.4.04h0" style="fill: #fff;"/>
        <path d="M128.66,104.46c-1.54-4.6,1.23-9.35,3.22-10.98,1.16-.95,2.8-2.07,2.8-2.07h0l.65-.42c2.97-1.85,8-.37,10.96,2.19h0c2.06,1.78,3.12,4.44,2.89,7.16-.05.63-.13,1.25-.24,1.79l-.55,2.03s0-.01,0,0c-4.34,9.63-13.89,5.68-15.29,4.92-.24-.13-3.4-1.49-4.44-4.61Z" style="fill: url(#Ikke-navngivet_forløb_320); stroke: #303935; stroke-miterlimit: 10;"/>
        <path d="M145.19,101.64c.64.95.35,2.13.35,2.13,0,0,0,2.4-3.49,2.74-2.52.24-2.83-1.55-2.8-2.56,0-.37.1-.73.23-1.07l.16-.4c.75-1.89,3.09-2.76,4.77-1.61.33.23.6.5.79.78Z"/>
        <path d="M141.7,91.24s-5.94,4.88-.66,7.11c5.81,2.45,7.63.65,7.51-.46-.08-.75-.89-3.94-2.48-4.9-1.81-1.21-3.48-1.67-4.37-1.75Z" style="fill: url(#Ikke-navngivet_forløb_380); stroke: #333; stroke-miterlimit: 10; stroke-width: .75px;"/>
        <path d="M112.5,114.29c-.04-.15,11.15-5.28,39.78,4.8" style="fill: none; stroke: #303935; stroke-miterlimit: 10; stroke-width: .5px;"/>
      </g>
      <g id="oje_m">
        <path d="M171.14,119.55s-1.7-2.12-2.65-3.55c-.91-1.38-1.55-2.07-2.27-4.27-.71-2.19-.9-4.45-.91-4.47,0,0,0-1.18,0-.39v-1.69c0-.37.14-3.05.14-3.34l.38-2.08s0,0,0,0h0c1.2-3.71,1.68-4.5,3.35-6.28.4-.42.67-.79,1.28-1.23l.68-.52,1.27-.92c1.63-.95,1.42-1.08,3.09-1.76l1.55-.65c1.85-.7,4.13-1.13,6.11-1.24l2.5-.12c.96-.05,2.41.33,3.82.59,1.57.28,2.85.77,3.79,1.2.65.3,1.54.74,2.56,1.35,1.09.8,1.98,1.68,2.73,2.44.93.9,1.54,1.72,2.44,3.01.54.77,1.09,1.64,1.55,2.96.56,1.62.69,2.11.86,3.22.03.2.17,2.07.18,2.29.02.36.03.71.05,1.07.11,2.47-.23,4.94-.96,7.3-.17.55-.42,1.32-.66,1.84-.37.82-.83,2.01-1.75,3.35-.33.48-.83,1.14-1.51,1.86-.14.16-.3.33-.47.5-.27.27-.54.51-.8.72-.44.43-.83.72-1.12.91-.15.1-.37.23-.81.5-.33.2-.61.36-.8.47-.16.1-.4.23-.7.35-.58.23-.98.26-.98.33,0,.06.26.13,1.44.21l.64.04s.17.21.17.21c-3.87-.59-7.75-1.18-11.62-1.77" style="fill: url(#Ikke-navngivet_forløb_34);"/>
        <path d="M176.85,120.38c-3.67-.57-6.01-4.2-6.87-5.87-.74-1.43-2.09-4.66-1.66-11.34,0-.11.42-2.23.5-2.42,1.25-2.9,1.25-3.4,3.01-5.59.01-.02,1.98-2.07,1.99-2.09,3.31-3.06,10.34-3.43,12.1-3.52,2.71.23,4.6.68,8.1,2.7,2.33,1.35,5.89,7.3,6.63,13.57.27,2.29-1.91,11.13-5.83,13.2-3.02,1.56-4.87,2.28-6.61,2.55-.98.15-2.06.13-2.17.14-1.56.01-2.76-.16-4.24-.4-2.9-.48-4.33-.82-4.93-.92Z" style="fill: #fff;"/>
        <path d="M158.72,118.95c4.55-2.03,32.76,4.58,37.95,4.91" style="fill: none; stroke: #303935; stroke-miterlimit: 10; stroke-width: .5px;"/>
        <path d="M174.27,110.65c-1.54-4.6,1.23-9.35,3.22-10.98,1.16-.95,2.8-2.07,2.8-2.07h0l.65-.42c2.97-1.85,8-.37,10.96,2.19h0c2.06,1.78,3.12,4.44,2.89,7.16-.05.63-.13,1.25-.24,1.79l-.55,2.03s0-.01,0,0c-4.34,9.63-13.89,5.68-15.29,4.92-.24-.13-3.4-1.49-4.44-4.61Z" style="fill: url(#Ikke-navngivet_forløb_323); stroke: #303935; stroke-miterlimit: 10;"/>
        <path d="M180.28,97.6c-1.55,1.93.73,3.74,3.69,4.6,4.22,1.22,7.2-3.05,7.2-3.05-.52-1.02-4.37-2.73-6.61-2.32-2.55-.05-3.49.23-4.27.76Z" style="fill: url(#Ikke-navngivet_forløb_370); stroke: #333; stroke-miterlimit: 10; stroke-width: .75px;"/>
        <path d="M187.78,106.46c.64.95.35,2.13.35,2.13,0,0,0,2.4-3.49,2.74-2.52.24-2.83-1.55-2.8-2.56,0-.37.1-.73.23-1.07l.16-.4c.75-1.89,3.09-2.76,4.77-1.61.33.23.6.5.79.78Z"/>
      </g>
      <g id="oje_h">
        <path d="M215.06,131.27s-1.55-2.73-2.07-4.36-1.1-2.34-1.36-4.64c-.25-2.29.01-4.54.02-4.57t-.16.77l.5-2.7c.08-.69.57-2.53.89-3.35.61-1.44,1.39-2.81,2.33-4.06.43-.57.84-1.09,1.1-1.37.33-.35.41-.52,2.41-1.93.47-.33.77-.47,1.12-.75l.75-.39-.32.17c1.18-.67,2.44-1.12,3.75-1.48.88-.24,1.77-.41,2.66-.56l.35-.06c1.96-.19,5.05-.32,7.01-.03l1.99.34c1.09.2,1.93.52,3.25,1.05,1.48.6,2.64,1.33,3.47,1.94.58.42,1.45,1.03,2.23,1.84.98,1.02,1.09,1.33,1.44,1.78.41.62,1.47,2.24,2.03,3.7.35.87.75,2.07,1.04,3.54.47,2.39.39,4.27.33,5.39-.01.2-.02.41-.04.64-.14,1.89-.56,3.75-1.15,5.55h0c-.44.87-.93,2.1-1.38,2.93s-1.06,1.63-1.56,2.28c-.98,1.15-1.41,1.45-2.21,2.03-.29.21-.53.39-.75.55-.75.56-.98.6-1.68,1.04l-1.22.72c-.86.42-1.79.86-2.06.97-.96.37-1.35.52-2.04.76l-1.04.17s.79.13.79.13l-.38-.26.1.24.57-.13c-.87-.12-2.32-.43-3.41-.72-.16-.04-2.34-1.02-5.66-2.59-3.95-1.88-6.83-3.03-8.39-3.63-.58-.22-1.05-.37-1.37-.49-.06,0-.12-.04-.18-.04" style="fill: url(#Ikke-navngivet_forløb_26);"/>
        <path d="M218.7,132.4c-.19-.09-.38-.42-.46-.62-.59-1.52-2.44-5-2.65-7.57-.29-3.53.32-6.42.86-8.22.82-2.95,2.24-4.81,3.13-5.8,2.93-3.24,4.65-4.43,7.34-5.13.74-.19,7.65-.82,10.12.35,6.55,3.09,9.35,4.4,10.38,16.32.43,5.03-1.17,8.72-4.8,10.93-5.08,3.09-6.8,3.35-8.52,3.6-.19.03-.48.08-.81.13-.36.05-1.8.24-3.99.41-.5.04-.6.06-.67.03-.77-.36-1.51-.56-2.35-1.05-.44-.26-1.02-.51-2.2-.99-2.86-1.17-3.66-1.58-5.37-2.39Z" style="fill: #fff;"/>
        <path d="M218.83,125.82c-1.54-4.6,1.23-9.35,3.22-10.98,1.16-.95,2.8-2.07,2.8-2.07h0l.65-.42c2.97-1.85,8-.37,10.96,2.19h0c2.06,1.78,3.12,4.44,2.89,7.16-.05.63-.13,1.25-.24,1.79l-.55,2.03s0-.01,0,0c-4.34,9.63-13.89,5.68-15.29,4.92-.24-.13-3.4-1.49-4.44-4.61Z" style="fill: url(#Ikke-navngivet_forløb_329); stroke: #303935; stroke-miterlimit: 10;"/>
        <path d="M231.09,112.34c.88-.27-1.89,1.07.36,6.11,2.58,5.76,7.28.97,7.28.97-.27-.71-1.09-3.42-2.83-4.73-2.14-1.38-3.93-2.48-4.81-2.34Z" style="fill: url(#Ikke-navngivet_forløb_374); stroke: #333; stroke-miterlimit: 10; stroke-width: .75px;"/>
        <path d="M225.98,121.63c.64.95.35,2.13.35,2.13,0,0,0,2.4-3.49,2.74-2.52.24-2.83-1.55-2.8-2.56,0-.37.1-.73.23-1.07l.16-.4c.75-1.89,3.09-2.76,4.77-1.61.33.23.6.5.79.78Z"/>
        <polyline points="245.14 141.42 232.26 138.65 217.45 132.09 207.47 129.62" style="fill: none; stroke: #303935; stroke-miterlimit: 10; stroke-width: .5px;"/>
      </g>
    </g>
  </g>
  <g id="krop">
    <g id="krop-2" data-name="krop">
      <path d="M118.58,163.47c-15.83-1.85-6.05-1.27-31.34-1.92-13.41-.35-40.23,3.68-45.1,6.16-6.22,3.18-11.61,6.6-17.51,13.99-3.1,3.89-15.16,27.92-13.72,44.89,1.42,16.76,17.39,27.05,17.39,27.05,0,0,6.86,4.39,13.53,1.29,2.09-.97-22.51,10.2-13.85,14.81,11.02,5.86,17.71-12.4,17.71-12.4l3.22,1.61s-4.29,10.92,3.22,12.56c6.71,1.47,12.88-16.75,3.22-19-9.66-2.25,4.19-5.8,4.19-5.8,0,0,17.23-9.89-1.29-12.88-17.95-2.9-7.73,19.97-10.63,18.36-2.9-1.61-3.86,7.73-20.93-7.41-17.07-15.14-.44-48.24,1.86-50.94,6.61-7.73,12.83-13.52,36.47-17,24.25-3.57,46.69,5.14,52.16,12.54,5.47,7.41-15.81,37.45-9.84,62.13,4.39,18.18,16.25,31.43,18,34.92.11.23.26.43.46.57.68.46,2.36,2.21,3.3,5.43.93,3.23,6.82,17.58,2.28,29.49-4.45,11.69-19.99,78.07-19.99,78.07l-5.8,38.64c-3.3-2.65-43.76-1.77-60.21,19.34l66.03,1.08,3.72-7.05,15.43-89.22,20.98-65.72-.62-2.03,16.58,1.48-.99,2.19-.39,11.25-.55,20.44-15.14,127.21,6.29,6.24,64.46,5.06c-.97-.48-24.26-36.89-56.75-21.44l15.6-137.06s10.19-16.94,16.82-21.27c7.12-4.64,34.5-20.48,34.83-46.56.32-26.09.08-24.34.08-24.34l-7.72-14.91s3.62,12.41,27.41,40.8c23.06,27.52,46.32,10.36,46.32,10.36,5.07-4.77,3.16-3.21,10.03-12.29,4.22-5.58,8.6,4.54,11.93,7.53.98.88,6.99,3.48,2.8-9.08-4.19-12.56,17.17,12.43,15.54-6.18-.77-8.75-9.05.73-15.78-4.51-4.03-3.14-3.73-8.69,1.61-9.66,6.29-1.14,7.7-5.59,4.83-8.05-4.96-4.26-13.35,1.97-13.67,4.5-1.11.66.39,9.19.79,10.31.71,2.04-6.76,8.37-8.37,1.93s-7.08-13.2-10.31-6.12c-3.22,7.08,4.51,7.41,4.51,7.41,0,0,10.5-.45,2.25,11.59s-39.93,9.98-53.78-16.42c-13.85-26.41-9.21-35.45-14.59-38.71-2.96-1.79-5.56-2.83-8.45-3.34-7.69-1.37-12.17.93-19.93,2.3-8.07,1.42-14.22.88-22.06.18-9.05-.8-15.74-1.5-23.04-3.53-7.26-2.02-16.61-6.21-27.37-11.12" style="fill: #6bbdcc;"/>
      <g id="ben">
        <path d="M127.04,288.18c1.21.74,2.87,1.72,4.92,2.76,3.37,1.72,6.01,2.72,8.62,3.7,4.1,1.54,5.84,1.92,6.39,2.03,1.84.38,3.41.53,4.52.59-1.15,3.61-2.3,7.22-3.46,10.83l-5.3,16.61c-5.04-7.57-8.61-11.57-9.36-13.98-.82-2.63,0,0-.84-5.21-.19-1.15-.42-2.14-2.01-7.03-.83-2.55-2-6.07-3.47-10.3" style="fill: url(#Ikke-navngivet_forløb_232);"/>
        <path d="M191.75,293.91c-1.27.43-4.32,2.36-6.45,2.77-3.69.71-6.18,1.92-8.31,2.14-3.89.4-6.32.1-6.84.07-1.75-.08-2.61.03-3.63-.18.09,3.76-.48,7.49-.39,11.25l-.46,17.37c6.49-6.09,12.69-8.91,13.6-11.26.94-2.46-.42-2.12,1.7-6.95.34-.77.49-.9,1.71-2.53,0,0,1.05-1.35,1.59-2.17.8-1.23,1.44-2.3,1.93-2.88.98-1.16,1.94-3.42,4.41-6" style="fill: url(#Ikke-navngivet_forløb_232-2);"/>
      </g>
      <g id="arm">
        <path id="arm_v" d="M53.24,164.91l29.95,11.24s-.23,0,5.39.79c6.16,1.61,10.34,2.85,16.5,4.46.47.12,1.82.88,2.29,1.01,1.73.78,3.92,1.95,6.13,3.63,2.5,1.9,3.95,3.75,4.2,4.35.1.28.27,2.04.39,2.19.04-.49.1-1.21.16-2.1.39-6.05.16-10.53.08-12.46-.13-3.3-.18-8.13.24-14.56-10.9-1.27-19.59-1.76-26.82-1.81-4.24-.03-10.36-.06-18.45.58-7.95.63-14.74,1.67-20.05,2.67Z" style="fill: url(#Ikke-navngivet_forløb_150);"/>
        <path id="arm_h" d="M262.66,240.41c-.51,4.5,13.17,13.13,12.66,17.62-4.53.11-10.11-2.24-13.97-4.61-14.52-8.94-15.74-17.27-17.4-18.56-.67-1.13-1.26-1.28-7.36-10-1.98-2.83-2.3-3.22-3.13-4.41-2.36-3.4-2.39-1.95-6.08-10.22l.84-27.03c2.8.69.97.18,2.64.73,1.53.5,3.6,2.19,4.75,2.83,3.41,1.88,4.79,8.77,6.12,15.11,0,0,1.25,5.98,4.66,16.02,1.99,5.86,6.22,13.97,16.28,22.52Z" style="fill: url(#Ikke-navngivet_forløb_40);"/>
      </g>
      <path d="M219.5,183.15c-19.35,1.96-34,2.51-39.82,2.13-4.06-.26-7.68-.84-7.68-.84-3.78-.61-6.7-1.35-8.24-1.79-5.05-1.45-6.57-2.17-12.03-4.06-5.25-1.81-4.08-1.73-7.95-3.43-5.93-2.61-8.15-3.85-11.33-5.1,0,0-2.52-1.82-4.86-2.28-.09-.02-.26-.16-.81-.45-.16-.08-1.28-.91-1.34-.94-2.46-1.45-6.87-2.93-6.87-2.93-1.72,1.55-.25,11.88-.38,27.19-.03,3.23-.85,8.48-2.88,15.01-2.25,7.27-4.4,10.94-7.02,20.38-.5,1.82-.93,3.85-1.32,6.52-1.36,9.3-1.2,16.94,2.19,25,.14.34,1.55,5.13,3.52,9.53,3.13,7,6.46,10.69,7.33,12.08.86,1.37,1.89,2.28,3.5,4.95,1.35,2.24,3.26,3.92,3.52,4.05,0,0,4.05,2.46,4.92,2.76.51.18,6.03,2.67,6.03,2.67,4.19,1.48,8.31,3.15,14.59,3.79,9.11.93,6.58.97,12.16,1.27,4.39.23,11.66.46,13.37-.08,0,0,7.55-1.92,9.7-2.7,3.14-1.14,5.29-2.85,7.11-4.5,1.7-1.54,7.19-4.18,11.29-7.52,8.08-6.58,5.54-4.72,11.33-10.6,1.41-1.43,7.15-6.11,10.09-12.02.92-1.86,1.59-3.73,1.62-3.8.64-1.54,1.32-3.81,1.73-7.67.62-5.81,1.42-11.75,1.3-17.93-.03-1.29-.05-.66-.27-5.5-.16-3.53-.06-4.67-.15-6.52-.07-1.57-.03-1.41-.07-1.57-1.12-4.44-4.04-20.08-4.04-20.08,0,0,1.03-13,.46-14.98-1.63-.54-.88-.19-3.55-.33-2-.1-3.75.06-5.16.28Z" style="fill: url(#Ikke-navngivet_forløb_295);"/>
    </g>
    <g id="krop_stjerne">
      <path id="krop__stj" data-name="krop_ stj" d="M209.41,192.59l1.96,7.48c.56,2.12,2.86,4.47,5.66,4.97l2.9.52-3.17,1.26c-2.4.95-4.02,3.6-4.03,6.59l-.04,8.82-2.12-8.13c-.9-3.45-3.45-5.94-6.49-6.32l-3.78-.47,2.8-.81c3.32-.96,5.7-4.42,5.82-8.46l.48-5.45Z" style="fill: #ff0;"/>
      <path id="krop__stj-2" data-name="krop_ stj" d="M214.27,276.83l-7.85-9.32c-1.96-2.32-5.33-2.83-7.88-1.18l-5.14,3.31,4.84-5.38c1.78-1.98,2.11-4.88.81-7.21l-3.86-6.9,5.5,6.08c1.82,2.01,4.83,2.43,7.13,1l6.04-3.77-5.61,5.56c-1.77,1.76-2.1,4.5-.8,6.63l6.83,11.18Z" style="fill: #ff0;"/>
      <path id="krop__stj-3" data-name="krop_ stj" d="M144.02,203.21l7.89,2.22h-9.41c-3.41,0-6.55,1.93-8.19,5.04l-4.05,7.68,1.6-6.52c.92-3.74-1.42-7.5-5.07-8.18l-4.69-.86,5.53-.61c4.1-.45,7.65-3.18,9.26-7.13l3.86-9.47-1.54,10.14c-.52,3.46,1.55,6.78,4.8,7.69Z" style="fill: #ff0;"/>
    </g>
    <g id="marke_blue">
      <g id="Blue_v">
        <path d="M52.17,169.37c-.98-.67-.81-2.09-.43-2.9.11-.24.39-.81,1.09-1.23,1-.59,2.44-.63,3.49-.01.15.09,1.32.8,1.23,1.87-.08.94-1.09,1.49-1.67,1.81-.31.17-2.43,1.32-3.7.46Z" style="fill: #2e3192;"/>
        <path d="M41.95,169.36c.45-.09,1.09-.04,1.38.24.17.16.15.37.09.77-.09.63-.14.94-.52,1.19-.3.2-.87.38-1.38.24-.58-.16-.74-.62-.78-.74-.22-.65.29-1.51,1.21-1.69Z" style="fill: #2e3192;"/>
        <path d="M35,173.09c.34-.06.83-.02,1.05.16.13.11.11.24.07.51-.07.41-.11.62-.39.78-.23.13-.66.25-1.05.16-.44-.1-.56-.41-.59-.49-.17-.43.22-.99.92-1.11Z" style="fill: #2e3192;"/>
        <path d="M48.1,166.96c.17-.03.42-.01.53.09.07.06.06.13.03.28-.04.23-.05.34-.2.43-.12.07-.33.14-.53.09-.22-.06-.28-.22-.3-.27-.08-.23.11-.54.46-.61Z" style="fill: #2e3192;"/>
        <path d="M39.42,174.45c.17.02.42,0,.53-.05.07-.04.06-.08.03-.17-.04-.14-.05-.21-.2-.27-.12-.04-.33-.08-.53-.05-.22.04-.28.14-.3.17-.08.15.11.34.46.38Z" style="fill: #2e3192;"/>
        <path d="M67.51,167.34c-1.38-.55-1.12-1.75-.58-2.43.16-.2.56-.68,1.56-1.04,1.42-.51,3.47-.56,4.94-.05.22.07,1.86.66,1.72,1.56-.13.79-1.56,1.27-2.39,1.54-.45.15-3.46,1.14-5.25.43Z" style="fill: #2e3192;"/>
      </g>
      <g id="blue_h">
        <path d="M237.41,204.87c.05-1.49,1.27-1.65,2.1-1.36.24.08.83.3,1.5,1.12.96,1.17,1.69,3.08,1.71,4.64,0,.23,0,1.97-.89,2.14-.79.15-1.72-1.05-2.25-1.73-.29-.37-2.23-2.87-2.17-4.8Z" style="fill: #2e3192;"/>
        <path d="M242.02,217.63c.25-.87,1.42-1.23,2.16-1.25.22,0,.74,0,1.26.32.74.47,1.16,1.42.96,2.32-.03.13-.27,1.14-1.13,1.43-.76.26-1.47-.23-1.88-.51-.22-.15-1.7-1.18-1.37-2.31Z" style="fill: #2e3192;"/>
        <path d="M237.26,213.1c.26-.06.64-.03.81.16.1.11.09.25.05.53-.06.43-.08.65-.3.81-.18.13-.51.26-.81.16-.34-.11-.43-.43-.45-.51-.13-.45.17-1.04.71-1.16Z" style="fill: #2e3192;"/>
      </g>
    </g>
  </g>
</svg>